<?xml version="1.0" standalone="no"?>
<!DOCTYPE svg PUBLIC "-//W3C//DTD SVG 1.1//EN" "http://www.w3.org/Graphics/SVG/1.1/DTD/svg11.dtd" >
<svg>
<metadata>
Created by FontForge 20090622 at Mon Jun 20 14:05:25 2016
 By deploy user
&#194;&#169; 2010 Microsoft Corporation. All Rights Reserved.
</metadata>
<defs>
<font id="SegoeWP-SemiLight" horiz-adv-x="458" >
  <font-face 
    font-family="Segoe WP SemiLight"
    font-weight="300"
    font-stretch="normal"
    units-per-em="2048"
    panose-1="2 11 4 2 4 2 4 2 2 3"
    ascent="1638"
    descent="-410"
    x-height="1024"
    cap-height="1434"
    bbox="-327 -491 2378 2130"
    underline-thickness="119"
    underline-position="-119"
    unicode-range="U+000D-U+F003"
  />
<missing-glyph horiz-adv-x="1322" 
d="M166 0v1398h990v-1398h-990zM314 148h694v1102h-694v-1102z" />
    <glyph glyph-name=".notdef" horiz-adv-x="1322" 
d="M166 0v1398h990v-1398h-990zM314 148h694v1102h-694v-1102z" />
    <glyph glyph-name="uni000D" unicode="&#xd;" horiz-adv-x="0" 
 />
    <glyph glyph-name="space" unicode=" " horiz-adv-x="561" 
 />
    <glyph glyph-name="exclam" unicode="!" horiz-adv-x="582" 
d="M344 403h-111l-14 1031h139zM291 -18q-40 0 -68 27.5t-28 67.5q0 41 28 68.5t68 27.5q19 0 36 -7t30.5 -20t21.5 -30.5t8 -38.5q0 -20 -8 -37.5t-21.5 -30.5t-30.5 -20t-36 -7z" />
    <glyph glyph-name="quotedbl" unicode="&#x22;" horiz-adv-x="744" 
d="M565 986h-95l-20 448h135zM275 986h-95l-20 448h135z" />
    <glyph glyph-name="numbersign" unicode="#" horiz-adv-x="1223" 
d="M1138 936h-266l-70 -323h283l-22 -92h-279l-87 -398h-103l86 398h-259l-85 -398h-103l85 398h-272l19 92h273l68 323h-285l20 92h284l86 406h103l-86 -406h260l87 406h102l-87 -406h269zM510 936l-71 -323h261l70 323h-260z" />
    <glyph glyph-name="dollar" unicode="$" horiz-adv-x="1079" 
d="M591 -209h-91v209q-199 0 -336 83v138q33 -25 73 -45t84.5 -34.5t90 -22t88.5 -7.5v555l-121.5 68.5t-108.5 79.5t-78 105t-30 145q0 74 25 137t70 111t107 79t136 42v181h91v-178q88 -2 154 -17t112 -38v-131q-105 70 -266 73v-568q98 -49 164 -95t106 -92.5t57 -96.5
t17 -109q0 -70 -23.5 -130t-67.5 -106.5t-108 -77.5t-145 -43v-215zM500 1320q-95 -18 -150.5 -81t-55.5 -158q0 -44 9.5 -79.5t33 -67.5t63 -62.5t100.5 -64.5v513zM591 117q106 20 159 79.5t53 150.5q0 40 -11.5 75t-36.5 67.5t-65.5 63.5t-98.5 64v-500z" />
    <glyph glyph-name="percent" unicode="%" horiz-adv-x="1641" 
d="M410 722q-76 0 -137 26t-103.5 73.5t-65 113.5t-22.5 147q0 89 25 159t70 118.5t108 74t140 25.5q75 0 135 -25t102 -72t64.5 -114.5t22.5 -153.5q0 -81 -24.5 -149t-68.5 -117.5t-106.5 -77.5t-139.5 -28zM421 1363q-52 0 -94.5 -19t-71.5 -54.5t-45 -87t-16 -116.5
q0 -125 58.5 -197t163.5 -72q53 0 94 19.5t69 55.5t43 87t15 114q0 131 -58 200.5t-158 69.5zM431 -21h-121l891 1454h120zM1229 -23q-75 0 -136 26t-103.5 73t-65.5 113.5t-23 147.5q0 88 25 158t70 119t108.5 75t139.5 26q75 0 135 -25t102 -72t64.5 -115.5t22.5 -154.5
q0 -81 -24.5 -149t-68.5 -117.5t-106.5 -77t-139.5 -27.5zM1240 617q-52 0 -94 -19t-71.5 -54.5t-45.5 -87t-16 -116.5q0 -62 15.5 -112t44 -84.5t69.5 -53t93 -18.5t93 19t69.5 55t44 87t15.5 115q0 132 -58 200.5t-159 68.5z" />
    <glyph glyph-name="ampersand" unicode="&#x26;" horiz-adv-x="1440" 
d="M1320 758q0 -155 -41.5 -279.5t-113.5 -220.5l250 -258h-169l-162 167q-100 -94 -223.5 -142.5t-253.5 -48.5q-107 0 -191.5 27.5t-143.5 79.5t-90.5 125.5t-31.5 166.5q0 66 18 126t57 114t100.5 101t148.5 86q-43 49 -73 91.5t-48.5 83t-26.5 80.5t-8 85q0 75 28 134
t77 99.5t115.5 61.5t142.5 21q74 0 135 -21.5t104 -61t66.5 -94t23.5 -120.5q0 -60 -17 -113.5t-56.5 -102t-105 -92t-162.5 -82.5l413 -427q55 78 88 180.5t33 233.5h117zM611 89q47 0 98 10t101.5 30.5t99.5 51t92 71.5l-456 472q-60 -27 -109 -62t-83.5 -78t-53 -94
t-18.5 -109q0 -67 23.5 -121.5t66 -92t103.5 -58t136 -20.5zM445 1141q0 -39 6 -70.5t22 -64t45.5 -70t75.5 -87.5q149 53 220 128t71 171q0 49 -17.5 87t-46.5 63.5t-66.5 38.5t-78.5 13q-52 0 -95 -16t-73 -44t-46.5 -66t-16.5 -83z" />
    <glyph glyph-name="quotesingle" unicode="'" horiz-adv-x="454" 
d="M275 986h-95l-20 448h135z" />
    <glyph glyph-name="parenleft" unicode="(" horiz-adv-x="598" 
d="M451 -326q-306 354 -306 872q0 531 308 888h123q-313 -370 -313 -886q0 -500 310 -874h-122z" />
    <glyph glyph-name="parenright" unicode=")" horiz-adv-x="598" 
d="M25 -326q310 374 310 874q0 516 -313 886h123q308 -357 308 -888q0 -518 -306 -872h-122z" />
    <glyph glyph-name="asterisk" unicode="*" horiz-adv-x="842" 
d="M487 1049l195 -255l-93 -63l-165 271l-168 -271l-92 63l194 255l-285 66l33 105l278 -100l-20 314h116l-18 -314l274 100l34 -105z" />
    <glyph glyph-name="plus" unicode="+" horiz-adv-x="1366" 
d="M737 542v-407h-108v407h-408v109h408v408h108v-408h408v-109h-408z" />
    <glyph glyph-name="comma" unicode="," horiz-adv-x="449" 
d="M140 -256h-97l133 483h131z" />
    <glyph glyph-name="hyphen" unicode="-" horiz-adv-x="817" 
d="M144 530v110h547v-110h-547z" />
    <glyph glyph-name="period" unicode="." horiz-adv-x="449" 
d="M224 -20q-40 0 -68 28t-28 68q0 41 27.5 69t68.5 28q20 0 37.5 -7.5t30.5 -20t21 -30.5t8 -39q0 -20 -8 -37.5t-21 -30.5t-30.5 -20.5t-37.5 -7.5z" />
    <glyph glyph-name="slash" unicode="/" horiz-adv-x="774" 
d="M93 -238h-122l693 1672h125z" />
    <glyph glyph-name="zero" unicode="0" horiz-adv-x="1079" 
d="M526 -24q-103 0 -184 46t-137.5 135.5t-86 222.5t-29.5 307q0 382 120.5 576.5t347.5 194.5q432 0 432 -735q0 -182 -31 -321t-90.5 -234t-145.5 -143.5t-196 -48.5zM549 1346q-160 0 -244 -162t-84 -487q0 -300 80.5 -455.5t238.5 -155.5q77 0 136.5 40.5t99.5 119
t60.5 194.5t20.5 267q0 639 -308 639z" />
    <glyph glyph-name="one" unicode="1" horiz-adv-x="768" 
d="M426 0v1282q-35 -30 -78.5 -58t-89 -52.5t-91 -44t-84.5 -32.5v113q118 38 225.5 104.5t208.5 153.5h37v-1466h-128z" />
    <glyph glyph-name="two" unicode="2" horiz-adv-x="1079" 
d="M791 1066q0 68 -20.5 120.5t-57.5 88t-89 53.5t-115 18q-96 0 -184.5 -45.5t-166.5 -121.5v142q76 65 166 101t203 36q18 0 34.5 -2t32.5 -6q74 -8 134.5 -37.5t103.5 -76.5t66.5 -111.5t23.5 -143.5q0 -92 -24 -165t-68.5 -134.5t-107 -116t-139.5 -109.5l-147.5 -109.5
t-102 -90.5t-61.5 -86t-27 -96q-5 -14 -6.5 -28t-1.5 -31h714v-115h-849v69q0 96 22.5 166.5t70.5 132t123 122.5t180 137q71 52 126 100.5t92 100t56 109.5t19 129z" />
    <glyph glyph-name="three" unicode="3" horiz-adv-x="1079" 
d="M123 193q155 -107 320 -107q68 0 131 17t111.5 53.5t77.5 93t29 135.5q0 150 -105.5 226t-310.5 76h-114v111h105q186 0 280 73.5t94 214.5q0 127 -69.5 193.5t-208.5 66.5q-144 0 -284 -98v129q150 81 311 81q76 0 146 -21t122.5 -63.5t84 -106t31.5 -148.5
q0 -287 -284 -367v-4q70 -8 131 -34.5t106 -71t71 -106t26 -137.5q0 -102 -38 -181t-104 -133t-154.5 -82t-188.5 -28q-182 0 -316 77v141z" />
    <glyph glyph-name="four" unicode="4" horiz-adv-x="1124" 
d="M856 1434v-962h224v-116h-224v-356h-127v356h-679v116q95 108 192.5 230.5t186.5 249t164 250t126 232.5h137zM729 472v757q-74 -128 -147 -238.5l-141.5 -205t-131 -172.5l-114.5 -141h534z" />
    <glyph glyph-name="five" unicode="5" horiz-adv-x="1079" 
d="M160 172q143 -86 286 -86q82 0 148 24t112.5 68t71.5 106t25 137q0 158 -97 241t-286 83q-76 0 -218 -12l44 701h625v-116h-516l-30 -465q87 6 138 6q114 0 201.5 -29.5t147.5 -84.5t91 -134t31 -179q0 -102 -33 -186t-96 -144t-155 -93t-209 -33q-177 0 -281 56v140z
" />
    <glyph glyph-name="six" unicode="6" horiz-adv-x="1079" 
d="M996 455q0 -105 -32.5 -193t-91 -151.5t-139 -99.5t-176.5 -36q-104 0 -185.5 43.5t-138 127.5t-86.5 206t-30 278q0 187 39.5 340t113.5 261.5t179.5 167.5t238.5 59t223 -38v-127q-105 53 -222 53q-101 0 -182.5 -47.5t-138.5 -134.5t-88 -208.5t-31 -268.5h4
q103 210 343 210q91 0 164.5 -33t126 -92t81 -140t28.5 -177zM864 435q0 79 -20.5 144t-58.5 110.5t-93 70.5t-125 25q-66 0 -122.5 -26t-97.5 -70t-64 -101t-23 -119q0 -78 22 -147.5t62 -121.5t96 -82.5t124 -30.5q66 0 121 26t94.5 72.5t62 110t22.5 139.5z" />
    <glyph glyph-name="seven" unicode="7" horiz-adv-x="1079" 
d="M999 1380l-142.5 -263t-120 -239t-98.5 -223t-78.5 -215t-60 -216t-43.5 -224h-135q24 156 73 320t117 331t152.5 335t177.5 332h-736v116h894v-54z" />
    <glyph glyph-name="eight" unicode="8" horiz-adv-x="1079" 
d="M98 400q0 57 17 113.5t51 106t84 89.5t115 64q-97 50 -154.5 133.5t-57.5 185.5q0 79 29.5 146t81.5 116t123.5 76.5t154.5 27.5q84 0 155.5 -28t123.5 -77t81 -116t29 -145q0 -51 -15 -98t-42.5 -88t-66 -74.5t-85.5 -58.5q64 -24 113 -64t82.5 -89.5t50.5 -106
t17 -113.5q0 -97 -32.5 -175.5t-91 -133.5t-140 -84.5t-180.5 -29.5q-97 0 -178 29.5t-140 84.5t-92 133t-33 176zM235 402q0 -71 22 -128.5t62.5 -98.5t96.5 -63t125 -22q67 0 123.5 22.5t97 63t63.5 98t23 128.5q0 63 -22 119.5t-62 99t-96.5 67t-126.5 24.5
q-66 0 -122 -23t-97 -64t-64 -98t-23 -125zM285 1084q0 -55 20 -103t55 -83t82 -55.5t100 -20.5t100 20.5t82 56t55.5 83.5t20.5 102q0 56 -20 104t-54.5 83.5t-82 55.5t-101.5 20q-57 0 -104.5 -20.5t-81.5 -56.5t-52.5 -84t-18.5 -102z" />
    <glyph glyph-name="nine" unicode="9" horiz-adv-x="1079" 
d="M977 806q0 -198 -38 -352.5t-110.5 -261t-179.5 -162t-245 -55.5q-122 0 -229 43v129q117 -60 232 -60q211 0 325 168.5t114 490.5h-4q-96 -208 -336 -208q-90 0 -165 33t-129 91.5t-84 140t-30 179.5q0 106 33.5 193.5t93 150.5t141.5 97.5t179 34.5q101 0 181.5 -42
t136 -124.5t85 -204.5t29.5 -281zM834 953q0 87 -22.5 159.5t-62.5 124t-96 80.5t-122 29q-65 0 -120 -26t-95 -71.5t-63 -108.5t-23 -138q0 -81 22 -146t62 -110t96.5 -69t124.5 -24q62 0 116.5 24t95 64.5t64 95t23.5 116.5z" />
    <glyph glyph-name="colon" unicode=":" horiz-adv-x="449" 
d="M224 852q-20 0 -37.5 7.5t-30.5 21t-20.5 31t-7.5 37.5q0 40 28 67.5t68 27.5q19 0 36.5 -7t31 -19.5t21.5 -30t8 -38.5t-8 -38.5t-21.5 -30.5t-31 -20.5t-36.5 -7.5zM224 -20q-40 0 -68 28t-28 68q0 41 27.5 69t68.5 28q20 0 37.5 -7.5t30.5 -20t21 -30.5t8 -39
q0 -20 -8 -37.5t-21 -30.5t-30.5 -20.5t-37.5 -7.5z" />
    <glyph glyph-name="semicolon" unicode=";" horiz-adv-x="449" 
d="M231 852q-42 0 -69 28t-27 69t27.5 68t68.5 27q40 0 68 -27.5t28 -67.5q0 -21 -8 -38.5t-21.5 -30.5t-30.5 -20.5t-36 -7.5zM140 -256h-97l133 483h131z" />
    <glyph glyph-name="less" unicode="&#x3c;" horiz-adv-x="1366" 
d="M260 569v39l846 474v-122l-659 -367v-4l659 -324v-123z" />
    <glyph glyph-name="equal" unicode="=" horiz-adv-x="1366" 
d="M221 747v108h924v-108h-924zM221 340v108h924v-108h-924z" />
    <glyph glyph-name="greater" unicode="&#x3e;" horiz-adv-x="1366" 
d="M260 142v123l661 323v5l-661 367v122l846 -474v-39z" />
    <glyph glyph-name="question" unicode="?" horiz-adv-x="899" 
d="M356 398q-10 26 -17 66.5t-7 81.5q0 51 16 92.5t42 78.5t60.5 71l71.5 69q30 28 57.5 57t48.5 62t34 70.5t13 80.5q0 52 -18.5 92t-51 67.5t-77 42t-95.5 14.5q-90 0 -166 -32.5t-142 -95.5v142q74 51 152.5 76t167.5 25q75 0 140.5 -20.5t113.5 -60.5t76 -98.5
t28 -135.5q0 -56 -15.5 -103t-41 -87t-57.5 -75t-66 -67l-75.5 -73.5t-54.5 -62.5t-33.5 -61t-11.5 -69q0 -46 9.5 -83.5t19.5 -63.5h-121zM418 -18q-19 0 -36 7t-30 20t-21 30.5t-8 37.5q0 21 7.5 38.5t20.5 30t30.5 20t36.5 7.5t36.5 -7t31 -20t21.5 -30.5t8 -38.5
q0 -20 -8 -37.5t-21.5 -30.5t-31 -20t-36.5 -7z" />
    <glyph glyph-name="at" unicode="@" horiz-adv-x="1944" 
d="M1154 423q-82 -238 -290 -238q-75 0 -132 29.5t-95 79.5t-57.5 118t-19.5 144q0 60 11 123t33 121.5t56 110t80 90t105.5 60.5t131.5 22q32 0 64 -8.5t60 -25t50 -41t34 -56.5h4l10 117h106l-49 -573q0 -212 136 -212q51 0 90.5 20t69 54t50.5 78.5t33.5 92.5t18.5 97
t6 92q0 147 -48.5 265t-137 201.5t-212.5 128t-274 44.5q-105 0 -197.5 -26t-170.5 -73.5t-140 -114.5t-105 -149.5t-66 -178.5t-23 -201q0 -156 49 -285.5t140 -222t219.5 -143.5t288.5 -51q248 0 424 85v-109q-183 -76 -434 -76q-179 0 -327 59t-253.5 165t-164 253
t-58.5 322q0 116 27 223.5t77.5 201.5t123 171.5t164.5 132.5t201.5 85.5t233.5 30.5q108 0 208 -24t186.5 -68.5t157.5 -109t122 -145.5t78.5 -177t27.5 -205q0 -58 -9.5 -120.5t-29.5 -123t-51 -114.5t-74 -95t-99.5 -65t-126.5 -24q-220 0 -229 238h-4zM974 984
q-80 0 -136.5 -38.5t-92 -100t-51.5 -137t-16 -149.5q0 -63 14 -114t40.5 -86.5t64 -54.5t84.5 -19q56 0 98.5 22.5t74 59.5t52.5 85.5t34 101t18.5 105.5t5.5 99q0 112 -49 169t-141 57z" />
    <glyph glyph-name="A" unicode="A" horiz-adv-x="1303" 
d="M1115 0l-158 424h-615l-154 -424h-148l546 1434h134l543 -1434h-148zM678 1183q-7 19 -14.5 44t-12.5 57h-4q-6 -32 -13.5 -57t-14.5 -44l-232 -638h525z" />
    <glyph glyph-name="B" unicode="B" horiz-adv-x="1144" 
d="M186 0v1434h392q89 0 160.5 -24t122 -67.5t77.5 -104.5t27 -134q0 -62 -17 -116t-49 -98.5t-78.5 -77t-105.5 -51.5v-4q72 -7 131 -35t101 -73t65 -105.5t23 -132.5q0 -91 -33 -166.5t-92.5 -130t-141.5 -84.5t-181 -30h-401zM319 1312v-509h186q73 0 132 19t101 55
t64.5 87t22.5 115q0 233 -290 233h-216zM319 683v-562h247q159 0 244.5 74.5t85.5 211.5q0 276 -375 276h-202z" />
    <glyph glyph-name="C" unicode="C" horiz-adv-x="1270" 
d="M1150 53q-166 -78 -379 -78q-152 0 -276 53.5t-211.5 148.5t-135 226t-47.5 286q0 163 50.5 303.5t144.5 244t227.5 162.5t299.5 59q183 0 327 -56v-142q-154 77 -329 77q-139 0 -247 -48t-182 -133.5t-113 -202t-39 -254.5q0 -124 35 -233.5t103.5 -191.5t170.5 -130
t237 -48q207 0 364 87v-130z" />
    <glyph glyph-name="D" unicode="D" horiz-adv-x="1408" 
d="M186 0v1434h377q368 0 556 -176.5t188 -521.5q0 -166 -52.5 -302t-151.5 -232.5t-240 -149t-318 -52.5h-359zM319 1312v-1191h220q148 0 264.5 40t197.5 117.5t123.5 191.5t42.5 262q0 580 -613 580h-235z" />
    <glyph glyph-name="E" unicode="E" horiz-adv-x="1030" 
d="M186 0v1434h699v-122h-566v-526h524v-120h-524v-545h598v-121h-731z" />
    <glyph glyph-name="F" unicode="F" horiz-adv-x="976" 
d="M319 1312v-540h524v-121h-524v-651h-133v1434h699v-122h-566z" />
    <glyph glyph-name="G" unicode="G" horiz-adv-x="1386" 
d="M1240 99q-221 -124 -468 -124q-156 0 -280 53.5t-211 149t-133.5 228t-46.5 291.5q0 105 22.5 202t66 182t106.5 154t144.5 119t179.5 77t211 27q213 0 380 -76v-147q-184 102 -396 102q-131 0 -237 -48t-180.5 -132t-115.5 -198.5t-42 -248.5q-1 -133 34.5 -245.5
t105.5 -194.5t173 -128t238 -46q182 0 316 76v437h-326v121h459v-631z" />
    <glyph glyph-name="H" unicode="H" horiz-adv-x="1420" 
d="M1101 0v671h-782v-671h-133v1434h133v-643h782v643h133v-1434h-133z" />
    <glyph glyph-name="I" unicode="I" horiz-adv-x="505" 
d="M319 1434v-1434h-133v1434h133z" />
    <glyph glyph-name="J" unicode="J" horiz-adv-x="697" 
d="M521 504q0 -268 -99 -398t-280 -130q-35 0 -66 4.5t-57 14.5v131q56 -30 125 -30q127 0 185.5 100t58.5 308v930h133v-930z" />
    <glyph glyph-name="K" unicode="K" horiz-adv-x="1133" 
d="M937 0l-583 671q-24 29 -31 41h-4v-712h-133v1434h133v-675h4q7 11 15 21l17 21l558 633h169l-622 -692l663 -742h-186z" />
    <glyph glyph-name="L" unicode="L" horiz-adv-x="951" 
d="M186 0v1434h133v-1313h576v-121h-709z" />
    <glyph glyph-name="M" unicode="M" horiz-adv-x="1772" 
d="M1455 0v990q0 76 12 245h-4q-14 -45 -25.5 -78t-21.5 -54l-500 -1103h-57l-501 1096q-22 50 -45 141h-4q4 -46 5.5 -105t1.5 -131v-1001h-130v1434h157l487 -1078l29.5 -69.5t26.5 -75.5h6l25.5 73t28.5 71l491 1079h149v-1434h-131z" />
    <glyph glyph-name="N" unicode="N" horiz-adv-x="1492" 
d="M1168 0l-796 1151l-29.5 45t-23.5 45h-5q2 -18 3.5 -50t1.5 -80v-1111h-133v1434h147l783 -1137l32.5 -50.5l26.5 -43.5h5q-4 33 -6 74t-2 91v1066h134v-1434h-138z" />
    <glyph glyph-name="O" unicode="O" horiz-adv-x="1551" 
d="M770 -25q-155 0 -279 56.5t-210.5 154.5t-133 230.5t-46.5 284.5q0 168 46.5 307.5t135.5 239t218 155t294 55.5q152 0 273 -54.5t206 -151t130.5 -228.5t45.5 -287q0 -163 -44.5 -302.5t-131 -241.5t-213 -160t-291.5 -58zM781 1337q-130 0 -230.5 -49.5t-169.5 -134
t-104.5 -198t-36.5 -241.5q-1 -122 31.5 -233.5t98 -197t165.5 -136.5t234 -51t235.5 46.5t169.5 129t102.5 196.5t34.5 249q0 126 -30.5 239t-95 197.5t-164.5 134t-240 49.5z" />
    <glyph glyph-name="P" unicode="P" horiz-adv-x="1130" 
d="M319 558v-558h-133v1434h370q113 0 200 -28t147 -81t91 -130t31 -176q0 -100 -35 -184.5t-100.5 -146t-159.5 -96t-213 -34.5h-198zM319 1312v-632h190q185 0 281 86t96 243q0 303 -354 303h-213z" />
    <glyph glyph-name="Q" unicode="Q" horiz-adv-x="1551" 
d="M770 -24q-152 0 -275.5 53t-211 148.5t-135 229t-47.5 294.5q0 173 48.5 312.5t138.5 238.5t218.5 152.5t288.5 53.5q146 0 266.5 -52.5t207 -148t134 -228t47.5 -292.5q0 -232 -81.5 -400.5t-227.5 -260.5l396 -269h-242l-288 206q-54 -18 -113 -27.5t-124 -9.5z
M781 1337q-119 0 -218.5 -45.5t-171 -127.5t-111.5 -196.5t-40 -253.5q0 -140 38 -254t107 -195t166.5 -125t217.5 -44q125 0 225 42t170.5 122t108.5 195.5t38 261.5q0 147 -37 262t-106 194.5t-167 121.5t-220 42z" />
    <glyph glyph-name="R" unicode="R" horiz-adv-x="1181" 
d="M967 0l-216 411q-32 61 -62 102t-62 65.5t-68.5 35t-81.5 10.5h-158v-624h-133v1434h413q81 0 156.5 -24t134.5 -71t94.5 -118t35.5 -165q0 -76 -23 -140t-65.5 -113.5t-103 -84t-136.5 -51.5v-4q29 -12 53 -31t46.5 -46t44.5 -62t46 -80l241 -444h-156zM319 1312v-567
h238q72 0 132 21t102.5 60t66 94t23.5 124q0 125 -80.5 196.5t-232.5 71.5h-249z" />
    <glyph glyph-name="S" unicode="S" horiz-adv-x="1053" 
d="M130 210q36 -27 79.5 -48.5t89 -36t91.5 -22t88 -7.5q163 0 244 63t81 181q0 57 -19 99.5t-59 79.5t-101 73.5l-144 82.5q-92 50 -157.5 94.5t-107 91t-61 100.5t-19.5 123q0 87 37 156t100 117.5t147.5 74.5t180.5 26q169 0 283 -47v-147q-127 73 -298 73
q-64 0 -120.5 -15.5t-99 -45.5t-67 -74.5t-24.5 -103.5q0 -56 16.5 -96.5t53 -76.5t96 -71.5t145.5 -81.5q90 -48 157 -93.5t111.5 -95t66.5 -105t22 -123.5q0 -94 -35 -165.5t-98 -118.5t-150 -71t-191 -24q-34 0 -81 5.5t-95 16t-91.5 25t-70.5 31.5v156z" />
    <glyph glyph-name="T" unicode="T" horiz-adv-x="1060" 
d="M596 1312v-1312h-133v1312h-413v122h960v-122h-414z" />
    <glyph glyph-name="U" unicode="U" horiz-adv-x="1367" 
d="M1199 576q0 -601 -528 -601q-503 0 -503 579v880h133v-868q0 -236 95 -353t294 -117q376 0 376 456v882h133v-858z" />
    <glyph glyph-name="V" unicode="V" horiz-adv-x="1254" 
d="M681 0h-130l-522 1434h149l406 -1146q11 -32 19.5 -64.5t13.5 -67.5h4q5 28 14 61.5t23 72.5l423 1144h144z" />
    <glyph glyph-name="W" unicode="W" horiz-adv-x="1873" 
d="M1422 0h-139l-307 1063q-11 38 -17.5 73t-7.5 68h-4q-4 -58 -29 -139l-318 -1065h-139l-423 1434h148l316 -1125q11 -37 17.5 -70.5t10.5 -64.5h4q6 45 33 135l336 1125h105l315 -1129q9 -34 16 -66.5t11 -63.5h4q2 20 8 45l14 56l314 1158h145z" />
    <glyph glyph-name="X" unicode="X" horiz-adv-x="1180" 
d="M967 0l-330 548l-23 41.5t-20 43.5h-5l-20.5 -41t-24.5 -44l-338 -548h-163l467 722l-434 712h162l307 -522q14 -23 26.5 -47.5l25.5 -50.5h4q14 29 27.5 54t26.5 46l312 520h154l-440 -710l448 -724h-162z" />
    <glyph glyph-name="Y" unicode="Y" horiz-adv-x="1119" 
d="M617 537v-537h-133v534l-450 900h151l328 -670q6 -12 16 -36t24 -61h3q6 18 17 42t27 54l343 671h142z" />
    <glyph glyph-name="Z" unicode="Z" horiz-adv-x="1167" 
d="M249 121h839v-121h-1039v39l851 1273h-783v122h988v-34z" />
    <glyph glyph-name="bracketleft" unicode="[" horiz-adv-x="598" 
d="M204 -326v1760h343v-102h-224v-1556h224v-102h-343z" />
    <glyph glyph-name="backslash" unicode="\" horiz-adv-x="763" 
d="M657 -239l-684 1673h125l681 -1673h-122z" />
    <glyph glyph-name="bracketright" unicode="]" horiz-adv-x="598" 
d="M52 -326v102h223v1556h-223v102h342v-1760h-342z" />
    <glyph glyph-name="asciicircum" unicode="^" horiz-adv-x="1366" 
d="M999 663l-319 616h-5l-309 -616h-121l403 795h53l421 -795h-123z" />
    <glyph glyph-name="underscore" unicode="_" horiz-adv-x="850" 
d="M0 -282v104h850v-104h-850z" />
    <glyph glyph-name="grave" unicode="`" horiz-adv-x="528" 
d="M334 1203l-255 328h136l227 -328h-108z" />
    <glyph glyph-name="a" unicode="a" horiz-adv-x="1026" 
d="M755 0v182h-4q-50 -98 -136.5 -152t-195.5 -54q-74 0 -133.5 21t-101 59.5t-64 92.5t-22.5 119q0 139 86 221.5t260 107.5l311 45q0 295 -229 295q-179 0 -332 -131v140q32 23 72.5 41.5t85.5 32t92.5 21t92.5 7.5q171 0 258.5 -96t87.5 -286v-666h-128zM491 497
q-69 -10 -118 -25t-81 -40.5t-47 -63t-15 -92.5q0 -41 14.5 -76t42 -60.5t67 -39.5t89.5 -14q68 0 125 26t98.5 72t65 110t23.5 139v101z" />
    <glyph glyph-name="b" unicode="b" horiz-adv-x="1175" 
d="M293 165v-165h-128v1516h128v-688h4q57 107 152.5 163.5t215.5 56.5q98 0 175.5 -35.5t131 -101.5t82 -159t28.5 -207q0 -127 -32.5 -231.5t-92.5 -179.5t-145.5 -116.5t-191.5 -41.5q-217 0 -323 189h-4zM293 426q0 -70 23.5 -131.5t65.5 -108t101.5 -73.5t131.5 -27
q77 0 139 32.5t105.5 92.5t67 145t23.5 190q0 90 -22 162.5t-62.5 123.5t-98 78t-128.5 27q-80 0 -144 -29.5t-109 -80.5t-69 -119.5t-24 -145.5v-136z" />
    <glyph glyph-name="c" unicode="c" horiz-adv-x="927" 
d="M846 46q-114 -69 -276 -71q-110 -1 -198 38t-150 108.5t-95 164t-33 205.5q0 115 35 216.5t102 177t164 119.5t222 44q127 0 232 -49v-136q-112 74 -242 74q-91 0 -162 -34.5t-119.5 -94t-74 -139t-25.5 -168.5q0 -82 21.5 -157t66 -132.5t112.5 -91.5t160 -34
q144 0 260 86v-126z" />
    <glyph glyph-name="d" unicode="d" horiz-adv-x="1176" 
d="M883 0v180h-4q-51 -97 -145.5 -150.5t-214.5 -53.5q-96 0 -174.5 35.5t-134.5 102.5t-86.5 162t-30.5 215q0 124 33.5 226.5t95 176t148 114t192.5 40.5q221 0 317 -177h4v645h128v-1516h-128zM883 618q0 67 -23 125t-64 101t-98.5 68t-126.5 25q-76 0 -140 -30
t-109.5 -86.5t-71 -137.5t-25.5 -184q0 -97 23 -174t65.5 -130t101.5 -81t131 -28q78 0 140.5 28t106 77t67 115t23.5 141v171z" />
    <glyph glyph-name="e" unicode="e" horiz-adv-x="1052" 
d="M226 489q1 -94 25 -169t69 -127t109.5 -79.5t145.5 -27.5q173 0 327 121v-126q-147 -105 -356 -105q-103 0 -187 36t-143 104.5t-91 168.5t-32 228q0 115 35 213t97 169.5t147 112t186 40.5q99 0 175 -34.5t127.5 -98.5t78.5 -156t27 -206v-64h-740zM834 601
q-3 160 -76 248t-203 88q-65 0 -120.5 -23t-97.5 -66.5t-69.5 -106t-38.5 -140.5h605z" />
    <glyph glyph-name="f" unicode="f" horiz-adv-x="603" 
d="M642 1395q-43 28 -111 28q-180 0 -180 -235v-164h255v-112h-255v-912h-128v912h-179v112h179v172q0 77 19.5 139.5t57.5 107t95.5 68.5t132.5 24q72 0 114 -19v-121z" />
    <glyph glyph-name="g" unicode="g" horiz-adv-x="1176" 
d="M1011 79q0 -285 -129.5 -422.5t-399.5 -137.5q-168 0 -318 75v130q167 -93 318 -93q401 0 401 424v123h-4q-118 -202 -360 -202q-95 0 -173.5 35t-134.5 101t-87 160.5t-31 213.5q0 126 33 229.5t94 177.5t147.5 114.5t194.5 40.5q217 0 317 -176h4v152h128v-945z
M883 622q0 64 -23 121t-64 100t-97.5 68.5t-124.5 25.5q-80 0 -144.5 -31t-110 -88t-70 -138.5t-24.5 -183.5q0 -94 23 -170t65 -129t101.5 -82t132.5 -29q76 0 138 27.5t106 76t68 114t24 141.5v177z" />
    <glyph glyph-name="h" unicode="h" horiz-adv-x="1127" 
d="M856 0v602q0 172 -62 253.5t-193 81.5q-62 0 -118 -25t-98 -72t-67 -114.5t-25 -152.5v-573h-128v1516h128v-669h4q120 201 344 201q171 0 257 -105t86 -310v-633h-128z" />
    <glyph glyph-name="i" unicode="i" 
d="M228 1283q-37 0 -64 26t-27 66q0 39 27 64.5t64 25.5q19 0 36 -6.5t29.5 -18.5t20 -28.5t7.5 -36.5q0 -19 -7 -36t-20 -29.5t-29.5 -19.5t-36.5 -7zM165 0v1024h128v-1024h-128z" />
    <glyph glyph-name="j" unicode="j" 
d="M293 36q0 -254 -90 -386t-287 -132q-70 0 -141 34v124q78 -46 148 -46q242 0 242 384v1010h128v-988zM228 1283q-37 0 -64 26t-27 66q0 39 27 64.5t64 25.5q19 0 36 -6.5t29.5 -18.5t20 -28.5t7.5 -36.5q0 -19 -7 -36t-20 -29.5t-29.5 -19.5t-36.5 -7z" />
    <glyph glyph-name="k" unicode="k" horiz-adv-x="963" 
d="M768 0l-471 499h-4v-499h-128v1516h128v-969h4l447 477h167l-480 -495l518 -529h-181z" />
    <glyph glyph-name="l" unicode="l" 
d="M165 0v1516h128v-1516h-128z" />
    <glyph glyph-name="m" unicode="m" horiz-adv-x="1723" 
d="M1452 0v602q0 92 -14 155.5t-43.5 103.5t-75 58t-108.5 18q-56 0 -106 -26.5t-87.5 -73t-59 -109.5t-21.5 -136v-592h-128v615q0 322 -247 322q-57 0 -106 -25.5t-85.5 -71.5t-57 -110.5t-20.5 -142.5v-587h-128v1024h128v-166h4q108 190 315 190q54 0 102 -16.5t86 -46
t65.5 -70.5t41.5 -90q54 109 140.5 166t195.5 57q337 0 337 -416v-632h-128z" />
    <glyph glyph-name="n" unicode="n" horiz-adv-x="1127" 
d="M856 0v590q0 347 -252 347q-67 0 -124 -26.5t-98.5 -73.5t-65 -111.5t-23.5 -139.5v-586h-128v1024h128v-178h4q114 202 343 202q168 0 256 -109t88 -315v-624h-128z" />
    <glyph glyph-name="o" unicode="o" horiz-adv-x="1174" 
d="M584 -24q-114 0 -204.5 38t-154.5 107.5t-98 166.5t-34 215q0 128 36 229t102.5 171.5t160.5 107.5t210 37q111 0 200 -36.5t151 -105.5t95 -168t33 -225q0 -120 -34.5 -218.5t-98.5 -169.5t-156 -110t-208 -39zM594 937q-84 0 -152 -29t-116.5 -84.5t-74.5 -136
t-26 -182.5q0 -96 26 -173t73.5 -132t115.5 -84.5t152 -29.5q86 0 152 28.5t112 83t69.5 133.5t23.5 180q0 207 -92 316.5t-263 109.5z" />
    <glyph glyph-name="p" unicode="p" horiz-adv-x="1175" 
d="M293 165v-636h-128v1495h128v-196h4q57 107 152.5 163.5t215.5 56.5q98 0 175.5 -35.5t131 -100.5t82 -158t28.5 -209q0 -127 -32 -231.5t-92 -179.5t-145.5 -116.5t-192.5 -41.5q-216 0 -323 189h-4zM293 426q0 -70 23.5 -131.5t65.5 -108t101.5 -73.5t131.5 -27
q77 0 139 32.5t105.5 92.5t67 145t23.5 190q0 90 -22 162.5t-62.5 123.5t-98 78t-128.5 27q-80 0 -144 -29.5t-109 -80.5t-69 -119.5t-24 -145.5v-136z" />
    <glyph glyph-name="q" unicode="q" horiz-adv-x="1176" 
d="M883 -471v653h-4q-109 -206 -360 -206q-97 0 -176 36t-134.5 103t-85.5 162.5t-30 214.5q0 128 34.5 230.5t96.5 175t148.5 111.5t191.5 39q219 0 315 -178h4v154h128v-1495h-128zM883 612q0 69 -22.5 128.5t-63.5 103t-99 68.5t-129 25q-76 0 -139 -29.5t-108.5 -85.5
t-71 -138.5t-25.5 -187.5q0 -96 23 -172t65 -129t100 -81t128 -28q82 0 145.5 28.5t107 77.5t66.5 115t23 142v163z" />
    <glyph glyph-name="r" unicode="r" horiz-adv-x="694" 
d="M673 893q-45 33 -116 33q-51 0 -90 -19.5t-68.5 -52.5t-50 -76.5t-33 -90.5t-18 -95t-5.5 -91v-501h-127v1024h127v-219h4q18 56 45.5 100.5t63.5 75t78.5 46.5t89.5 16q31 0 55.5 -4t44.5 -12v-134z" />
    <glyph glyph-name="s" unicode="s" horiz-adv-x="832" 
d="M107 184q29 -23 63 -41t70 -31t72.5 -19.5t69.5 -6.5q228 0 228 171q0 39 -16 67.5t-46 52t-72 43.5t-95 42q-71 29 -122 59t-84 65.5t-49 78t-16 96.5q0 68 29.5 121t79.5 90t115.5 56.5t137.5 19.5q133 0 232 -50v-135q-115 74 -248 74q-48 0 -87.5 -12t-67.5 -34
t-43.5 -52.5t-15.5 -67.5q0 -38 12 -66.5t37.5 -51.5t66 -44t98.5 -45q74 -30 128 -59.5t89 -64t52 -77t17 -98.5q0 -69 -28.5 -123t-79 -91t-118.5 -56t-148 -19q-155 0 -261 65v143z" />
    <glyph glyph-name="t" unicode="t" horiz-adv-x="651" 
d="M605 12q-66 -33 -144 -33q-248 0 -248 286v647h-180v112h180v258l128 42v-300h264v-112h-264v-627q0 -104 34 -150t115 -46q60 0 115 36v-113z" />
    <glyph glyph-name="u" unicode="u" horiz-adv-x="1128" 
d="M835 0v174h-4q-104 -198 -323 -198q-365 0 -365 446v602h128v-578q0 -184 65.5 -272t200.5 -88q66 0 120.5 25.5t94 72t61.5 111.5t22 144v585h128v-1024h-128z" />
    <glyph glyph-name="v" unicode="v" horiz-adv-x="954" 
d="M530 0h-122l-392 1024h141l283 -780q26 -71 33 -125h4q12 72 31 121l293 784h137z" />
    <glyph glyph-name="w" unicode="w" horiz-adv-x="1433" 
d="M1090 0h-128l-217 752q-10 35 -16 91h-4q-2 -15 -6.5 -37t-14.5 -52l-239 -754h-125l-310 1024h137l225 -794q10 -35 14 -89h8q2 18 6.5 41t12.5 49l248 793h106l222 -795q9 -34 15 -89h8q-1 17 4 39.5t13 49.5l225 795h129z" />
    <glyph glyph-name="x" unicode="x" horiz-adv-x="902" 
d="M526 504l336 -504h-154l-208 339l-24.5 39t-25.5 43h-4q-5 -10 -15.5 -26.5l-25.5 -41.5l-224 -353h-151l346 501l-335 523h149l213 -359l28 -48.5l20 -35.5h4q13 19 24 38.5l23 39.5l226 365h144z" />
    <glyph glyph-name="y" unicode="y" horiz-adv-x="959" 
d="M462 -186q-60 -150 -138 -222.5t-189 -72.5q-55 0 -93 13v120q22 -8 44.5 -12t45.5 -4q63 0 109.5 39.5t80.5 119.5l89 210l-394 1019h142l293 -811q6 -16 11.5 -36.5l10.5 -40.5h5q5 17 9.5 34.5t12.5 38.5l311 815h135z" />
    <glyph glyph-name="z" unicode="z" horiz-adv-x="938" 
d="M240 112h631v-112h-826v43l643 869h-590v112h788v-36z" />
    <glyph glyph-name="braceleft" unicode="{" horiz-adv-x="598" 
d="M530 -326q-140 4 -210.5 76t-70.5 225v298q0 110 -39.5 169t-116.5 67v90q156 17 156 229v303q0 154 70.5 226.5t210.5 76.5v-106q-85 -5 -122 -55.5t-37 -161.5v-293q0 -217 -148 -262v-4q148 -46 148 -269v-282q0 -58 8 -99t27 -68t49 -40.5t75 -14.5v-105z" />
    <glyph glyph-name="bar" unicode="|" horiz-adv-x="476" 
d="M178 -481v2047h121v-2047h-121z" />
    <glyph glyph-name="braceright" unicode="}" horiz-adv-x="598" 
d="M505 509q-155 -17 -155 -236v-298q0 -153 -70.5 -225t-210.5 -76v105q41 1 71 13t49.5 37.5t29 67.5t9.5 104v282q0 222 148 269v4q-148 47 -148 262v293q0 59 -10 99.5t-29.5 66t-49.5 37.5t-70 14v106q140 -4 210.5 -76t70.5 -227v-303q0 -214 155 -229v-90z" />
    <glyph glyph-name="asciitilde" unicode="~" horiz-adv-x="1366" 
d="M1140 730q-7 -131 -74 -203.5t-182 -72.5q-103 0 -233 97q-102 75 -168 75q-140 0 -149 -167h-107q3 64 22 115t52 87t79.5 55t103.5 19q100 0 215 -84l61.5 -42.5t49 -28t42 -15t38.5 -4.5q64 0 101 44t43 125h106z" />
    <glyph glyph-name="uni00A0" unicode="&#xa0;" horiz-adv-x="561" 
 />
    <glyph glyph-name="exclamdown" unicode="&#xa1;" horiz-adv-x="582" 
d="M292 853q-40 0 -68.5 27t-28.5 68q0 20 7.5 37.5t21 30.5t31 20.5t37.5 7.5t37 -7.5t30 -20.5t20.5 -30.5t7.5 -37.5q0 -40 -27.5 -67.5t-67.5 -27.5zM224 -407l15 1030h110l14 -1030h-139z" />
    <glyph glyph-name="cent" unicode="&#xa2;" horiz-adv-x="1079" 
d="M927 209q-93 -57 -221 -69v-193h-108v194q-100 11 -178.5 54t-133 110.5t-83 156.5t-28.5 191q0 100 27 190t80.5 163t132.5 124t183 73v206h108v-198q122 -2 223 -49v-138q-102 66 -223 72v-844q128 12 221 83v-126zM598 1087q-73 -17 -127.5 -57t-91 -96t-54.5 -125
t-18 -144q0 -70 16.5 -137t52 -122t90.5 -94t132 -54v829z" />
    <glyph glyph-name="sterling" unicode="&#xa3;" horiz-adv-x="1079" 
d="M93 0v110q233 87 233 339v199h-213v116h213v272q0 93 27.5 170.5t77 133.5t118.5 87t153 31q105 0 198 -38v-125q-96 51 -199 51q-121 0 -184 -82t-63 -243v-257h301v-116h-301v-166q0 -268 -203 -370h726v-112h-884z" />
    <glyph glyph-name="currency" unicode="&#xa4;" horiz-adv-x="1138" 
d="M946 275l-136 137q-105 -81 -241 -81q-138 0 -240 81l-137 -137l-76 79l138 132q-80 113 -80 239q0 136 80 238l-138 135l76 78l137 -136q111 81 240 81q132 0 239 -81l138 136l76 -78l-138 -135q81 -107 81 -238q0 -127 -81 -239l138 -132zM570 1013q-60 0 -112.5 -23
t-91.5 -62t-61.5 -91t-22.5 -110q0 -59 23 -111t62.5 -91.5t91.5 -62.5t110 -23t110.5 23t92 62.5t62.5 91.5t23 111t-24 111t-63.5 91t-91.5 61.5t-108 22.5z" />
    <glyph glyph-name="yen" unicode="&#xa5;" horiz-adv-x="1079" 
d="M644 761h314v-111h-353v-226h353v-112h-353v-312h-128v312h-358v112h358v226h-358v111h316l-364 673h147l278 -543q33 -65 47 -104h5q8 27 19.5 54t26.5 55l281 538h138z" />
    <glyph glyph-name="brokenbar" unicode="&#xa6;" horiz-adv-x="476" 
d="M178 715v851h121v-851h-121zM178 -481v851h121v-851h-121z" />
    <glyph glyph-name="section" unicode="&#xa7;" horiz-adv-x="918" 
d="M638 409q47 -37 68.5 -85t21.5 -109t-24.5 -112.5t-68.5 -89t-106 -58.5t-136 -21q-119 0 -228 53v128q125 -69 234 -69q97 0 148 44.5t51 116.5q0 54 -34 95q-8 16 -38.5 37.5t-78.5 46.5l-83 44q-61 32 -102 67t-66.5 73t-36.5 79t-11 86q0 167 155 250
q-115 82 -115 221q0 62 23 114.5t65.5 90.5t102.5 59t134 21q121 0 207 -40v-127q-92 55 -210 55q-190 0 -190 -166q0 -34 9 -61t36.5 -53.5t78 -56t132.5 -67.5q107 -50 160 -122t53 -164q0 -166 -151 -280zM402 925q-123 -57 -123 -181q0 -42 12.5 -75.5t43.5 -64
t83 -60.5t130 -65q55 42 82 87.5t27 113.5q0 38 -10.5 68t-38.5 58t-78 56.5t-128 62.5z" />
    <glyph glyph-name="dieresis" unicode="&#xa8;" horiz-adv-x="832" 
d="M592 1203q-33 0 -58.5 23.5t-25.5 61.5q0 37 24.5 60.5t57.5 23.5q36 0 62 -24t26 -60t-24.5 -60.5t-61.5 -24.5zM234 1203q-18 0 -33.5 6.5t-27.5 18t-19 27t-7 33.5q0 37 25 60.5t59 23.5q18 0 34 -6.5t28 -17.5t19 -26.5t7 -33.5q0 -36 -25 -60.5t-60 -24.5z" />
    <glyph glyph-name="copyright" unicode="&#xa9;" horiz-adv-x="1813" 
d="M159 714q0 103 26.5 198.5t75.5 179t117 151.5t151.5 117t179 75.5t198.5 26.5t198.5 -26.5t179 -75.5t151.5 -117t117 -151.5t75.5 -179t26.5 -198.5t-26.5 -198.5t-75.5 -179t-117 -151.5t-151.5 -117t-179 -75.5t-198.5 -26.5t-198.5 26.5t-179 75.5t-151.5 117
t-117 151.5t-75.5 179t-26.5 198.5zM240 714q0 -138 52.5 -259.5t143 -212t212 -143t259.5 -52.5t259.5 52.5t212 143t143 212t52.5 259.5t-52.5 259.5t-143 212t-212 143t-259.5 52.5t-259.5 -52.5t-212 -143t-143 -212t-52.5 -259.5zM1197 268q-118 -70 -259 -70
q-101 0 -191 37t-157.5 102.5t-106.5 156t-39 197.5q0 113 35 211t101.5 170.5t162.5 114.5t217 42q130 0 233 -54v-118q-99 65 -250 65q-86 0 -156 -31.5t-120 -87t-77.5 -131t-27.5 -162.5q0 -82 27.5 -156t78 -130t122.5 -88.5t162 -32.5q139 0 245 73v-108z" />
    <glyph glyph-name="ordfeminine" unicode="&#xaa;" horiz-adv-x="774" 
d="M558 717v121h-4q-38 -67 -101.5 -103t-141.5 -36q-53 0 -96 15.5t-73 43.5t-46.5 65.5t-16.5 82.5q0 202 252 236l227 31q0 186 -159 186q-133 0 -254 -89v112q119 73 264 73q126 0 192 -70t66 -204v-464h-109zM406 1064q-55 -7 -96 -17.5t-68 -28t-40 -43.5t-13 -64
q0 -54 38.5 -87.5t106.5 -33.5q45 0 86.5 19.5t83.5 68.5q28 32 41 70.5t13 80.5v56z" />
    <glyph glyph-name="guillemotleft" unicode="&#xab;" horiz-adv-x="994" 
d="M398 200l-288 336l288 344h134l-287 -344l287 -336h-134zM750 200l-288 336l288 344h134l-287 -344l287 -336h-134z" />
    <glyph glyph-name="logicalnot" unicode="&#xac;" horiz-adv-x="1366" 
d="M1037 200v419h-815v109h924v-528h-109z" />
    <glyph glyph-name="uni00AD" unicode="&#xad;" horiz-adv-x="817" 
d="M144 530v110h547v-110h-547z" />
    <glyph glyph-name="registered" unicode="&#xae;" horiz-adv-x="1813" 
d="M1134 245l-109 238q-44 97 -89.5 136.5t-96.5 39.5h-103v-414h-112v960h266q81 0 144.5 -18.5t107 -52t66 -81t22.5 -105.5q0 -106 -63 -173.5t-184 -90.5v-4q82 -17 159 -175l126 -260h-134zM736 1112v-361h169q98 0 152 48t54 133q0 94 -56 137t-174 43h-145zM159 714
q0 103 26.5 198.5t75.5 179t117 151.5t151.5 117t179 75.5t198.5 26.5t198.5 -26.5t179 -75.5t151.5 -117t117 -151.5t75.5 -179t26.5 -198.5t-26.5 -198.5t-75.5 -179t-117 -151.5t-151.5 -117t-179 -75.5t-198.5 -26.5t-198.5 26.5t-179 75.5t-151.5 117t-117 151.5
t-75.5 179t-26.5 198.5zM240 714q0 -138 52.5 -259.5t143 -212t212 -143t259.5 -52.5t259.5 52.5t212 143t143 212t52.5 259.5t-52.5 259.5t-143 212t-212 143t-259.5 52.5t-259.5 -52.5t-212 -143t-143 -212t-52.5 -259.5z" />
    <glyph glyph-name="macron" unicode="&#xaf;" horiz-adv-x="850" 
d="M0 1411v105h850v-105h-850z" />
    <glyph glyph-name="degree" unicode="&#xb0;" horiz-adv-x="781" 
d="M126 1177q0 55 20.5 103t56.5 84t84 57t103 21t103 -21t84 -57t57 -84t21 -103t-21 -103t-57 -84t-84 -56.5t-103 -20.5t-103 20.5t-84 56.5t-56.5 84t-20.5 103zM227 1178q0 -34 12.5 -64.5t35 -53.5t52.5 -36.5t64 -13.5t63.5 14t51.5 37.5t34.5 53.5t12.5 63
q0 34 -11.5 64t-33 53t-51.5 36.5t-66 13.5q-35 0 -65 -13.5t-52 -36.5t-34.5 -53t-12.5 -64z" />
    <glyph glyph-name="plusminus" unicode="&#xb1;" horiz-adv-x="1366" 
d="M738 642v-408h-107v408h-409v108h409v408h107v-408h408v-108h-408zM222 0v108h924v-108h-924z" />
    <glyph glyph-name="uni00B2" unicode="&#xb2;" horiz-adv-x="712" 
d="M627 884h-536v107l239 235q57 56 91 95.5t52 71.5t24 59t6 57q0 68 -38 105t-110 37q-115 0 -219 -100v126q98 77 231 77q59 0 105 -17t78.5 -47.5t49.5 -73.5t17 -94q0 -38 -11 -77.5t-36 -82.5t-65.5 -91.5t-99.5 -105.5l-178 -171v-4h400v-106z" />
    <glyph glyph-name="uni00B3" unicode="&#xb3;" horiz-adv-x="712" 
d="M607 1119q0 -57 -21 -104t-59.5 -81.5t-93 -53.5t-122.5 -19q-121 0 -203 50v119q103 -70 206 -70q86 0 134 42t48 114q0 154 -227 154h-77v99h71q206 0 206 153q0 128 -149 128q-84 0 -179 -61v115q93 48 202 48q53 0 96.5 -15t74.5 -43t47.5 -67t16.5 -86
q0 -157 -146 -210v-4q87 -20 131 -74t44 -134z" />
    <glyph glyph-name="acute" unicode="&#xb4;" horiz-adv-x="543" 
d="M244 1203h-108l228 328h135z" />
    <glyph glyph-name="uni00B5" unicode="&#xb5;" horiz-adv-x="1149" 
d="M869 0q-12 83 -12 177h-4q-94 -201 -305 -201q-172 0 -250 123h-6v-492h-127v1417h127v-598q0 -163 67 -249.5t200 -86.5q67 0 121.5 25.5t93.5 71.5t60 110.5t21 143.5v583h129v-764q0 -79 4 -144t12 -116h-131z" />
    <glyph glyph-name="paragraph" unicode="&#xb6;" horiz-adv-x="954" 
d="M719 1339v-1339h-96v1339h-178v-1339h-97v903q-54 0 -99.5 20.5t-79 56t-52.5 84t-19 104.5q0 60 20.5 109t55.5 84t81.5 54t98.5 19h495v-95h-130z" />
    <glyph glyph-name="periodcentered" unicode="&#xb7;" horiz-adv-x="449" 
d="M224 608q-40 0 -68 28t-28 68q0 41 27.5 69t68.5 28q20 0 37.5 -7.5t30.5 -20t21 -30.5t8 -39q0 -20 -8 -37.5t-21 -30.5t-30.5 -20.5t-37.5 -7.5z" />
    <glyph glyph-name="cedilla" unicode="&#xb8;" horiz-adv-x="416" 
d="M391 -260q0 -173 -265 -173q-37 0 -72 3v82q47 -6 78 -6q150 0 150 91q0 82 -137 82q-11 0 -23.5 -1t-28.5 -3v185h90v-111q100 0 154 -38t54 -111z" />
    <glyph glyph-name="uni00B9" unicode="&#xb9;" horiz-adv-x="712" 
d="M634 884h-488v97h190v638l-201 -63v107l309 95v-777h190v-97z" />
    <glyph glyph-name="ordmasculine" unicode="&#xba;" horiz-adv-x="846" 
d="M428 696q-81 0 -146.5 27t-111.5 76.5t-70.5 118.5t-24.5 153q0 90 26.5 161.5t74.5 120.5t115 75t148 26q80 0 144 -26t109 -74.5t69 -118t24 -156.5q0 -84 -25 -154.5t-71.5 -121.5t-112.5 -79t-148 -28zM434 1359q-56 0 -101 -20t-77 -57t-49.5 -90.5t-17.5 -119.5
q0 -64 16.5 -115.5t48 -88t76.5 -56t102 -19.5q56 0 100.5 19.5t75 56t47 89t16.5 118.5t-16 118.5t-47 89t-74.5 56t-99.5 19.5z" />
    <glyph glyph-name="guillemotright" unicode="&#xbb;" horiz-adv-x="994" 
d="M596 880l288 -336l-288 -344h-134l287 344l-287 336h134zM244 880l288 -336l-288 -344h-134l287 344l-287 336h134z" />
    <glyph glyph-name="onequarter" unicode="&#xbc;" horiz-adv-x="1513" 
d="M615 584h-488v97h190v638l-201 -63v107l309 95v-777h190v-97zM444 0h-121l860 1434h120zM1365 212v-211h-107v211h-393v78l377 561h123v-545h110v-94h-110zM1257 733q-22 -46 -42 -75l-232 -352h275v345q0 36 3 82h-4z" />
    <glyph glyph-name="onehalf" unicode="&#xbd;" horiz-adv-x="1647" 
d="M615 584h-488v97h190v638l-201 -63v107l309 95v-777h190v-97zM444 0h-121l860 1434h120zM1547 1h-536v107l239 235q57 56 91 95.5t52 71.5t24 59t6 57q0 68 -38 105t-110 37q-115 0 -219 -100v126q98 77 231 77q59 0 105 -17t78.5 -47.5t49.5 -73.5t17 -94
q0 -38 -11 -77.5t-36 -82.5t-65.5 -91.5t-99.5 -105.5l-178 -171v-4h400v-106z" />
    <glyph glyph-name="threequarters" unicode="&#xbe;" horiz-adv-x="1513" 
d="M588 819q0 -57 -21 -104t-59.5 -81.5t-93 -53.5t-122.5 -19q-121 0 -203 50v119q103 -70 206 -70q86 0 134 42t48 114q0 154 -227 154h-77v99h71q206 0 206 153q0 128 -149 128q-84 0 -179 -61v115q93 48 202 48q53 0 96.5 -15t74.5 -43t47.5 -67t16.5 -86
q0 -157 -146 -210v-4q87 -20 131 -74t44 -134zM444 0h-121l860 1434h120zM1365 212v-211h-107v211h-393v78l377 561h123v-545h110v-94h-110zM1257 733q-22 -46 -42 -75l-232 -352h275v345q0 36 3 82h-4z" />
    <glyph glyph-name="questiondown" unicode="&#xbf;" horiz-adv-x="899" 
d="M591 628q9 -26 16.5 -66.5t7.5 -81.5q0 -51 -16 -93t-42.5 -79t-60.5 -71l-71 -69q-30 -28 -57.5 -57.5t-48.5 -62t-34 -69.5t-13 -80q0 -52 18.5 -92t51 -67.5t77 -42t95.5 -14.5q90 0 166 32.5t142 95.5v-142q-74 -51 -153 -76t-168 -25q-75 0 -140 20.5t-113.5 60.5
t-76.5 98.5t-28 135.5q0 56 15.5 102.5t41 86.5t57.5 74.5t66 67.5l75.5 73.5t54.5 63t33.5 61.5t11.5 69q0 46 -9 83.5t-19 63.5h121zM528 1044q20 0 37 -7.5t30 -20.5t20.5 -30.5t7.5 -37.5t-7.5 -37.5t-20.5 -30t-30 -20t-37 -7.5q-42 0 -69 27.5t-27 67.5q0 20 7.5 37.5
t21 30.5t31 20.5t36.5 7.5z" />
    <glyph glyph-name="Agrave" unicode="&#xc0;" horiz-adv-x="1303" 
d="M1115 0l-158 424h-615l-154 -424h-148l546 1434h134l543 -1434h-148zM678 1183q-7 19 -14.5 44t-12.5 57h-4q-6 -32 -13.5 -57t-14.5 -44l-232 -638h525zM675 1551l-255 328h136l227 -328h-108z" />
    <glyph glyph-name="Aacute" unicode="&#xc1;" horiz-adv-x="1303" 
d="M1115 0l-158 424h-615l-154 -424h-148l546 1434h134l543 -1434h-148zM678 1183q-7 19 -14.5 44t-12.5 57h-4q-6 -32 -13.5 -57t-14.5 -44l-232 -638h525zM584 1551h-108l228 328h135z" />
    <glyph glyph-name="Acircumflex" unicode="&#xc2;" horiz-adv-x="1303" 
d="M1115 0l-158 424h-615l-154 -424h-148l546 1434h134l543 -1434h-148zM678 1183q-7 19 -14.5 44t-12.5 57h-4q-6 -32 -13.5 -57t-14.5 -44l-232 -638h525zM802 1551l-161 234l-162 -234h-98l218 334h89l218 -334h-104z" />
    <glyph glyph-name="Atilde" unicode="&#xc3;" horiz-adv-x="1303" 
d="M1115 0l-158 424h-615l-154 -424h-148l546 1434h134l543 -1434h-148zM678 1183q-7 19 -14.5 44t-12.5 57h-4q-6 -32 -13.5 -57t-14.5 -44l-232 -638h525zM971 1788q0 -51 -12.5 -93t-35.5 -72.5t-56 -47.5t-75 -17q-68 0 -156 64q-70 49 -119 49q-95 0 -95 -128h-83
q0 51 12.5 93t35.5 72t56 46.5t75 16.5q68 0 154 -62q71 -51 123 -51q41 0 65.5 32.5t24.5 97.5h86z" />
    <glyph glyph-name="Adieresis" unicode="&#xc4;" horiz-adv-x="1303" 
d="M1115 0l-158 424h-615l-154 -424h-148l546 1434h134l543 -1434h-148zM678 1183q-7 19 -14.5 44t-12.5 57h-4q-6 -32 -13.5 -57t-14.5 -44l-232 -638h525zM825 1551q-33 0 -58.5 23.5t-25.5 61.5q0 37 24.5 60.5t57.5 23.5q36 0 62 -24t26 -60t-24.5 -60.5t-61.5 -24.5z
M467 1551q-18 0 -33.5 6.5t-27.5 18t-19 27t-7 33.5q0 37 25 60.5t59 23.5q18 0 34 -6.5t28 -17.5t19 -26.5t7 -33.5q0 -36 -25 -60.5t-60 -24.5z" />
    <glyph glyph-name="Aring" unicode="&#xc5;" horiz-adv-x="1304" 
d="M1115 0l-158 424h-615l-154 -424h-148l524 1376q-117 47 -117 170q0 42 16 77.5t44 61t65.5 39.5t80.5 14t79.5 -14t63.5 -38.5t42.5 -59.5t15.5 -77q0 -120 -114 -170l523 -1379h-148zM650 1663q-54 0 -87 -31.5t-33 -82.5q0 -55 32 -85t88 -30q53 0 87.5 32t34.5 83
q0 26 -9.5 47t-26 36t-38.5 23t-48 8zM690 1151q-11 29 -20.5 58.5t-18.5 74.5h-4q-6 -32 -13.5 -57t-14.5 -44l-232 -638h525z" />
    <glyph glyph-name="AE" unicode="&#xc6;" horiz-adv-x="1734" 
d="M877 0v424h-506l-206 -424h-152l698 1434h864v-125h-566v-524h525v-120h-525v-544h598v-121h-730zM877 1309h-87l-364 -764h451v764z" />
    <glyph glyph-name="Ccedilla" unicode="&#xc7;" horiz-adv-x="1270" 
d="M1150 53q-166 -78 -379 -78q-152 0 -276 53.5t-211.5 148.5t-135 226t-47.5 286q0 163 50.5 303.5t144.5 244t227.5 162.5t299.5 59q183 0 327 -56v-142q-154 77 -329 77q-139 0 -247 -48t-182 -133.5t-113 -202t-39 -254.5q0 -124 35 -233.5t103.5 -191.5t170.5 -130
t237 -48q207 0 364 87v-130zM952 -260q0 -173 -265 -173q-37 0 -72 3v82q47 -6 78 -6q150 0 150 91q0 82 -137 82q-11 0 -23.5 -1t-28.5 -3v185h90v-111q100 0 154 -38t54 -111z" />
    <glyph glyph-name="Egrave" unicode="&#xc8;" horiz-adv-x="1030" 
d="M186 0v1434h699v-122h-566v-526h524v-120h-524v-545h598v-121h-731zM566 1551l-255 328h136l227 -328h-108z" />
    <glyph glyph-name="Eacute" unicode="&#xc9;" horiz-adv-x="1030" 
d="M186 0v1434h699v-122h-566v-526h524v-120h-524v-545h598v-121h-731zM523 1551h-108l228 328h135z" />
    <glyph glyph-name="Ecircumflex" unicode="&#xca;" horiz-adv-x="1030" 
d="M186 0v1434h699v-122h-566v-526h524v-120h-524v-545h598v-121h-731zM702 1551l-161 234l-162 -234h-98l218 334h89l218 -334h-104z" />
    <glyph glyph-name="Edieresis" unicode="&#xcb;" horiz-adv-x="1030" 
d="M186 0v1434h699v-122h-566v-526h524v-120h-524v-545h598v-121h-731zM731 1551q-33 0 -58.5 23.5t-25.5 61.5q0 37 24.5 60.5t57.5 23.5q36 0 62 -24t26 -60t-24.5 -60.5t-61.5 -24.5zM373 1551q-18 0 -33.5 6.5t-27.5 18t-19 27t-7 33.5q0 37 25 60.5t59 23.5
q18 0 34 -6.5t28 -17.5t19 -26.5t7 -33.5q0 -36 -25 -60.5t-60 -24.5z" />
    <glyph glyph-name="Igrave" unicode="&#xcc;" horiz-adv-x="505" 
d="M319 1434v-1434h-133v1434h133zM252 1551l-255 328h136l227 -328h-108z" />
    <glyph glyph-name="Iacute" unicode="&#xcd;" horiz-adv-x="503" 
d="M319 1434v-1434h-133v1434h133zM253 1551h-108l228 328h135z" />
    <glyph glyph-name="Icircumflex" unicode="&#xce;" horiz-adv-x="503" 
d="M319 1434v-1434h-133v1434h133zM414 1551l-161 234l-162 -234h-98l218 334h89l218 -334h-104z" />
    <glyph glyph-name="Idieresis" unicode="&#xcf;" horiz-adv-x="503" 
d="M319 1434v-1434h-133v1434h133zM434 1551q-33 0 -58.5 23.5t-25.5 61.5q0 37 24.5 60.5t57.5 23.5q36 0 62 -24t26 -60t-24.5 -60.5t-61.5 -24.5zM76 1551q-18 0 -33.5 6.5t-27.5 18t-19 27t-7 33.5q0 37 25 60.5t59 23.5q18 0 34 -6.5t28 -17.5t19 -26.5t7 -33.5
q0 -36 -25 -60.5t-60 -24.5z" />
    <glyph glyph-name="Eth" unicode="&#xd0;" horiz-adv-x="1408" 
d="M31 776h155v658h377q368 0 556 -176.5t188 -521.5q0 -166 -52.5 -302t-151.5 -232.5t-240 -149t-318 -52.5h-359v654h-155v122zM319 1312v-536h370v-122h-370v-533h220q148 0 264.5 40t197.5 117.5t123.5 191.5t42.5 262q0 580 -613 580h-235z" />
    <glyph glyph-name="Ntilde" unicode="&#xd1;" horiz-adv-x="1492" 
d="M1168 0l-796 1151l-29.5 45t-23.5 45h-5q2 -18 3.5 -50t1.5 -80v-1111h-133v1434h147l783 -1137l32.5 -50.5l26.5 -43.5h5q-4 33 -6 74t-2 91v1066h134v-1434h-138zM1107 1788q0 -51 -12.5 -93t-35.5 -72.5t-56 -47.5t-75 -17q-68 0 -156 64q-70 49 -119 49
q-95 0 -95 -128h-83q0 51 12.5 93t35.5 72t56 46.5t75 16.5q68 0 154 -62q71 -51 123 -51q41 0 65.5 32.5t24.5 97.5h86z" />
    <glyph glyph-name="Ograve" unicode="&#xd2;" horiz-adv-x="1551" 
d="M770 -25q-155 0 -279 56.5t-210.5 154.5t-133 230.5t-46.5 284.5q0 168 46.5 307.5t135.5 239t218 155t294 55.5q152 0 273 -54.5t206 -151t130.5 -228.5t45.5 -287q0 -163 -44.5 -302.5t-131 -241.5t-213 -160t-291.5 -58zM781 1337q-130 0 -230.5 -49.5t-169.5 -134
t-104.5 -198t-36.5 -241.5q-1 -122 31.5 -233.5t98 -197t165.5 -136.5t234 -51t235.5 46.5t169.5 129t102.5 196.5t34.5 249q0 126 -30.5 239t-95 197.5t-164.5 134t-240 49.5zM809 1551l-255 328h136l227 -328h-108z" />
    <glyph glyph-name="Oacute" unicode="&#xd3;" horiz-adv-x="1551" 
d="M770 -25q-155 0 -279 56.5t-210.5 154.5t-133 230.5t-46.5 284.5q0 168 46.5 307.5t135.5 239t218 155t294 55.5q152 0 273 -54.5t206 -151t130.5 -228.5t45.5 -287q0 -163 -44.5 -302.5t-131 -241.5t-213 -160t-291.5 -58zM781 1337q-130 0 -230.5 -49.5t-169.5 -134
t-104.5 -198t-36.5 -241.5q-1 -122 31.5 -233.5t98 -197t165.5 -136.5t234 -51t235.5 46.5t169.5 129t102.5 196.5t34.5 249q0 126 -30.5 239t-95 197.5t-164.5 134t-240 49.5zM748 1551h-108l228 328h135z" />
    <glyph glyph-name="Ocircumflex" unicode="&#xd4;" horiz-adv-x="1551" 
d="M770 -25q-155 0 -279 56.5t-210.5 154.5t-133 230.5t-46.5 284.5q0 168 46.5 307.5t135.5 239t218 155t294 55.5q152 0 273 -54.5t206 -151t130.5 -228.5t45.5 -287q0 -163 -44.5 -302.5t-131 -241.5t-213 -160t-291.5 -58zM781 1337q-130 0 -230.5 -49.5t-169.5 -134
t-104.5 -198t-36.5 -241.5q-1 -122 31.5 -233.5t98 -197t165.5 -136.5t234 -51t235.5 46.5t169.5 129t102.5 196.5t34.5 249q0 126 -30.5 239t-95 197.5t-164.5 134t-240 49.5zM938 1551l-161 234l-162 -234h-98l218 334h89l218 -334h-104z" />
    <glyph glyph-name="Otilde" unicode="&#xd5;" horiz-adv-x="1551" 
d="M770 -25q-155 0 -279 56.5t-210.5 154.5t-133 230.5t-46.5 284.5q0 168 46.5 307.5t135.5 239t218 155t294 55.5q152 0 273 -54.5t206 -151t130.5 -228.5t45.5 -287q0 -163 -44.5 -302.5t-131 -241.5t-213 -160t-291.5 -58zM781 1337q-130 0 -230.5 -49.5t-169.5 -134
t-104.5 -198t-36.5 -241.5q-1 -122 31.5 -233.5t98 -197t165.5 -136.5t234 -51t235.5 46.5t169.5 129t102.5 196.5t34.5 249q0 126 -30.5 239t-95 197.5t-164.5 134t-240 49.5zM1097 1788q0 -51 -12.5 -93t-35.5 -72.5t-56 -47.5t-75 -17q-68 0 -156 64q-70 49 -119 49
q-95 0 -95 -128h-83q0 51 12.5 93t35.5 72t56 46.5t75 16.5q68 0 154 -62q71 -51 123 -51q41 0 65.5 32.5t24.5 97.5h86z" />
    <glyph glyph-name="Odieresis" unicode="&#xd6;" horiz-adv-x="1551" 
d="M770 -25q-155 0 -279 56.5t-210.5 154.5t-133 230.5t-46.5 284.5q0 168 46.5 307.5t135.5 239t218 155t294 55.5q152 0 273 -54.5t206 -151t130.5 -228.5t45.5 -287q0 -163 -44.5 -302.5t-131 -241.5t-213 -160t-291.5 -58zM781 1337q-130 0 -230.5 -49.5t-169.5 -134
t-104.5 -198t-36.5 -241.5q-1 -122 31.5 -233.5t98 -197t165.5 -136.5t234 -51t235.5 46.5t169.5 129t102.5 196.5t34.5 249q0 126 -30.5 239t-95 197.5t-164.5 134t-240 49.5zM958 1551q-33 0 -58.5 23.5t-25.5 61.5q0 37 24.5 60.5t57.5 23.5q36 0 62 -24t26 -60
t-24.5 -60.5t-61.5 -24.5zM600 1551q-18 0 -33.5 6.5t-27.5 18t-19 27t-7 33.5q0 37 25 60.5t59 23.5q18 0 34 -6.5t28 -17.5t19 -26.5t7 -33.5q0 -36 -25 -60.5t-60 -24.5z" />
    <glyph glyph-name="multiply" unicode="&#xd7;" horiz-adv-x="1366" 
d="M1019 183l-336 338l-336 -338l-77 77l337 336l-337 338l77 76l336 -338l336 338l77 -76l-337 -338l337 -336z" />
    <glyph glyph-name="Oslash" unicode="&#xd8;" horiz-adv-x="1551" 
d="M770 -25q-138 0 -250 44t-197 123l-164 -195l-70 58l171 204q-78 97 -118.5 222.5t-40.5 269.5q0 168 46.5 307.5t135.5 239t218 155t294 55.5q120 0 220 -34t180 -97l138 165l71 -58l-142 -169q91 -97 139.5 -232t48.5 -296q0 -163 -44.5 -302.5t-131 -241.5t-213 -160
t-291.5 -58zM1311 717q0 131 -32.5 246t-101.5 200l-772 -922q66 -68 156 -106.5t208 -38.5q134 0 235.5 46.5t169.5 129t102.5 196.5t34.5 249zM781 1337q-130 0 -230.5 -49.5t-169.5 -134t-104.5 -198t-36.5 -241.5q-1 -112 25.5 -215t81.5 -186l766 916
q-63 51 -144.5 79.5t-187.5 28.5z" />
    <glyph glyph-name="Ugrave" unicode="&#xd9;" horiz-adv-x="1367" 
d="M1199 576q0 -601 -528 -601q-503 0 -503 579v880h133v-868q0 -236 95 -353t294 -117q376 0 376 456v882h133v-858zM693 1551l-255 328h136l227 -328h-108z" />
    <glyph glyph-name="Uacute" unicode="&#xda;" horiz-adv-x="1367" 
d="M1199 576q0 -601 -528 -601q-503 0 -503 579v880h133v-868q0 -236 95 -353t294 -117q376 0 376 456v882h133v-858zM680 1551h-108l228 328h135z" />
    <glyph glyph-name="Ucircumflex" unicode="&#xdb;" horiz-adv-x="1367" 
d="M1199 576q0 -601 -528 -601q-503 0 -503 579v880h133v-868q0 -236 95 -353t294 -117q376 0 376 456v882h133v-858zM862 1551l-161 234l-162 -234h-98l218 334h89l218 -334h-104z" />
    <glyph glyph-name="Udieresis" unicode="&#xdc;" horiz-adv-x="1367" 
d="M1199 576q0 -601 -528 -601q-503 0 -503 579v880h133v-868q0 -236 95 -353t294 -117q376 0 376 456v882h133v-858zM877 1551q-33 0 -58.5 23.5t-25.5 61.5q0 37 24.5 60.5t57.5 23.5q36 0 62 -24t26 -60t-24.5 -60.5t-61.5 -24.5zM519 1551q-18 0 -33.5 6.5t-27.5 18
t-19 27t-7 33.5q0 37 25 60.5t59 23.5q18 0 34 -6.5t28 -17.5t19 -26.5t7 -33.5q0 -36 -25 -60.5t-60 -24.5z" />
    <glyph glyph-name="Yacute" unicode="&#xdd;" horiz-adv-x="1119" 
d="M617 537v-537h-133v534l-450 900h151l328 -670q6 -12 16 -36t24 -61h3q6 18 17 42t27 54l343 671h142zM545 1551h-108l228 328h135z" />
    <glyph glyph-name="Thorn" unicode="&#xde;" horiz-adv-x="1130" 
d="M319 326v-326h-133v1434h133v-232h237q231 0 350 -106t119 -310q0 -111 -39.5 -196.5t-108.5 -144t-162.5 -89t-201.5 -30.5h-194zM319 1080v-632h190q183 0 280 84.5t97 242.5q0 305 -354 305h-213z" />
    <glyph glyph-name="germandbls" unicode="&#xdf;" horiz-adv-x="1087" 
d="M445 125q75 -39 156 -39q63 0 114 21.5t87 60.5t55.5 93.5t19.5 121.5q0 76 -26.5 138.5t-77.5 110.5t-124.5 80t-168.5 45v105q67 13 120.5 41t91 69t57.5 93t20 113q0 115 -60 180t-166 65q-122 0 -186 -83.5t-64 -243.5v-1095h-128v1114q0 97 27.5 174.5t78 132
t122.5 84t160 29.5q78 0 142 -24.5t109.5 -69t71 -107t25.5 -139.5q0 -64 -18 -121.5t-52 -105t-83 -84.5t-110 -61v-4q180 -42 275.5 -152.5t95.5 -276.5q0 -88 -29 -164t-81.5 -131.5t-127 -87t-164.5 -31.5q-87 0 -162 22v127z" />
    <glyph glyph-name="agrave" unicode="&#xe0;" horiz-adv-x="1026" 
d="M755 0v182h-4q-50 -98 -136.5 -152t-195.5 -54q-74 0 -133.5 21t-101 59.5t-64 92.5t-22.5 119q0 139 86 221.5t260 107.5l311 45q0 295 -229 295q-179 0 -332 -131v140q32 23 72.5 41.5t85.5 32t92.5 21t92.5 7.5q171 0 258.5 -96t87.5 -286v-666h-128zM491 497
q-69 -10 -118 -25t-81 -40.5t-47 -63t-15 -92.5q0 -41 14.5 -76t42 -60.5t67 -39.5t89.5 -14q68 0 125 26t98.5 72t65 110t23.5 139v101zM533 1203l-255 328h136l227 -328h-108z" />
    <glyph glyph-name="aacute" unicode="&#xe1;" horiz-adv-x="1026" 
d="M755 0v182h-4q-50 -98 -136.5 -152t-195.5 -54q-74 0 -133.5 21t-101 59.5t-64 92.5t-22.5 119q0 139 86 221.5t260 107.5l311 45q0 295 -229 295q-179 0 -332 -131v140q32 23 72.5 41.5t85.5 32t92.5 21t92.5 7.5q171 0 258.5 -96t87.5 -286v-666h-128zM491 497
q-69 -10 -118 -25t-81 -40.5t-47 -63t-15 -92.5q0 -41 14.5 -76t42 -60.5t67 -39.5t89.5 -14q68 0 125 26t98.5 72t65 110t23.5 139v101zM473 1203h-108l228 328h135z" />
    <glyph glyph-name="acircumflex" unicode="&#xe2;" horiz-adv-x="1026" 
d="M755 0v182h-4q-50 -98 -136.5 -152t-195.5 -54q-74 0 -133.5 21t-101 59.5t-64 92.5t-22.5 119q0 139 86 221.5t260 107.5l311 45q0 295 -229 295q-179 0 -332 -131v140q32 23 72.5 41.5t85.5 32t92.5 21t92.5 7.5q171 0 258.5 -96t87.5 -286v-666h-128zM491 497
q-69 -10 -118 -25t-81 -40.5t-47 -63t-15 -92.5q0 -41 14.5 -76t42 -60.5t67 -39.5t89.5 -14q68 0 125 26t98.5 72t65 110t23.5 139v101zM677 1203l-161 234l-162 -234h-98l218 334h89l218 -334h-104z" />
    <glyph glyph-name="atilde" unicode="&#xe3;" horiz-adv-x="1026" 
d="M755 0v182h-4q-50 -98 -136.5 -152t-195.5 -54q-74 0 -133.5 21t-101 59.5t-64 92.5t-22.5 119q0 139 86 221.5t260 107.5l311 45q0 295 -229 295q-179 0 -332 -131v140q32 23 72.5 41.5t85.5 32t92.5 21t92.5 7.5q171 0 258.5 -96t87.5 -286v-666h-128zM491 497
q-69 -10 -118 -25t-81 -40.5t-47 -63t-15 -92.5q0 -41 14.5 -76t42 -60.5t67 -39.5t89.5 -14q68 0 125 26t98.5 72t65 110t23.5 139v101zM834 1440q0 -51 -12.5 -93t-35.5 -72.5t-56 -47.5t-75 -17q-68 0 -156 64q-70 49 -119 49q-95 0 -95 -128h-83q0 51 12.5 93t35.5 72
t56 46.5t75 16.5q68 0 154 -62q71 -51 123 -51q41 0 65.5 32.5t24.5 97.5h86z" />
    <glyph glyph-name="adieresis" unicode="&#xe4;" horiz-adv-x="1026" 
d="M755 0v182h-4q-50 -98 -136.5 -152t-195.5 -54q-74 0 -133.5 21t-101 59.5t-64 92.5t-22.5 119q0 139 86 221.5t260 107.5l311 45q0 295 -229 295q-179 0 -332 -131v140q32 23 72.5 41.5t85.5 32t92.5 21t92.5 7.5q171 0 258.5 -96t87.5 -286v-666h-128zM491 497
q-69 -10 -118 -25t-81 -40.5t-47 -63t-15 -92.5q0 -41 14.5 -76t42 -60.5t67 -39.5t89.5 -14q68 0 125 26t98.5 72t65 110t23.5 139v101zM686 1203q-33 0 -58.5 23.5t-25.5 61.5q0 37 24.5 60.5t57.5 23.5q36 0 62 -24t26 -60t-24.5 -60.5t-61.5 -24.5zM328 1203
q-18 0 -33.5 6.5t-27.5 18t-19 27t-7 33.5q0 37 25 60.5t59 23.5q18 0 34 -6.5t28 -17.5t19 -26.5t7 -33.5q0 -36 -25 -60.5t-60 -24.5z" />
    <glyph glyph-name="aring" unicode="&#xe5;" horiz-adv-x="1026" 
d="M755 0v182h-4q-50 -98 -136.5 -152t-195.5 -54q-74 0 -133.5 21t-101 59.5t-64 92.5t-22.5 119q0 139 86 221.5t260 107.5l311 45q0 295 -229 295q-179 0 -332 -131v140q32 23 72.5 41.5t85.5 32t92.5 21t92.5 7.5q171 0 258.5 -96t87.5 -286v-666h-128zM491 497
q-69 -10 -118 -25t-81 -40.5t-47 -63t-15 -92.5q0 -41 14.5 -76t42 -60.5t67 -39.5t89.5 -14q68 0 125 26t98.5 72t65 110t23.5 139v101zM518 1182q-40 0 -76 13t-64 37t-44.5 59t-16.5 78q0 42 16 77t44 60.5t65 39.5t80 14q39 0 75.5 -13t64.5 -37.5t45 -59.5t17 -78
q0 -41 -16.5 -75.5t-45 -60t-65.5 -40t-79 -14.5zM518 1486q-53 0 -86 -32t-33 -83q0 -55 32 -85t87 -30q27 0 49.5 8.5t39 24t25.5 36.5t9 46q0 53 -35 84t-88 31z" />
    <glyph glyph-name="ae" unicode="&#xe6;" horiz-adv-x="1711" 
d="M882 489q1 -95 25 -170t69 -126.5t109.5 -79t145.5 -27.5q176 0 328 121v-126q-145 -105 -356 -105q-136 0 -235.5 65.5t-151.5 190.5h-4q-139 -256 -389 -256q-76 0 -136.5 20.5t-102.5 59t-64 92.5t-22 120q0 146 96.5 228t287.5 92l273 14q0 335 -227 335
q-180 0 -334 -128v137q155 102 348 102q232 0 298 -227h4q120 227 369 227q99 0 175.5 -34.5t129 -99t79.5 -156t27 -206.5v-63h-742zM1492 601q-5 161 -77 248.5t-202 87.5q-65 0 -120.5 -23t-98 -66.5t-70.5 -105.5t-39 -141h607zM755 490l-181 -8q-85 -4 -150 -14
t-108 -32.5t-65 -62t-22 -101.5q0 -43 15 -77.5t43.5 -58.5t68.5 -37t89 -13q63 0 119.5 26t99 71t67 105.5t24.5 129.5v72z" />
    <glyph glyph-name="ccedilla" unicode="&#xe7;" horiz-adv-x="927" 
d="M846 46q-114 -69 -276 -71q-110 -1 -198 38t-150 108.5t-95 164t-33 205.5q0 115 35 216.5t102 177t164 119.5t222 44q127 0 232 -49v-136q-112 74 -242 74q-91 0 -162 -34.5t-119.5 -94t-74 -139t-25.5 -168.5q0 -82 21.5 -157t66 -132.5t112.5 -91.5t160 -34
q144 0 260 86v-126zM759 -260q0 -173 -265 -173q-37 0 -72 3v82q47 -6 78 -6q150 0 150 91q0 82 -137 82q-11 0 -23.5 -1t-28.5 -3v185h90v-111q100 0 154 -38t54 -111z" />
    <glyph glyph-name="egrave" unicode="&#xe8;" horiz-adv-x="1052" 
d="M226 489q1 -94 25 -169t69 -127t109.5 -79.5t145.5 -27.5q173 0 327 121v-126q-147 -105 -356 -105q-103 0 -187 36t-143 104.5t-91 168.5t-32 228q0 115 35 213t97 169.5t147 112t186 40.5q99 0 175 -34.5t127.5 -98.5t78.5 -156t27 -206v-64h-740zM834 601
q-3 160 -76 248t-203 88q-65 0 -120.5 -23t-97.5 -66.5t-69.5 -106t-38.5 -140.5h605zM583 1203l-255 328h136l227 -328h-108z" />
    <glyph glyph-name="eacute" unicode="&#xe9;" horiz-adv-x="1052" 
d="M226 489q1 -94 25 -169t69 -127t109.5 -79.5t145.5 -27.5q173 0 327 121v-126q-147 -105 -356 -105q-103 0 -187 36t-143 104.5t-91 168.5t-32 228q0 115 35 213t97 169.5t147 112t186 40.5q99 0 175 -34.5t127.5 -98.5t78.5 -156t27 -206v-64h-740zM834 601
q-3 160 -76 248t-203 88q-65 0 -120.5 -23t-97.5 -66.5t-69.5 -106t-38.5 -140.5h605zM510 1203h-108l228 328h135z" />
    <glyph glyph-name="ecircumflex" unicode="&#xea;" horiz-adv-x="1052" 
d="M226 489q1 -94 25 -169t69 -127t109.5 -79.5t145.5 -27.5q173 0 327 121v-126q-147 -105 -356 -105q-103 0 -187 36t-143 104.5t-91 168.5t-32 228q0 115 35 213t97 169.5t147 112t186 40.5q99 0 175 -34.5t127.5 -98.5t78.5 -156t27 -206v-64h-740zM834 601
q-3 160 -76 248t-203 88q-65 0 -120.5 -23t-97.5 -66.5t-69.5 -106t-38.5 -140.5h605zM711 1203l-161 234l-162 -234h-98l218 334h89l218 -334h-104z" />
    <glyph glyph-name="edieresis" unicode="&#xeb;" horiz-adv-x="1052" 
d="M226 489q1 -94 25 -169t69 -127t109.5 -79.5t145.5 -27.5q173 0 327 121v-126q-147 -105 -356 -105q-103 0 -187 36t-143 104.5t-91 168.5t-32 228q0 115 35 213t97 169.5t147 112t186 40.5q99 0 175 -34.5t127.5 -98.5t78.5 -156t27 -206v-64h-740zM834 601
q-3 160 -76 248t-203 88q-65 0 -120.5 -23t-97.5 -66.5t-69.5 -106t-38.5 -140.5h605zM723 1203q-33 0 -58.5 23.5t-25.5 61.5q0 37 24.5 60.5t57.5 23.5q36 0 62 -24t26 -60t-24.5 -60.5t-61.5 -24.5zM365 1203q-18 0 -33.5 6.5t-27.5 18t-19 27t-7 33.5q0 37 25 60.5
t59 23.5q18 0 34 -6.5t28 -17.5t19 -26.5t7 -33.5q0 -36 -25 -60.5t-60 -24.5z" />
    <glyph glyph-name="igrave" unicode="&#xec;" 
d="M165 0v1024h128v-1024h-128zM207 1203l-255 328h136l227 -328h-108z" />
    <glyph glyph-name="iacute" unicode="&#xed;" 
d="M165 0v1024h128v-1024h-128zM244 1203h-108l228 328h135z" />
    <glyph glyph-name="icircumflex" unicode="&#xee;" 
d="M165 0v1024h128v-1024h-128zM389 1203l-161 234l-162 -234h-98l218 334h89l218 -334h-104z" />
    <glyph glyph-name="idieresis" unicode="&#xef;" 
d="M165 0v1024h128v-1024h-128zM410 1203q-33 0 -58.5 23.5t-25.5 61.5q0 37 24.5 60.5t57.5 23.5q36 0 62 -24t26 -60t-24.5 -60.5t-61.5 -24.5zM52 1203q-18 0 -33.5 6.5t-27.5 18t-19 27t-7 33.5q0 37 25 60.5t59 23.5q18 0 34 -6.5t28 -17.5t19 -26.5t7 -33.5
q0 -36 -25 -60.5t-60 -24.5z" />
    <glyph glyph-name="eth" unicode="&#xf0;" horiz-adv-x="1117" 
d="M797 966q-97 173 -208 281l-299 -150l-43 84l273 132q-123 110 -258 201h185q39 -28 83.5 -64l95.5 -81l295 146l45 -82l-272 -133q81 -81 143 -172t103 -190.5t62 -205t21 -214.5q0 -117 -32 -216t-92 -171.5t-146.5 -113t-195.5 -40.5q-111 0 -197.5 37t-146 105.5
t-90 166t-30.5 217.5t33.5 220t95.5 172t149 112t195 40q136 0 227 -85zM569 937q-78 0 -141.5 -30.5t-108.5 -87t-69.5 -136.5t-24.5 -178q0 -97 23 -174.5t66.5 -132t106 -83.5t142.5 -29q77 0 137.5 30.5t103 86.5t65 134t22.5 174q0 426 -322 426z" />
    <glyph glyph-name="ntilde" unicode="&#xf1;" horiz-adv-x="1127" 
d="M856 0v590q0 347 -252 347q-67 0 -124 -26.5t-98.5 -73.5t-65 -111.5t-23.5 -139.5v-586h-128v1024h128v-178h4q114 202 343 202q168 0 256 -109t88 -315v-624h-128zM902 1440q0 -51 -12.5 -93t-35.5 -72.5t-56 -47.5t-75 -17q-68 0 -156 64q-70 49 -119 49
q-95 0 -95 -128h-83q0 51 12.5 93t35.5 72t56 46.5t75 16.5q68 0 154 -62q71 -51 123 -51q41 0 65.5 32.5t24.5 97.5h86z" />
    <glyph glyph-name="ograve" unicode="&#xf2;" horiz-adv-x="1174" 
d="M584 -24q-114 0 -204.5 38t-154.5 107.5t-98 166.5t-34 215q0 128 36 229t102.5 171.5t160.5 107.5t210 37q111 0 200 -36.5t151 -105.5t95 -168t33 -225q0 -120 -34.5 -218.5t-98.5 -169.5t-156 -110t-208 -39zM594 937q-84 0 -152 -29t-116.5 -84.5t-74.5 -136
t-26 -182.5q0 -96 26 -173t73.5 -132t115.5 -84.5t152 -29.5q86 0 152 28.5t112 83t69.5 133.5t23.5 180q0 207 -92 316.5t-263 109.5zM606 1203l-255 328h136l227 -328h-108z" />
    <glyph glyph-name="oacute" unicode="&#xf3;" horiz-adv-x="1174" 
d="M584 -24q-114 0 -204.5 38t-154.5 107.5t-98 166.5t-34 215q0 128 36 229t102.5 171.5t160.5 107.5t210 37q111 0 200 -36.5t151 -105.5t95 -168t33 -225q0 -120 -34.5 -218.5t-98.5 -169.5t-156 -110t-208 -39zM594 937q-84 0 -152 -29t-116.5 -84.5t-74.5 -136
t-26 -182.5q0 -96 26 -173t73.5 -132t115.5 -84.5t152 -29.5q86 0 152 28.5t112 83t69.5 133.5t23.5 180q0 207 -92 316.5t-263 109.5zM562 1203h-108l228 328h135z" />
    <glyph glyph-name="ocircumflex" unicode="&#xf4;" horiz-adv-x="1174" 
d="M584 -24q-114 0 -204.5 38t-154.5 107.5t-98 166.5t-34 215q0 128 36 229t102.5 171.5t160.5 107.5t210 37q111 0 200 -36.5t151 -105.5t95 -168t33 -225q0 -120 -34.5 -218.5t-98.5 -169.5t-156 -110t-208 -39zM594 937q-84 0 -152 -29t-116.5 -84.5t-74.5 -136
t-26 -182.5q0 -96 26 -173t73.5 -132t115.5 -84.5t152 -29.5q86 0 152 28.5t112 83t69.5 133.5t23.5 180q0 207 -92 316.5t-263 109.5zM755 1203l-161 234l-162 -234h-98l218 334h89l218 -334h-104z" />
    <glyph glyph-name="otilde" unicode="&#xf5;" horiz-adv-x="1174" 
d="M584 -24q-114 0 -204.5 38t-154.5 107.5t-98 166.5t-34 215q0 128 36 229t102.5 171.5t160.5 107.5t210 37q111 0 200 -36.5t151 -105.5t95 -168t33 -225q0 -120 -34.5 -218.5t-98.5 -169.5t-156 -110t-208 -39zM594 937q-84 0 -152 -29t-116.5 -84.5t-74.5 -136
t-26 -182.5q0 -96 26 -173t73.5 -132t115.5 -84.5t152 -29.5q86 0 152 28.5t112 83t69.5 133.5t23.5 180q0 207 -92 316.5t-263 109.5zM921 1440q0 -51 -12.5 -93t-35.5 -72.5t-56 -47.5t-75 -17q-68 0 -156 64q-70 49 -119 49q-95 0 -95 -128h-83q0 51 12.5 93t35.5 72
t56 46.5t75 16.5q68 0 154 -62q71 -51 123 -51q41 0 65.5 32.5t24.5 97.5h86z" />
    <glyph glyph-name="odieresis" unicode="&#xf6;" horiz-adv-x="1174" 
d="M584 -24q-114 0 -204.5 38t-154.5 107.5t-98 166.5t-34 215q0 128 36 229t102.5 171.5t160.5 107.5t210 37q111 0 200 -36.5t151 -105.5t95 -168t33 -225q0 -120 -34.5 -218.5t-98.5 -169.5t-156 -110t-208 -39zM594 937q-84 0 -152 -29t-116.5 -84.5t-74.5 -136
t-26 -182.5q0 -96 26 -173t73.5 -132t115.5 -84.5t152 -29.5q86 0 152 28.5t112 83t69.5 133.5t23.5 180q0 207 -92 316.5t-263 109.5zM770 1203q-33 0 -58.5 23.5t-25.5 61.5q0 37 24.5 60.5t57.5 23.5q36 0 62 -24t26 -60t-24.5 -60.5t-61.5 -24.5zM412 1203
q-18 0 -33.5 6.5t-27.5 18t-19 27t-7 33.5q0 37 25 60.5t59 23.5q18 0 34 -6.5t28 -17.5t19 -26.5t7 -33.5q0 -36 -25 -60.5t-60 -24.5z" />
    <glyph glyph-name="divide" unicode="&#xf7;" horiz-adv-x="1366" 
d="M688 867q-38 0 -64.5 26.5t-26.5 64.5q0 39 26 66t65 27q42 0 65.5 -24.5t23.5 -67.5q0 -40 -26 -66t-63 -26zM222 542v109h924v-109h-924zM686 143q-19 0 -36 7t-29.5 19t-19.5 28.5t-7 35.5q0 39 26.5 66.5t65.5 27.5q42 0 65 -24.5t23 -68.5q0 -19 -6.5 -35.5
t-18.5 -29t-28 -19.5t-35 -7z" />
    <glyph glyph-name="oslash" unicode="&#xf8;" horiz-adv-x="1174" 
d="M983 869q98 -140 98 -353q0 -123 -35 -222.5t-99.5 -170t-156.5 -109t-206 -38.5q-193 0 -318 107l-156 -172l-71 68l159 176q-105 141 -105 348q0 128 36 229t103 171t161 107.5t210 37.5q192 0 314 -106l167 183l73 -67zM833 851q-89 86 -239 86q-85 0 -153.5 -29.5
t-116.5 -85t-73.5 -136t-25.5 -181.5q0 -150 63 -255zM349 173q95 -87 242 -87q86 0 153 29t112.5 83.5t69.5 134t24 179.5q0 152 -56 258z" />
    <glyph glyph-name="ugrave" unicode="&#xf9;" horiz-adv-x="1128" 
d="M835 0v174h-4q-104 -198 -323 -198q-365 0 -365 446v602h128v-578q0 -184 65.5 -272t200.5 -88q66 0 120.5 25.5t94 72t61.5 111.5t22 144v585h128v-1024h-128zM568 1203l-255 328h136l227 -328h-108z" />
    <glyph glyph-name="uacute" unicode="&#xfa;" horiz-adv-x="1128" 
d="M835 0v174h-4q-104 -198 -323 -198q-365 0 -365 446v602h128v-578q0 -184 65.5 -272t200.5 -88q66 0 120.5 25.5t94 72t61.5 111.5t22 144v585h128v-1024h-128zM560 1203h-108l228 328h135z" />
    <glyph glyph-name="ucircumflex" unicode="&#xfb;" horiz-adv-x="1128" 
d="M835 0v174h-4q-104 -198 -323 -198q-365 0 -365 446v602h128v-578q0 -184 65.5 -272t200.5 -88q66 0 120.5 25.5t94 72t61.5 111.5t22 144v585h128v-1024h-128zM729 1203l-161 234l-162 -234h-98l218 334h89l218 -334h-104z" />
    <glyph glyph-name="udieresis" unicode="&#xfc;" horiz-adv-x="1128" 
d="M835 0v174h-4q-104 -198 -323 -198q-365 0 -365 446v602h128v-578q0 -184 65.5 -272t200.5 -88q66 0 120.5 25.5t94 72t61.5 111.5t22 144v585h128v-1024h-128zM752 1203q-33 0 -58.5 23.5t-25.5 61.5q0 37 24.5 60.5t57.5 23.5q36 0 62 -24t26 -60t-24.5 -60.5
t-61.5 -24.5zM394 1203q-18 0 -33.5 6.5t-27.5 18t-19 27t-7 33.5q0 37 25 60.5t59 23.5q18 0 34 -6.5t28 -17.5t19 -26.5t7 -33.5q0 -36 -25 -60.5t-60 -24.5z" />
    <glyph glyph-name="yacute" unicode="&#xfd;" horiz-adv-x="959" 
d="M462 -186q-60 -150 -138 -222.5t-189 -72.5q-55 0 -93 13v120q22 -8 44.5 -12t45.5 -4q63 0 109.5 39.5t80.5 119.5l89 210l-394 1019h142l293 -811q6 -16 11.5 -36.5l10.5 -40.5h5q5 17 9.5 34.5t12.5 38.5l311 815h135zM473 1203h-108l228 328h135z" />
    <glyph glyph-name="thorn" unicode="&#xfe;" horiz-adv-x="1175" 
d="M293 165v-636h-128v1987h128v-688h4q57 107 152.5 163.5t215.5 56.5q98 0 175.5 -35.5t131 -100.5t82 -158t28.5 -209q0 -127 -32 -231.5t-92 -179.5t-145.5 -116.5t-192.5 -41.5q-216 0 -323 189h-4zM293 426q0 -70 23.5 -131.5t65.5 -108t101.5 -73.5t131.5 -27
q77 0 139 32.5t105.5 92.5t67 145t23.5 190q0 90 -22 162.5t-62.5 123.5t-98 78t-128.5 27q-80 0 -144 -29.5t-109 -80.5t-69 -119.5t-24 -145.5v-136z" />
    <glyph glyph-name="ydieresis" unicode="&#xff;" horiz-adv-x="959" 
d="M462 -186q-60 -150 -138 -222.5t-189 -72.5q-55 0 -93 13v120q22 -8 44.5 -12t45.5 -4q63 0 109.5 39.5t80.5 119.5l89 210l-394 1019h142l293 -811q6 -16 11.5 -36.5l10.5 -40.5h5q5 17 9.5 34.5t12.5 38.5l311 815h135zM662 1203q-33 0 -58.5 23.5t-25.5 61.5
q0 37 24.5 60.5t57.5 23.5q36 0 62 -24t26 -60t-24.5 -60.5t-61.5 -24.5zM304 1203q-18 0 -33.5 6.5t-27.5 18t-19 27t-7 33.5q0 37 25 60.5t59 23.5q18 0 34 -6.5t28 -17.5t19 -26.5t7 -33.5q0 -36 -25 -60.5t-60 -24.5z" />
    <glyph glyph-name="Amacron" unicode="&#x100;" horiz-adv-x="1303" 
d="M1115 0l-158 424h-615l-154 -424h-148l546 1434h134l543 -1434h-148zM678 1183q-7 19 -14.5 44t-12.5 57h-4q-6 -32 -13.5 -57t-14.5 -44l-232 -638h525zM396 1551v96h508v-96h-508z" />
    <glyph glyph-name="amacron" unicode="&#x101;" horiz-adv-x="1026" 
d="M755 0v182h-4q-50 -98 -136.5 -152t-195.5 -54q-74 0 -133.5 21t-101 59.5t-64 92.5t-22.5 119q0 139 86 221.5t260 107.5l311 45q0 295 -229 295q-179 0 -332 -131v140q32 23 72.5 41.5t85.5 32t92.5 21t92.5 7.5q171 0 258.5 -96t87.5 -286v-666h-128zM491 497
q-69 -10 -118 -25t-81 -40.5t-47 -63t-15 -92.5q0 -41 14.5 -76t42 -60.5t67 -39.5t89.5 -14q68 0 125 26t98.5 72t65 110t23.5 139v101zM279 1203v96h508v-96h-508z" />
    <glyph glyph-name="Abreve" unicode="&#x102;" horiz-adv-x="1303" 
d="M1115 0l-158 424h-615l-154 -424h-148l546 1434h134l543 -1434h-148zM678 1183q-7 19 -14.5 44t-12.5 57h-4q-6 -32 -13.5 -57t-14.5 -44l-232 -638h525zM925 1794q-7 -55 -30 -99.5t-59 -76.5t-83.5 -49.5t-102.5 -17.5q-57 0 -104.5 17t-82.5 48.5t-56 76.5t-24 101h92
q6 -76 52 -116.5t125 -40.5q34 0 64 11.5t54 32t39.5 49.5t20.5 64h95z" />
    <glyph glyph-name="abreve" unicode="&#x103;" horiz-adv-x="1026" 
d="M755 0v182h-4q-50 -98 -136.5 -152t-195.5 -54q-74 0 -133.5 21t-101 59.5t-64 92.5t-22.5 119q0 139 86 221.5t260 107.5l311 45q0 295 -229 295q-179 0 -332 -131v140q32 23 72.5 41.5t85.5 32t92.5 21t92.5 7.5q171 0 258.5 -96t87.5 -286v-666h-128zM491 497
q-69 -10 -118 -25t-81 -40.5t-47 -63t-15 -92.5q0 -41 14.5 -76t42 -60.5t67 -39.5t89.5 -14q68 0 125 26t98.5 72t65 110t23.5 139v101zM794 1446q-7 -55 -30 -99.5t-59 -76.5t-83.5 -49.5t-102.5 -17.5q-57 0 -104.5 17t-82.5 48.5t-56 76.5t-24 101h92q6 -76 52 -116.5
t125 -40.5q34 0 64 11.5t54 32t39.5 49.5t20.5 64h95z" />
    <glyph glyph-name="Aogonek" unicode="&#x104;" horiz-adv-x="1303" 
d="M1115 0l-158 424h-615l-154 -424h-148l546 1434h134l543 -1434h-148zM678 1183q-7 19 -14.5 44t-12.5 57h-4q-6 -32 -13.5 -57t-14.5 -44l-232 -638h525zM1218 0q-160 -139 -160 -232q0 -79 76 -79q35 0 68 15v-88q-38 -16 -88 -16q-73 0 -117.5 40t-44.5 112
q0 58 41 122.5t122 125.5h103z" />
    <glyph glyph-name="aogonek" unicode="&#x105;" horiz-adv-x="1026" 
d="M755 0v182h-4q-50 -98 -136.5 -152t-195.5 -54q-74 0 -133.5 21t-101 59.5t-64 92.5t-22.5 119q0 139 86 221.5t260 107.5l311 45q0 295 -229 295q-179 0 -332 -131v140q32 23 72.5 41.5t85.5 32t92.5 21t92.5 7.5q171 0 258.5 -96t87.5 -286v-666h-128zM491 497
q-69 -10 -118 -25t-81 -40.5t-47 -63t-15 -92.5q0 -41 14.5 -76t42 -60.5t67 -39.5t89.5 -14q68 0 125 26t98.5 72t65 110t23.5 139v101zM858 0q-160 -139 -160 -232q0 -79 76 -79q35 0 68 15v-88q-38 -16 -88 -16q-73 0 -117.5 40t-44.5 112q0 58 41 122.5t122 125.5h103z
" />
    <glyph glyph-name="Cacute" unicode="&#x106;" horiz-adv-x="1270" 
d="M1150 53q-166 -78 -379 -78q-152 0 -276 53.5t-211.5 148.5t-135 226t-47.5 286q0 163 50.5 303.5t144.5 244t227.5 162.5t299.5 59q183 0 327 -56v-142q-154 77 -329 77q-139 0 -247 -48t-182 -133.5t-113 -202t-39 -254.5q0 -124 35 -233.5t103.5 -191.5t170.5 -130
t237 -48q207 0 364 87v-130zM713 1551h-108l228 328h135z" />
    <glyph glyph-name="cacute" unicode="&#x107;" horiz-adv-x="927" 
d="M846 46q-114 -69 -276 -71q-110 -1 -198 38t-150 108.5t-95 164t-33 205.5q0 115 35 216.5t102 177t164 119.5t222 44q127 0 232 -49v-136q-112 74 -242 74q-91 0 -162 -34.5t-119.5 -94t-74 -139t-25.5 -168.5q0 -82 21.5 -157t66 -132.5t112.5 -91.5t160 -34
q144 0 260 86v-126zM531 1203h-108l228 328h135z" />
    <glyph glyph-name="Ccaron" unicode="&#x10c;" horiz-adv-x="1270" 
d="M1150 53q-166 -78 -379 -78q-152 0 -276 53.5t-211.5 148.5t-135 226t-47.5 286q0 163 50.5 303.5t144.5 244t227.5 162.5t299.5 59q183 0 327 -56v-142q-154 77 -329 77q-139 0 -247 -48t-182 -133.5t-113 -202t-39 -254.5q0 -124 35 -233.5t103.5 -191.5t170.5 -130
t237 -48q207 0 364 87v-130zM821 1551h-89l-218 333h101l161 -235l162 235h100z" />
    <glyph glyph-name="ccaron" unicode="&#x10d;" horiz-adv-x="927" 
d="M846 46q-114 -69 -276 -71q-110 -1 -198 38t-150 108.5t-95 164t-33 205.5q0 115 35 216.5t102 177t164 119.5t222 44q127 0 232 -49v-136q-112 74 -242 74q-91 0 -162 -34.5t-119.5 -94t-74 -139t-25.5 -168.5q0 -82 21.5 -157t66 -132.5t112.5 -91.5t160 -34
q144 0 260 86v-126zM621 1203h-89l-218 333h101l161 -235l162 235h100z" />
    <glyph glyph-name="Dcaron" unicode="&#x10e;" horiz-adv-x="1408" 
d="M186 0v1434h377q368 0 556 -176.5t188 -521.5q0 -166 -52.5 -302t-151.5 -232.5t-240 -149t-318 -52.5h-359zM319 1312v-1191h220q148 0 264.5 40t197.5 117.5t123.5 191.5t42.5 262q0 580 -613 580h-235zM719 1551h-89l-218 333h101l161 -235l162 235h100z" />
    <glyph glyph-name="dcaron" unicode="&#x10f;" horiz-adv-x="1317" 
d="M883 0v180h-4q-51 -97 -145.5 -150.5t-214.5 -53.5q-96 0 -174.5 35.5t-134.5 102.5t-86.5 162t-30.5 215q0 124 33.5 226.5t95 176t148 114t192.5 40.5q221 0 317 -177h4v645h128v-1516h-128zM883 618q0 67 -23 125t-64 101t-98.5 68t-126.5 25q-76 0 -140 -30
t-109.5 -86.5t-71 -137.5t-25.5 -184q0 -97 23 -174t65.5 -130t101.5 -81t131 -28q78 0 140.5 28t106 77t67 115t23.5 141v171zM1379 1515l-146 -260h-101l105 260h142z" />
    <glyph glyph-name="Dcroat" unicode="&#x110;" horiz-adv-x="1408" 
d="M31 776h155v658h377q368 0 556 -176.5t188 -521.5q0 -166 -52.5 -302t-151.5 -232.5t-240 -149t-318 -52.5h-359v654h-155v122zM319 1312v-536h370v-122h-370v-533h220q148 0 264.5 40t197.5 117.5t123.5 191.5t42.5 262q0 580 -613 580h-235z" />
    <glyph glyph-name="dcroat" unicode="&#x111;" horiz-adv-x="1176" 
d="M551 1325h332v191h128v-191h136v-109h-136v-1216h-128v180h-4q-51 -97 -145.5 -150.5t-214.5 -53.5q-96 0 -174.5 35.5t-134.5 102.5t-86.5 162t-30.5 215q0 124 33.5 226.5t95 176t148 114t192.5 40.5q221 0 317 -177h4v345h-332v109zM883 618q0 67 -23 125t-64 101
t-98.5 68t-126.5 25q-76 0 -140 -30t-109.5 -86.5t-71 -137.5t-25.5 -184q0 -97 23 -174t65.5 -130t101.5 -81t131 -28q78 0 140.5 28t106 77t67 115t23.5 141v171z" />
    <glyph glyph-name="Emacron" unicode="&#x112;" horiz-adv-x="1030" 
d="M186 0v1434h699v-122h-566v-526h524v-120h-524v-545h598v-121h-731zM294 1551v96h508v-96h-508z" />
    <glyph glyph-name="emacron" unicode="&#x113;" horiz-adv-x="1052" 
d="M226 489q1 -94 25 -169t69 -127t109.5 -79.5t145.5 -27.5q173 0 327 121v-126q-147 -105 -356 -105q-103 0 -187 36t-143 104.5t-91 168.5t-32 228q0 115 35 213t97 169.5t147 112t186 40.5q99 0 175 -34.5t127.5 -98.5t78.5 -156t27 -206v-64h-740zM834 601
q-3 160 -76 248t-203 88q-65 0 -120.5 -23t-97.5 -66.5t-69.5 -106t-38.5 -140.5h605zM298 1203v96h508v-96h-508z" />
    <glyph glyph-name="Edotaccent" unicode="&#x116;" horiz-adv-x="1030" 
d="M186 0v1434h699v-122h-566v-526h524v-120h-524v-545h598v-121h-731zM536 1551q-18 0 -34 6.5t-28 18.5t-19 28t-7 35q0 18 7 34t19 27t27.5 17.5t33.5 6.5q36 0 62.5 -23.5t26.5 -61.5q0 -37 -25.5 -62.5t-62.5 -25.5z" />
    <glyph glyph-name="edotaccent" unicode="&#x117;" horiz-adv-x="1052" 
d="M226 489q1 -94 25 -169t69 -127t109.5 -79.5t145.5 -27.5q173 0 327 121v-126q-147 -105 -356 -105q-103 0 -187 36t-143 104.5t-91 168.5t-32 228q0 115 35 213t97 169.5t147 112t186 40.5q99 0 175 -34.5t127.5 -98.5t78.5 -156t27 -206v-64h-740zM834 601
q-3 160 -76 248t-203 88q-65 0 -120.5 -23t-97.5 -66.5t-69.5 -106t-38.5 -140.5h605zM558 1203q-18 0 -34 6.5t-28 18.5t-19 28t-7 35q0 18 7 34t19 27t27.5 17.5t33.5 6.5q36 0 62.5 -23.5t26.5 -61.5q0 -37 -25.5 -62.5t-62.5 -25.5z" />
    <glyph glyph-name="Eogonek" unicode="&#x118;" horiz-adv-x="1030" 
d="M186 0v1434h699v-122h-566v-526h524v-120h-524v-545h598v-121h-731zM852 0q-160 -139 -160 -232q0 -79 76 -79q35 0 68 15v-88q-38 -16 -88 -16q-73 0 -117.5 40t-44.5 112q0 58 41 122.5t122 125.5h103z" />
    <glyph glyph-name="eogonek" unicode="&#x119;" horiz-adv-x="1052" 
d="M226 489q1 -94 25 -169t69 -127t109.5 -79.5t145.5 -27.5q173 0 327 121v-126q-147 -105 -356 -105q-103 0 -187 36t-143 104.5t-91 168.5t-32 228q0 115 35 213t97 169.5t147 112t186 40.5q99 0 175 -34.5t127.5 -98.5t78.5 -156t27 -206v-64h-740zM834 601
q-3 160 -76 248t-203 88q-65 0 -120.5 -23t-97.5 -66.5t-69.5 -106t-38.5 -140.5h605zM676 0q-160 -139 -160 -232q0 -79 76 -79q35 0 68 15v-88q-38 -16 -88 -16q-73 0 -117.5 40t-44.5 112q0 58 41 122.5t122 125.5h103z" />
    <glyph glyph-name="Ecaron" unicode="&#x11a;" horiz-adv-x="1030" 
d="M186 0v1434h699v-122h-566v-526h524v-120h-524v-545h598v-121h-731zM584 1551h-89l-218 333h101l161 -235l162 235h100z" />
    <glyph glyph-name="ecaron" unicode="&#x11b;" horiz-adv-x="1052" 
d="M226 489q1 -94 25 -169t69 -127t109.5 -79.5t145.5 -27.5q173 0 327 121v-126q-147 -105 -356 -105q-103 0 -187 36t-143 104.5t-91 168.5t-32 228q0 115 35 213t97 169.5t147 112t186 40.5q99 0 175 -34.5t127.5 -98.5t78.5 -156t27 -206v-64h-740zM834 601
q-3 160 -76 248t-203 88q-65 0 -120.5 -23t-97.5 -66.5t-69.5 -106t-38.5 -140.5h605zM593 1203h-89l-218 333h101l161 -235l162 235h100z" />
    <glyph glyph-name="Gbreve" unicode="&#x11e;" horiz-adv-x="1386" 
d="M1240 99q-221 -124 -468 -124q-156 0 -280 53.5t-211 149t-133.5 228t-46.5 291.5q0 105 22.5 202t66 182t106.5 154t144.5 119t179.5 77t211 27q213 0 380 -76v-147q-184 102 -396 102q-131 0 -237 -48t-180.5 -132t-115.5 -198.5t-42 -248.5q-1 -133 34.5 -245.5
t105.5 -194.5t173 -128t238 -46q182 0 316 76v437h-326v121h459v-631zM1060 1794q-7 -55 -30 -99.5t-59 -76.5t-83.5 -49.5t-102.5 -17.5q-57 0 -104.5 17t-82.5 48.5t-56 76.5t-24 101h92q6 -76 52 -116.5t125 -40.5q34 0 64 11.5t54 32t39.5 49.5t20.5 64h95z" />
    <glyph glyph-name="gbreve" unicode="&#x11f;" horiz-adv-x="1176" 
d="M1011 79q0 -285 -129.5 -422.5t-399.5 -137.5q-168 0 -318 75v130q167 -93 318 -93q401 0 401 424v123h-4q-118 -202 -360 -202q-95 0 -173.5 35t-134.5 101t-87 160.5t-31 213.5q0 126 33 229.5t94 177.5t147.5 114.5t194.5 40.5q217 0 317 -176h4v152h128v-945z
M883 622q0 64 -23 121t-64 100t-97.5 68.5t-124.5 25.5q-80 0 -144.5 -31t-110 -88t-70 -138.5t-24.5 -183.5q0 -94 23 -170t65 -129t101.5 -82t132.5 -29q76 0 138 27.5t106 76t68 114t24 141.5v177zM856 1446q-7 -55 -30 -99.5t-59 -76.5t-83.5 -49.5t-102.5 -17.5
q-57 0 -104.5 17t-82.5 48.5t-56 76.5t-24 101h92q6 -76 52 -116.5t125 -40.5q34 0 64 11.5t54 32t39.5 49.5t20.5 64h95z" />
    <glyph glyph-name="Gcommaaccent" unicode="&#x122;" horiz-adv-x="1386" 
d="M1240 99q-221 -124 -468 -124q-156 0 -280 53.5t-211 149t-133.5 228t-46.5 291.5q0 105 22.5 202t66 182t106.5 154t144.5 119t179.5 77t211 27q213 0 380 -76v-147q-184 102 -396 102q-131 0 -237 -48t-180.5 -132t-115.5 -198.5t-42 -248.5q-1 -133 34.5 -245.5
t105.5 -194.5t173 -128t238 -46q182 0 316 76v437h-326v121h459v-631zM858 -119l-146 -260h-101l105 260h142z" />
    <glyph glyph-name="gcommaaccent" unicode="&#x123;" horiz-adv-x="1176" 
d="M479 1218l146 260h101l-105 -260h-142zM1011 79q0 -285 -129.5 -422.5t-399.5 -137.5q-168 0 -318 75v130q167 -93 318 -93q401 0 401 424v123h-4q-118 -202 -360 -202q-95 0 -173.5 35t-134.5 101t-87 160.5t-31 213.5q0 126 33 229.5t94 177.5t147.5 114.5t194.5 40.5
q217 0 317 -176h4v152h128v-945zM883 622q0 64 -23 121t-64 100t-97.5 68.5t-124.5 25.5q-80 0 -144.5 -31t-110 -88t-70 -138.5t-24.5 -183.5q0 -94 23 -170t65 -129t101.5 -82t132.5 -29q76 0 138 27.5t106 76t68 114t24 141.5v177z" />
    <glyph glyph-name="Imacron" unicode="&#x12a;" horiz-adv-x="503" 
d="M319 1434v-1434h-133v1434h133zM-1 1551v96h508v-96h-508z" />
    <glyph glyph-name="imacron" unicode="&#x12b;" 
d="M165 0v1024h128v-1024h-128zM-24 1203v96h508v-96h-508z" />
    <glyph glyph-name="Iogonek" unicode="&#x12e;" horiz-adv-x="503" 
d="M319 1434v-1434h-133v1434h133zM381 0q-160 -139 -160 -232q0 -79 76 -79q35 0 68 15v-88q-38 -16 -88 -16q-73 0 -117.5 40t-44.5 112q0 58 41 122.5t122 125.5h103z" />
    <glyph glyph-name="iogonek" unicode="&#x12f;" 
d="M228 1283q-37 0 -64 26t-27 66q0 39 27 64.5t64 25.5q19 0 36 -6.5t29.5 -18.5t20 -28.5t7.5 -36.5q0 -19 -7 -36t-20 -29.5t-29.5 -19.5t-36.5 -7zM165 0v1024h128v-1024h-128zM286 0q-160 -139 -160 -232q0 -79 76 -79q35 0 68 15v-88q-38 -16 -88 -16q-73 0 -117.5 40
t-44.5 112q0 58 41 122.5t122 125.5h103z" />
    <glyph glyph-name="Idotaccent" unicode="&#x130;" horiz-adv-x="503" 
d="M319 1434v-1434h-133v1434h133zM253 1551q-18 0 -34 6.5t-28 18.5t-19 28t-7 35q0 18 7 34t19 27t27.5 17.5t33.5 6.5q36 0 62.5 -23.5t26.5 -61.5q0 -37 -25.5 -62.5t-62.5 -25.5z" />
    <glyph glyph-name="dotlessi" unicode="&#x131;" 
d="M165 0v1024h128v-1024h-128z" />
    <glyph glyph-name="Kcommaaccent" unicode="&#x136;" horiz-adv-x="1133" 
d="M937 0l-583 671q-24 29 -31 41h-4v-712h-133v1434h133v-675h4q7 11 15 21l17 21l558 633h169l-622 -692l663 -742h-186zM705 -119l-146 -260h-101l105 260h142z" />
    <glyph glyph-name="kcommaaccent" unicode="&#x137;" horiz-adv-x="963" 
d="M768 0l-471 499h-4v-499h-128v1516h128v-969h4l447 477h167l-480 -495l518 -529h-181zM601 -119l-146 -260h-101l105 260h142z" />
    <glyph glyph-name="Lacute" unicode="&#x139;" horiz-adv-x="951" 
d="M186 0v1434h133v-1313h576v-121h-709zM576 1551h-108l228 328h135z" />
    <glyph glyph-name="lacute" unicode="&#x13a;" 
d="M165 0v1516h128v-1516h-128zM253 1636h-108l228 328h135z" />
    <glyph glyph-name="Lcommaaccent" unicode="&#x13b;" horiz-adv-x="951" 
d="M186 0v1434h133v-1313h576v-121h-709zM763 -260q0 -173 -265 -173q-37 0 -72 3v82q47 -6 78 -6q150 0 150 91q0 82 -137 82q-11 0 -23.5 -1t-28.5 -3v185h90v-111q100 0 154 -38t54 -111z" />
    <glyph glyph-name="lcommaaccent" unicode="&#x13c;" 
d="M165 0v1516h128v-1516h-128zM476 -260q0 -173 -265 -173q-37 0 -72 3v82q47 -6 78 -6q150 0 150 91q0 82 -137 82q-11 0 -23.5 -1t-28.5 -3v185h90v-111q100 0 154 -38t54 -111z" />
    <glyph glyph-name="Lcaron" unicode="&#x13d;" horiz-adv-x="951" 
d="M186 0v1434h133v-1313h576v-121h-709zM864 1433l-146 -260h-101l105 260h142z" />
    <glyph glyph-name="lcaron" unicode="&#x13e;" horiz-adv-x="578" 
d="M165 0v1516h128v-1516h-128zM640 1512l-146 -260h-101l105 260h142z" />
    <glyph glyph-name="Lslash" unicode="&#x141;" horiz-adv-x="951" 
d="M186 0v558l-135 -83v124l135 83v752h133v-670l347 213v-125l-347 -212v-519h576v-121h-709z" />
    <glyph glyph-name="lslash" unicode="&#x142;" horiz-adv-x="531" 
d="M326 694v-694h-128v604l-175 -128v127l175 128v785h128v-695l178 129v-127z" />
    <glyph glyph-name="Nacute" unicode="&#x143;" horiz-adv-x="1492" 
d="M1168 0l-796 1151l-29.5 45t-23.5 45h-5q2 -18 3.5 -50t1.5 -80v-1111h-133v1434h147l783 -1137l32.5 -50.5l26.5 -43.5h5q-4 33 -6 74t-2 91v1066h134v-1434h-138zM726 1551h-108l228 328h135z" />
    <glyph glyph-name="nacute" unicode="&#x144;" horiz-adv-x="1127" 
d="M856 0v590q0 347 -252 347q-67 0 -124 -26.5t-98.5 -73.5t-65 -111.5t-23.5 -139.5v-586h-128v1024h128v-178h4q114 202 343 202q168 0 256 -109t88 -315v-624h-128zM556 1203h-108l228 328h135z" />
    <glyph glyph-name="Ncommaaccent" unicode="&#x145;" horiz-adv-x="1492" 
d="M1168 0l-796 1151l-29.5 45t-23.5 45h-5q2 -18 3.5 -50t1.5 -80v-1111h-133v1434h147l783 -1137l32.5 -50.5l26.5 -43.5h5q-4 33 -6 74t-2 91v1066h134v-1434h-138zM834 -119l-146 -260h-101l105 260h142z" />
    <glyph glyph-name="ncommaaccent" unicode="&#x146;" horiz-adv-x="1127" 
d="M856 0v590q0 347 -252 347q-67 0 -124 -26.5t-98.5 -73.5t-65 -111.5t-23.5 -139.5v-586h-128v1024h128v-178h4q114 202 343 202q168 0 256 -109t88 -315v-624h-128zM660 -119l-146 -260h-101l105 260h142z" />
    <glyph glyph-name="Ncaron" unicode="&#x147;" horiz-adv-x="1492" 
d="M1168 0l-796 1151l-29.5 45t-23.5 45h-5q2 -18 3.5 -50t1.5 -80v-1111h-133v1434h147l783 -1137l32.5 -50.5l26.5 -43.5h5q-4 33 -6 74t-2 91v1066h134v-1434h-138zM797 1551h-89l-218 333h101l161 -235l162 235h100z" />
    <glyph glyph-name="ncaron" unicode="&#x148;" horiz-adv-x="1127" 
d="M856 0v590q0 347 -252 347q-67 0 -124 -26.5t-98.5 -73.5t-65 -111.5t-23.5 -139.5v-586h-128v1024h128v-178h4q114 202 343 202q168 0 256 -109t88 -315v-624h-128zM631 1203h-89l-218 333h101l161 -235l162 235h100z" />
    <glyph glyph-name="Omacron" unicode="&#x14c;" horiz-adv-x="1551" 
d="M770 -25q-155 0 -279 56.5t-210.5 154.5t-133 230.5t-46.5 284.5q0 168 46.5 307.5t135.5 239t218 155t294 55.5q152 0 273 -54.5t206 -151t130.5 -228.5t45.5 -287q0 -163 -44.5 -302.5t-131 -241.5t-213 -160t-291.5 -58zM781 1337q-130 0 -230.5 -49.5t-169.5 -134
t-104.5 -198t-36.5 -241.5q-1 -122 31.5 -233.5t98 -197t165.5 -136.5t234 -51t235.5 46.5t169.5 129t102.5 196.5t34.5 249q0 126 -30.5 239t-95 197.5t-164.5 134t-240 49.5zM521 1551v96h508v-96h-508z" />
    <glyph glyph-name="omacron" unicode="&#x14d;" horiz-adv-x="1174" 
d="M584 -24q-114 0 -204.5 38t-154.5 107.5t-98 166.5t-34 215q0 128 36 229t102.5 171.5t160.5 107.5t210 37q111 0 200 -36.5t151 -105.5t95 -168t33 -225q0 -120 -34.5 -218.5t-98.5 -169.5t-156 -110t-208 -39zM594 937q-84 0 -152 -29t-116.5 -84.5t-74.5 -136
t-26 -182.5q0 -96 26 -173t73.5 -132t115.5 -84.5t152 -29.5q86 0 152 28.5t112 83t69.5 133.5t23.5 180q0 207 -92 316.5t-263 109.5zM333 1203v96h508v-96h-508z" />
    <glyph glyph-name="Ohungarumlaut" unicode="&#x150;" horiz-adv-x="1551" 
d="M770 -25q-155 0 -279 56.5t-210.5 154.5t-133 230.5t-46.5 284.5q0 168 46.5 307.5t135.5 239t218 155t294 55.5q152 0 273 -54.5t206 -151t130.5 -228.5t45.5 -287q0 -163 -44.5 -302.5t-131 -241.5t-213 -160t-291.5 -58zM781 1337q-130 0 -230.5 -49.5t-169.5 -134
t-104.5 -198t-36.5 -241.5q-1 -122 31.5 -233.5t98 -197t165.5 -136.5t234 -51t235.5 46.5t169.5 129t102.5 196.5t34.5 249q0 126 -30.5 239t-95 197.5t-164.5 134t-240 49.5zM873 1551h-85l210 317h121zM641 1551h-84l208 317h120z" />
    <glyph glyph-name="ohungarumlaut" unicode="&#x151;" horiz-adv-x="1174" 
d="M584 -24q-114 0 -204.5 38t-154.5 107.5t-98 166.5t-34 215q0 128 36 229t102.5 171.5t160.5 107.5t210 37q111 0 200 -36.5t151 -105.5t95 -168t33 -225q0 -120 -34.5 -218.5t-98.5 -169.5t-156 -110t-208 -39zM594 937q-84 0 -152 -29t-116.5 -84.5t-74.5 -136
t-26 -182.5q0 -96 26 -173t73.5 -132t115.5 -84.5t152 -29.5q86 0 152 28.5t112 83t69.5 133.5t23.5 180q0 207 -92 316.5t-263 109.5zM698 1203h-85l210 317h121zM466 1203h-84l208 317h120z" />
    <glyph glyph-name="OE" unicode="&#x152;" horiz-adv-x="1920" 
d="M1083 0q-48 -5 -122.5 -14.5t-178.5 -9.5q-160 0 -286 53.5t-214 149.5t-134.5 229t-46.5 293q0 172 48.5 311.5t139.5 238.5t221.5 153t293.5 54q41 0 85 -3t83 -7t68.5 -8t42.5 -6h679v-122h-565v-526h524v-120h-524v-545h598v-121h-712zM1063 1309q-143 28 -270 28
q-125 0 -227 -46.5t-174.5 -129t-112 -197t-39.5 -250.5t37.5 -249.5t108 -195.5t171 -127.5t227.5 -45.5q125 0 279 32v1181z" />
    <glyph glyph-name="oe" unicode="&#x153;" horiz-adv-x="1893" 
d="M1078 489q1 -95 25.5 -170t69.5 -126.5t109 -79t145 -27.5q176 0 328 121v-126q-147 -105 -354 -105q-282 0 -388 266h-4q-123 -266 -425 -266q-114 0 -205 38t-154.5 107.5t-97.5 166.5t-34 214q0 129 36.5 230.5t103.5 171.5t161 107t209 37q152 0 258 -68.5
t155 -197.5h4q117 266 396 266q97 0 172 -34.5t126.5 -98.5t78.5 -155.5t27 -205.5v-65h-742zM1687 601q-4 159 -76.5 247.5t-200.5 88.5q-66 0 -122.5 -24t-99.5 -68t-70.5 -106t-36.5 -138h606zM594 937q-85 0 -153 -29.5t-116 -85.5t-74 -136.5t-26 -182.5
q0 -95 25.5 -172t73 -131.5t115 -84t152.5 -29.5q86 0 152.5 28.5t112.5 83t69.5 133.5t23.5 179q0 103 -23.5 182.5t-69 134t-111.5 82.5t-151 28z" />
    <glyph glyph-name="Racute" unicode="&#x154;" horiz-adv-x="1181" 
d="M967 0l-216 411q-32 61 -62 102t-62 65.5t-68.5 35t-81.5 10.5h-158v-624h-133v1434h413q81 0 156.5 -24t134.5 -71t94.5 -118t35.5 -165q0 -76 -23 -140t-65.5 -113.5t-103 -84t-136.5 -51.5v-4q29 -12 53 -31t46.5 -46t44.5 -62t46 -80l241 -444h-156zM319 1312v-567
h238q72 0 132 21t102.5 60t66 94t23.5 124q0 125 -80.5 196.5t-232.5 71.5h-249zM583 1551h-108l228 328h135z" />
    <glyph glyph-name="racute" unicode="&#x155;" horiz-adv-x="694" 
d="M673 893q-45 33 -116 33q-51 0 -90 -19.5t-68.5 -52.5t-50 -76.5t-33 -90.5t-18 -95t-5.5 -91v-501h-127v1024h127v-219h4q18 56 45.5 100.5t63.5 75t78.5 46.5t89.5 16q31 0 55.5 -4t44.5 -12v-134zM408 1203h-108l228 328h135z" />
    <glyph glyph-name="Rcommaaccent" unicode="&#x156;" horiz-adv-x="1181" 
d="M967 0l-216 411q-32 61 -62 102t-62 65.5t-68.5 35t-81.5 10.5h-158v-624h-133v1434h413q81 0 156.5 -24t134.5 -71t94.5 -118t35.5 -165q0 -76 -23 -140t-65.5 -113.5t-103 -84t-136.5 -51.5v-4q29 -12 53 -31t46.5 -46t44.5 -62t46 -80l241 -444h-156zM319 1312v-567
h238q72 0 132 21t102.5 60t66 94t23.5 124q0 125 -80.5 196.5t-232.5 71.5h-249zM689 -119l-146 -260h-101l105 260h142z" />
    <glyph glyph-name="rcommaaccent" unicode="&#x157;" horiz-adv-x="694" 
d="M673 893q-45 33 -116 33q-51 0 -90 -19.5t-68.5 -52.5t-50 -76.5t-33 -90.5t-18 -95t-5.5 -91v-501h-127v1024h127v-219h4q18 56 45.5 100.5t63.5 75t78.5 46.5t89.5 16q31 0 55.5 -4t44.5 -12v-134zM506 -119l-146 -260h-101l105 260h142z" />
    <glyph glyph-name="Rcaron" unicode="&#x158;" horiz-adv-x="1181" 
d="M967 0l-216 411q-32 61 -62 102t-62 65.5t-68.5 35t-81.5 10.5h-158v-624h-133v1434h413q81 0 156.5 -24t134.5 -71t94.5 -118t35.5 -165q0 -76 -23 -140t-65.5 -113.5t-103 -84t-136.5 -51.5v-4q29 -12 53 -31t46.5 -46t44.5 -62t46 -80l241 -444h-156zM319 1312v-567
h238q72 0 132 21t102.5 60t66 94t23.5 124q0 125 -80.5 196.5t-232.5 71.5h-249zM626 1551h-89l-218 333h101l161 -235l162 235h100z" />
    <glyph glyph-name="rcaron" unicode="&#x159;" horiz-adv-x="694" 
d="M673 893q-45 33 -116 33q-51 0 -90 -19.5t-68.5 -52.5t-50 -76.5t-33 -90.5t-18 -95t-5.5 -91v-501h-127v1024h127v-219h4q18 56 45.5 100.5t63.5 75t78.5 46.5t89.5 16q31 0 55.5 -4t44.5 -12v-134zM455 1203h-89l-218 333h101l161 -235l162 235h100z" />
    <glyph glyph-name="Sacute" unicode="&#x15a;" horiz-adv-x="1053" 
d="M130 210q36 -27 79.5 -48.5t89 -36t91.5 -22t88 -7.5q163 0 244 63t81 181q0 57 -19 99.5t-59 79.5t-101 73.5l-144 82.5q-92 50 -157.5 94.5t-107 91t-61 100.5t-19.5 123q0 87 37 156t100 117.5t147.5 74.5t180.5 26q169 0 283 -47v-147q-127 73 -298 73
q-64 0 -120.5 -15.5t-99 -45.5t-67 -74.5t-24.5 -103.5q0 -56 16.5 -96.5t53 -76.5t96 -71.5t145.5 -81.5q90 -48 157 -93.5t111.5 -95t66.5 -105t22 -123.5q0 -94 -35 -165.5t-98 -118.5t-150 -71t-191 -24q-34 0 -81 5.5t-95 16t-91.5 25t-70.5 31.5v156zM528 1551h-108
l228 328h135z" />
    <glyph glyph-name="sacute" unicode="&#x15b;" horiz-adv-x="832" 
d="M107 184q29 -23 63 -41t70 -31t72.5 -19.5t69.5 -6.5q228 0 228 171q0 39 -16 67.5t-46 52t-72 43.5t-95 42q-71 29 -122 59t-84 65.5t-49 78t-16 96.5q0 68 29.5 121t79.5 90t115.5 56.5t137.5 19.5q133 0 232 -50v-135q-115 74 -248 74q-48 0 -87.5 -12t-67.5 -34
t-43.5 -52.5t-15.5 -67.5q0 -38 12 -66.5t37.5 -51.5t66 -44t98.5 -45q74 -30 128 -59.5t89 -64t52 -77t17 -98.5q0 -69 -28.5 -123t-79 -91t-118.5 -56t-148 -19q-155 0 -261 65v143zM416 1203h-108l228 328h135z" />
    <glyph glyph-name="Scedilla" unicode="&#x15e;" horiz-adv-x="1053" 
d="M130 210q36 -27 79.5 -48.5t89 -36t91.5 -22t88 -7.5q163 0 244 63t81 181q0 57 -19 99.5t-59 79.5t-101 73.5l-144 82.5q-92 50 -157.5 94.5t-107 91t-61 100.5t-19.5 123q0 87 37 156t100 117.5t147.5 74.5t180.5 26q169 0 283 -47v-147q-127 73 -298 73
q-64 0 -120.5 -15.5t-99 -45.5t-67 -74.5t-24.5 -103.5q0 -56 16.5 -96.5t53 -76.5t96 -71.5t145.5 -81.5q90 -48 157 -93.5t111.5 -95t66.5 -105t22 -123.5q0 -94 -35 -165.5t-98 -118.5t-150 -71t-191 -24q-34 0 -81 5.5t-95 16t-91.5 25t-70.5 31.5v156zM753 -260
q0 -173 -265 -173q-37 0 -72 3v82q47 -6 78 -6q150 0 150 91q0 82 -137 82q-11 0 -23.5 -1t-28.5 -3v185h90v-111q100 0 154 -38t54 -111z" />
    <glyph glyph-name="scedilla" unicode="&#x15f;" horiz-adv-x="832" 
d="M107 184q29 -23 63 -41t70 -31t72.5 -19.5t69.5 -6.5q228 0 228 171q0 39 -16 67.5t-46 52t-72 43.5t-95 42q-71 29 -122 59t-84 65.5t-49 78t-16 96.5q0 68 29.5 121t79.5 90t115.5 56.5t137.5 19.5q133 0 232 -50v-135q-115 74 -248 74q-48 0 -87.5 -12t-67.5 -34
t-43.5 -52.5t-15.5 -67.5q0 -38 12 -66.5t37.5 -51.5t66 -44t98.5 -45q74 -30 128 -59.5t89 -64t52 -77t17 -98.5q0 -69 -28.5 -123t-79 -91t-118.5 -56t-148 -19q-155 0 -261 65v143zM634 -260q0 -173 -265 -173q-37 0 -72 3v82q47 -6 78 -6q150 0 150 91q0 82 -137 82
q-11 0 -23.5 -1t-28.5 -3v185h90v-111q100 0 154 -38t54 -111z" />
    <glyph glyph-name="Scaron" unicode="&#x160;" horiz-adv-x="1053" 
d="M130 210q36 -27 79.5 -48.5t89 -36t91.5 -22t88 -7.5q163 0 244 63t81 181q0 57 -19 99.5t-59 79.5t-101 73.5l-144 82.5q-92 50 -157.5 94.5t-107 91t-61 100.5t-19.5 123q0 87 37 156t100 117.5t147.5 74.5t180.5 26q169 0 283 -47v-147q-127 73 -298 73
q-64 0 -120.5 -15.5t-99 -45.5t-67 -74.5t-24.5 -103.5q0 -56 16.5 -96.5t53 -76.5t96 -71.5t145.5 -81.5q90 -48 157 -93.5t111.5 -95t66.5 -105t22 -123.5q0 -94 -35 -165.5t-98 -118.5t-150 -71t-191 -24q-34 0 -81 5.5t-95 16t-91.5 25t-70.5 31.5v156zM589 1551h-89
l-218 333h101l161 -235l162 235h100z" />
    <glyph glyph-name="scaron" unicode="&#x161;" horiz-adv-x="832" 
d="M107 184q29 -23 63 -41t70 -31t72.5 -19.5t69.5 -6.5q228 0 228 171q0 39 -16 67.5t-46 52t-72 43.5t-95 42q-71 29 -122 59t-84 65.5t-49 78t-16 96.5q0 68 29.5 121t79.5 90t115.5 56.5t137.5 19.5q133 0 232 -50v-135q-115 74 -248 74q-48 0 -87.5 -12t-67.5 -34
t-43.5 -52.5t-15.5 -67.5q0 -38 12 -66.5t37.5 -51.5t66 -44t98.5 -45q74 -30 128 -59.5t89 -64t52 -77t17 -98.5q0 -69 -28.5 -123t-79 -91t-118.5 -56t-148 -19q-155 0 -261 65v143zM456 1203h-89l-218 333h101l161 -235l162 235h100z" />
    <glyph glyph-name="Tcommaaccent" unicode="&#x162;" horiz-adv-x="1060" 
d="M596 1312v-1312h-133v1312h-413v122h960v-122h-414zM771 -260q0 -173 -265 -173q-37 0 -72 3v82q47 -6 78 -6q150 0 150 91q0 82 -137 82q-11 0 -23.5 -1t-28.5 -3v185h90v-111q100 0 154 -38t54 -111z" />
    <glyph glyph-name="tcommaaccent" unicode="&#x163;" horiz-adv-x="651" 
d="M605 12q-66 -33 -144 -33q-248 0 -248 286v647h-180v112h180v258l128 42v-300h264v-112h-264v-627q0 -104 34 -150t115 -46q60 0 115 36v-113zM664 -260q0 -173 -265 -173q-37 0 -72 3v82q47 -6 78 -6q150 0 150 91q0 82 -137 82q-11 0 -23.5 -1t-28.5 -3v185h90v-111
q100 0 154 -38t54 -111z" />
    <glyph glyph-name="Tcaron" unicode="&#x164;" horiz-adv-x="1060" 
d="M596 1312v-1312h-133v1312h-413v122h960v-122h-414zM576 1551h-89l-218 333h101l161 -235l162 235h100z" />
    <glyph glyph-name="tcaron" unicode="&#x165;" horiz-adv-x="813" 
d="M605 12q-66 -33 -144 -33q-248 0 -248 286v647h-180v112h180v258l128 42v-300h264v-112h-264v-627q0 -104 34 -150t115 -46q60 0 115 36v-113zM875 1394l-146 -260h-101l105 260h142z" />
    <glyph glyph-name="Umacron" unicode="&#x16a;" horiz-adv-x="1367" 
d="M1199 576q0 -601 -528 -601q-503 0 -503 579v880h133v-868q0 -236 95 -353t294 -117q376 0 376 456v882h133v-858zM429 1551v96h508v-96h-508z" />
    <glyph glyph-name="umacron" unicode="&#x16b;" horiz-adv-x="1128" 
d="M835 0v174h-4q-104 -198 -323 -198q-365 0 -365 446v602h128v-578q0 -184 65.5 -272t200.5 -88q66 0 120.5 25.5t94 72t61.5 111.5t22 144v585h128v-1024h-128zM295 1203v96h508v-96h-508z" />
    <glyph glyph-name="Uring" unicode="&#x16e;" horiz-adv-x="1367" 
d="M1199 576q0 -601 -528 -601q-503 0 -503 579v880h133v-868q0 -236 95 -353t294 -117q376 0 376 456v882h133v-858zM677 1530q-40 0 -76 13t-64 37t-44.5 59t-16.5 78q0 42 16 77t44 60.5t65 39.5t80 14q39 0 75.5 -13t64.5 -37.5t45 -59.5t17 -78q0 -41 -16.5 -75.5
t-45 -60t-65.5 -40t-79 -14.5zM677 1834q-53 0 -86 -32t-33 -83q0 -55 32 -85t87 -30q27 0 49.5 8.5t39 24t25.5 36.5t9 46q0 53 -35 84t-88 31z" />
    <glyph glyph-name="uring" unicode="&#x16f;" horiz-adv-x="1128" 
d="M835 0v174h-4q-104 -198 -323 -198q-365 0 -365 446v602h128v-578q0 -184 65.5 -272t200.5 -88q66 0 120.5 25.5t94 72t61.5 111.5t22 144v585h128v-1024h-128zM550 1182q-40 0 -76 13t-64 37t-44.5 59t-16.5 78q0 42 16 77t44 60.5t65 39.5t80 14q39 0 75.5 -13
t64.5 -37.5t45 -59.5t17 -78q0 -41 -16.5 -75.5t-45 -60t-65.5 -40t-79 -14.5zM550 1486q-53 0 -86 -32t-33 -83q0 -55 32 -85t87 -30q27 0 49.5 8.5t39 24t25.5 36.5t9 46q0 53 -35 84t-88 31z" />
    <glyph glyph-name="Uhungarumlaut" unicode="&#x170;" horiz-adv-x="1367" 
d="M1199 576q0 -601 -528 -601q-503 0 -503 579v880h133v-868q0 -236 95 -353t294 -117q376 0 376 456v882h133v-858zM781 1551h-85l210 317h121zM549 1551h-84l208 317h120z" />
    <glyph glyph-name="uhungarumlaut" unicode="&#x171;" horiz-adv-x="1128" 
d="M835 0v174h-4q-104 -198 -323 -198q-365 0 -365 446v602h128v-578q0 -184 65.5 -272t200.5 -88q66 0 120.5 25.5t94 72t61.5 111.5t22 144v585h128v-1024h-128zM652 1203h-85l210 317h121zM420 1203h-84l208 317h120z" />
    <glyph glyph-name="Uogonek" unicode="&#x172;" horiz-adv-x="1367" 
d="M1199 576q0 -601 -528 -601q-503 0 -503 579v880h133v-868q0 -236 95 -353t294 -117q376 0 376 456v882h133v-858zM835 0q-160 -139 -160 -232q0 -79 76 -79q35 0 68 15v-88q-38 -16 -88 -16q-73 0 -117.5 40t-44.5 112q0 58 41 122.5t122 125.5h103z" />
    <glyph glyph-name="uogonek" unicode="&#x173;" horiz-adv-x="1128" 
d="M835 0v174h-4q-104 -198 -323 -198q-365 0 -365 446v602h128v-578q0 -184 65.5 -272t200.5 -88q66 0 120.5 25.5t94 72t61.5 111.5t22 144v585h128v-1024h-128zM938 0q-160 -139 -160 -232q0 -79 76 -79q35 0 68 15v-88q-38 -16 -88 -16q-73 0 -117.5 40t-44.5 112
q0 58 41 122.5t122 125.5h103z" />
    <glyph glyph-name="Ydieresis" unicode="&#x178;" horiz-adv-x="1119" 
d="M617 537v-537h-133v534l-450 900h151l328 -670q6 -12 16 -36t24 -61h3q6 18 17 42t27 54l343 671h142zM732 1551q-33 0 -58.5 23.5t-25.5 61.5q0 37 24.5 60.5t57.5 23.5q36 0 62 -24t26 -60t-24.5 -60.5t-61.5 -24.5zM374 1551q-18 0 -33.5 6.5t-27.5 18t-19 27t-7 33.5
q0 37 25 60.5t59 23.5q18 0 34 -6.5t28 -17.5t19 -26.5t7 -33.5q0 -36 -25 -60.5t-60 -24.5z" />
    <glyph glyph-name="Zacute" unicode="&#x179;" horiz-adv-x="1167" 
d="M249 121h839v-121h-1039v39l851 1273h-783v122h988v-34zM600 1551h-108l228 328h135z" />
    <glyph glyph-name="zacute" unicode="&#x17a;" horiz-adv-x="938" 
d="M240 112h631v-112h-826v43l643 869h-590v112h788v-36zM470 1203h-108l228 328h135z" />
    <glyph glyph-name="Zdotaccent" unicode="&#x17b;" horiz-adv-x="1167" 
d="M249 121h839v-121h-1039v39l851 1273h-783v122h988v-34zM603 1551q-18 0 -34 6.5t-28 18.5t-19 28t-7 35q0 18 7 34t19 27t27.5 17.5t33.5 6.5q36 0 62.5 -23.5t26.5 -61.5q0 -37 -25.5 -62.5t-62.5 -25.5z" />
    <glyph glyph-name="zdotaccent" unicode="&#x17c;" horiz-adv-x="938" 
d="M240 112h631v-112h-826v43l643 869h-590v112h788v-36zM492 1203q-18 0 -34 6.5t-28 18.5t-19 28t-7 35q0 18 7 34t19 27t27.5 17.5t33.5 6.5q36 0 62.5 -23.5t26.5 -61.5q0 -37 -25.5 -62.5t-62.5 -25.5z" />
    <glyph glyph-name="Zcaron" unicode="&#x17d;" horiz-adv-x="1167" 
d="M249 121h839v-121h-1039v39l851 1273h-783v122h988v-34zM667 1551h-89l-218 333h101l161 -235l162 235h100z" />
    <glyph glyph-name="zcaron" unicode="&#x17e;" horiz-adv-x="938" 
d="M240 112h631v-112h-826v43l643 869h-590v112h788v-36zM549 1203h-89l-218 333h101l161 -235l162 235h100z" />
    <glyph glyph-name="florin" unicode="&#x192;" horiz-adv-x="1079" 
d="M931 1302q-39 21 -88 21q-162 0 -189 -181l-32 -219h169v-110h-185l-94 -677q-30 -214 -114 -314t-214 -100q-17 0 -37 3t-44 11v113q37 -17 77 -17q161 0 204 307l94 674h-104v110h121l40 265q9 60 36 105.5t66.5 77t89.5 47.5t105 16q54 0 99 -15v-117z" />
    <glyph glyph-name="circumflex" unicode="&#x2c6;" horiz-adv-x="763" 
d="M531 1203l-161 234l-162 -234h-98l218 334h89l218 -334h-104z" />
    <glyph glyph-name="caron" unicode="&#x2c7;" horiz-adv-x="763" 
d="M431 1203h-89l-218 333h101l161 -235l162 235h100z" />
    <glyph glyph-name="breve" unicode="&#x2d8;" horiz-adv-x="616" 
d="M579 1446q-7 -55 -30 -99.5t-59 -76.5t-83.5 -49.5t-102.5 -17.5q-57 0 -104.5 17t-82.5 48.5t-56 76.5t-24 101h92q6 -76 52 -116.5t125 -40.5q34 0 64 11.5t54 32t39.5 49.5t20.5 64h95z" />
    <glyph glyph-name="dotaccent" unicode="&#x2d9;" horiz-adv-x="388" 
d="M194 1203q-18 0 -34 6.5t-28 18.5t-19 28t-7 35q0 18 7 34t19 27t27.5 17.5t33.5 6.5q36 0 62.5 -23.5t26.5 -61.5q0 -37 -25.5 -62.5t-62.5 -25.5z" />
    <glyph glyph-name="ring" unicode="&#x2da;" horiz-adv-x="584" 
d="M290 1182q-40 0 -76 13t-64 37t-44.5 59t-16.5 78q0 42 16 77t44 60.5t65 39.5t80 14q39 0 75.5 -13t64.5 -37.5t45 -59.5t17 -78q0 -41 -16.5 -75.5t-45 -60t-65.5 -40t-79 -14.5zM290 1486q-53 0 -86 -32t-33 -83q0 -55 32 -85t87 -30q27 0 49.5 8.5t39 24t25.5 36.5
t9 46q0 53 -35 84t-88 31z" />
    <glyph glyph-name="ogonek" unicode="&#x2db;" horiz-adv-x="370" 
d="M321 0q-160 -139 -160 -232q0 -79 76 -79q35 0 68 15v-88q-38 -16 -88 -16q-73 0 -117.5 40t-44.5 112q0 58 41 122.5t122 125.5h103z" />
    <glyph glyph-name="tilde" unicode="&#x2dc;" horiz-adv-x="669" 
d="M670 1440q0 -51 -12.5 -93t-35.5 -72.5t-56 -47.5t-75 -17q-68 0 -156 64q-70 49 -119 49q-95 0 -95 -128h-83q0 51 12.5 93t35.5 72t56 46.5t75 16.5q68 0 154 -62q71 -51 123 -51q41 0 65.5 32.5t24.5 97.5h86z" />
    <glyph glyph-name="hungarumlaut" unicode="&#x2dd;" horiz-adv-x="648" 
d="M383 1203h-85l210 317h121zM151 1203h-84l208 317h120z" />
    <glyph glyph-name="tonos" unicode="&#x384;" horiz-adv-x="558" 
d="M257 1180h-72l96 366h136z" />
    <glyph glyph-name="dieresistonos" unicode="&#x385;" horiz-adv-x="569" 
d="M612 1318q0 -36 -25 -60.5t-61 -24.5q-16 0 -31 6t-27 17.5t-19 27t-7 34.5t7 34.5t18.5 26.5t26.5 17t30 6q36 0 62 -24t26 -60zM285 1189h-71l96 366h135zM152 1318q0 -36 -25 -60.5t-62 -24.5q-16 0 -31 6t-27 17.5t-19 27t-7 34.5t7 34.5t18.5 26.5t26.5 17t31 6
q18 0 34 -6.5t28 -17.5t19 -26.5t7 -33.5z" />
    <glyph glyph-name="Alphatonos" unicode="&#x386;" horiz-adv-x="1303" 
d="M1115 0l-158 424h-615l-154 -424h-148l546 1434h134l543 -1434h-148zM678 1183q-7 19 -14.5 44t-12.5 57h-4q-6 -32 -13.5 -57t-14.5 -44l-232 -638h525zM161 1069h-72l96 366h136z" />
    <glyph glyph-name="Epsilontonos" unicode="&#x388;" horiz-adv-x="1147" 
d="M302 0v1434h699v-122h-566v-526h524v-120h-524v-545h598v-121h-731zM26 1069h-72l96 366h136z" />
    <glyph glyph-name="Etatonos" unicode="&#x389;" horiz-adv-x="1537" 
d="M1217 0v671h-782v-671h-133v1434h133v-643h782v643h133v-1434h-133zM26 1069h-72l96 366h136z" />
    <glyph glyph-name="Iotatonos" unicode="&#x38a;" horiz-adv-x="707" 
d="M521 1434v-1434h-133v1434h133zM27 1069h-72l96 366h136z" />
    <glyph glyph-name="Omicrontonos" unicode="&#x38c;" horiz-adv-x="1650" 
d="M872 -25q-155 0 -279 56.5t-210.5 154.5t-133 230.5t-46.5 284.5q0 168 46.5 307.5t135.5 239t218 155t294 55.5q152 0 273 -54.5t206 -151t130.5 -228.5t45.5 -287q0 -163 -44.5 -302.5t-131 -241.5t-213 -160t-291.5 -58zM883 1337q-130 0 -230.5 -49.5t-169.5 -134
t-104.5 -198t-36.5 -241.5q-1 -122 31.5 -233.5t98 -197t165.5 -136.5t234 -51t235.5 46.5t169.5 129t102.5 196.5t34.5 249q0 126 -30.5 239t-95 197.5t-164.5 134t-240 49.5zM52 1069h-72l96 366h136z" />
    <glyph glyph-name="Upsilontonos" unicode="&#x38e;" horiz-adv-x="1287" 
d="M789 537v-537h-133v534l-450 900h151l328 -670q6 -12 16 -36t24 -61h3q6 18 17 42t27 54l343 671h142zM-14 1069h-72l96 366h136z" />
    <glyph glyph-name="Omegatonos" unicode="&#x38f;" horiz-adv-x="1670" 
d="M1075 0v118q71 53 136 118.5t115 146.5t79.5 179t29.5 215q0 131 -39 235t-109 176.5t-166.5 111.5t-212.5 39q-121 0 -221 -40t-171 -113.5t-110.5 -176.5t-39.5 -230q0 -114 28 -210.5t77 -178t115 -149t142 -123.5v-118h-499v118h350q-70 49 -133.5 114.5t-112 148
t-77 182.5t-28.5 219q0 156 49.5 281t138 213t212 135t271.5 47q149 0 273 -45t213 -131.5t138.5 -211.5t49.5 -285q0 -112 -26.5 -210t-73.5 -182t-111 -152.5t-139 -121.5h350v-119h-498zM53 1069h-72l96 366h136z" />
    <glyph glyph-name="iotadieresistonos" unicode="&#x390;" horiz-adv-x="532" 
d="M488 6q-26 -9 -52 -13.5t-49 -4.5q-115 0 -168.5 69t-53.5 197v770h127v-768q0 -45 10 -75t26.5 -47.5t37 -24.5t41.5 -7q24 0 43 3.5t38 10.5v-110v0zM573 1318q0 -36 -25 -60.5t-61 -24.5q-16 0 -31 6t-27 17.5t-19 27t-7 34.5t7 34.5t18.5 26.5t26.5 17t30 6
q36 0 62 -24t26 -60zM246 1189h-71l96 366h135zM113 1318q0 -36 -25 -60.5t-62 -24.5q-16 0 -31 6t-27 17.5t-19 27t-7 34.5t7 34.5t18.5 26.5t26.5 17t31 6q18 0 34 -6.5t28 -17.5t19 -26.5t7 -33.5z" />
    <glyph glyph-name="Alpha" unicode="&#x391;" horiz-adv-x="1303" 
d="M1115 0l-158 424h-615l-154 -424h-148l546 1434h134l543 -1434h-148zM678 1183q-7 19 -14.5 44t-12.5 57h-4q-6 -32 -13.5 -57t-14.5 -44l-232 -638h525z" />
    <glyph glyph-name="Beta" unicode="&#x392;" horiz-adv-x="1144" 
d="M186 0v1434h392q89 0 160.5 -24t122 -67.5t77.5 -104.5t27 -134q0 -62 -17 -116t-49 -98.5t-78.5 -77t-105.5 -51.5v-4q72 -7 131 -35t101 -73t65 -105.5t23 -132.5q0 -91 -33 -166.5t-92.5 -130t-141.5 -84.5t-181 -30h-401zM319 1312v-509h186q73 0 132 19t101 55
t64.5 87t22.5 115q0 233 -290 233h-216zM319 683v-562h247q159 0 244.5 74.5t85.5 211.5q0 276 -375 276h-202z" />
    <glyph glyph-name="Gamma" unicode="&#x393;" horiz-adv-x="951" 
d="M320 1310v-1310h-134v1434h709v-124h-575z" />
    <glyph glyph-name="Delta" unicode="&#x394;" horiz-adv-x="1304" 
d="M66 0v67l520 1367h134l519 -1367v-67h-1173zM687 1160q-14 39 -22.5 69t-13.5 56h-4q-5 -23 -13.5 -55t-22.5 -69l-380 -1040h840z" />
    <glyph glyph-name="Epsilon" unicode="&#x395;" horiz-adv-x="1030" 
d="M186 0v1434h699v-122h-566v-526h524v-120h-524v-545h598v-121h-731z" />
    <glyph glyph-name="Zeta" unicode="&#x396;" horiz-adv-x="1167" 
d="M249 121h839v-121h-1039v39l851 1273h-783v122h988v-34z" />
    <glyph glyph-name="Eta" unicode="&#x397;" horiz-adv-x="1420" 
d="M1101 0v671h-782v-671h-133v1434h133v-643h782v643h133v-1434h-133z" />
    <glyph glyph-name="Theta" unicode="&#x398;" horiz-adv-x="1551" 
d="M516 655v123h519v-123h-519zM770 -25q-155 0 -279 56.5t-210.5 154.5t-133 230.5t-46.5 284.5q0 168 46.5 307.5t135.5 239t218 155t294 55.5q152 0 273 -54.5t206 -151t130.5 -228.5t45.5 -287q0 -163 -44.5 -302.5t-131 -241.5t-213 -160t-291.5 -58zM781 1337
q-130 0 -230.5 -49.5t-169.5 -134t-105 -198t-36 -241.5q0 -122 32 -233.5t97.5 -197t165 -136.5t234.5 -51q134 0 235.5 46.5t169.5 129t102.5 196.5t34.5 249q0 126 -30.5 239t-95 197.5t-164.5 134t-240 49.5z" />
    <glyph glyph-name="Iota" unicode="&#x399;" horiz-adv-x="505" 
d="M319 1434v-1434h-133v1434h133z" />
    <glyph glyph-name="Kappa" unicode="&#x39a;" horiz-adv-x="1133" 
d="M937 0l-583 671q-24 29 -31 41h-4v-712h-133v1434h133v-675h4q7 11 15 21l17 21l558 633h169l-622 -692l663 -742h-186z" />
    <glyph glyph-name="Lambda" unicode="&#x39b;" horiz-adv-x="1288" 
d="M1097 0l-422 1175q-11 29 -17.5 56l-13.5 57h-4q-11 -55 -31 -113l-423 -1175h-145l534 1434h142l529 -1434h-149z" />
    <glyph glyph-name="Mu" unicode="&#x39c;" horiz-adv-x="1772" 
d="M1455 0v990q0 76 12 245h-4q-14 -45 -25.5 -78t-21.5 -54l-500 -1103h-57l-501 1096q-22 50 -45 141h-4q4 -46 5.5 -105t1.5 -131v-1001h-130v1434h157l487 -1078l29.5 -69.5t26.5 -75.5h6l25.5 73t28.5 71l491 1079h149v-1434h-131z" />
    <glyph glyph-name="Nu" unicode="&#x39d;" horiz-adv-x="1492" 
d="M1168 0l-796 1151l-29.5 45t-23.5 45h-5q2 -18 3.5 -50t1.5 -80v-1111h-133v1434h147l783 -1137l32.5 -50.5l26.5 -43.5h5q-4 33 -6 74t-2 91v1066h134v-1434h-138z" />
    <glyph glyph-name="Xi" unicode="&#x39e;" horiz-adv-x="1044" 
d="M90 1312v122h864v-122h-864zM232 663v120h580v-120h-580zM63 0v126h919v-126h-919z" />
    <glyph glyph-name="Omicron" unicode="&#x39f;" horiz-adv-x="1551" 
d="M770 -25q-155 0 -279 56.5t-210.5 154.5t-133 230.5t-46.5 284.5q0 168 46.5 307.5t135.5 239t218 155t294 55.5q152 0 273 -54.5t206 -151t130.5 -228.5t45.5 -287q0 -163 -44.5 -302.5t-131 -241.5t-213 -160t-291.5 -58zM781 1337q-130 0 -230.5 -49.5t-169.5 -134
t-104.5 -198t-36.5 -241.5q-1 -122 31.5 -233.5t98 -197t165.5 -136.5t234 -51t235.5 46.5t169.5 129t102.5 196.5t34.5 249q0 126 -30.5 239t-95 197.5t-164.5 134t-240 49.5z" />
    <glyph glyph-name="Pi" unicode="&#x3a0;" horiz-adv-x="1440" 
d="M1120 0v1310h-800v-1310h-134v1434h1068v-1434h-134z" />
    <glyph glyph-name="Rho" unicode="&#x3a1;" horiz-adv-x="1130" 
d="M319 558v-558h-133v1434h370q113 0 200 -28t147 -81t91 -130t31 -176q0 -100 -35 -184.5t-100.5 -146t-159.5 -96t-213 -34.5h-198zM319 1312v-632h190q185 0 281 86t96 243q0 303 -354 303h-213z" />
    <glyph glyph-name="Sigma" unicode="&#x3a3;" horiz-adv-x="1057" 
d="M32 0v56l504 683l-443 626v69h857v-122h-659l405 -569l-459 -622h766v-121h-971z" />
    <glyph glyph-name="Tau" unicode="&#x3a4;" horiz-adv-x="1060" 
d="M596 1312v-1312h-133v1312h-413v122h960v-122h-414z" />
    <glyph glyph-name="Upsilon" unicode="&#x3a5;" horiz-adv-x="1119" 
d="M617 537v-537h-133v534l-450 900h151l328 -670q6 -12 16 -36t24 -61h3q6 18 17 42t27 54l343 671h142z" />
    <glyph glyph-name="Phi" unicode="&#x3a6;" horiz-adv-x="1558" 
d="M1455 752q0 -139 -44 -244t-119.5 -175.5t-175.5 -106t-212 -35.5h-61v-206h-128v206h-60q-125 0 -227 40t-174.5 113.5t-112 176.5t-39.5 230q0 129 42 230t116.5 170.5t176 106t220.5 36.5h58v154h128v-154h58q126 0 228.5 -39.5t175 -111t111.5 -171.5t39 -220z
M1322 750q0 98 -29 177.5t-83.5 135t-132.5 85.5t-176 30h-58v-867h61q98 0 175.5 29.5t131.5 86t82.5 138t28.5 185.5zM715 1178h-58q-90 0 -167 -27t-134 -81t-89 -134.5t-32 -187.5q0 -111 31 -193t87 -136.5t133 -81t169 -26.5h60v867z" />
    <glyph glyph-name="Chi" unicode="&#x3a7;" horiz-adv-x="1180" 
d="M967 0l-330 548l-23 41.5t-20 43.5h-5l-20.5 -41t-24.5 -44l-338 -548h-163l467 722l-434 712h162l307 -522q14 -23 26.5 -47.5l25.5 -50.5h4q14 29 27.5 54t26.5 46l312 520h154l-440 -710l448 -724h-162z" />
    <glyph glyph-name="Psi" unicode="&#x3a8;" horiz-adv-x="1589" 
d="M858 519h74q184 0 286 98t102 295v522h131v-526q0 -106 -35 -199t-101.5 -161.5t-163 -108t-219.5 -39.5h-74v-400h-127v400h-75q-124 0 -220.5 39.5t-162.5 108.5t-100.5 161.5t-34.5 198.5v526h131v-522q0 -92 24 -165t72.5 -123.5t121 -77.5t169.5 -27h75v915h127
v-915z" />
    <glyph glyph-name="Omega" unicode="&#x3a9;" horiz-adv-x="1546" 
d="M948 0v118q71 53 136 118.5t115 146.5t79.5 179t29.5 215q0 131 -39 235t-109 176.5t-166.5 111.5t-212.5 39q-121 0 -221 -40t-171 -113.5t-110.5 -176.5t-39.5 -230q0 -114 28 -210.5t77 -178t115 -149t142 -123.5v-118h-499v118h350q-70 49 -133.5 114.5t-112 148
t-77 182.5t-28.5 219q0 156 49.5 281t138 213t212 135t271.5 47q149 0 273 -45t213 -131.5t138.5 -211.5t49.5 -285q0 -112 -26.5 -210t-73.5 -182t-111 -152.5t-139 -121.5h350v-119h-498z" />
    <glyph glyph-name="Iotadieresis" unicode="&#x3aa;" horiz-adv-x="505" 
d="M319 1434v-1434h-133v1434h133zM435 1551q-33 0 -58.5 23.5t-25.5 61.5q0 37 24.5 60.5t57.5 23.5q36 0 62 -24t26 -60t-24.5 -60.5t-61.5 -24.5zM77 1551q-18 0 -33.5 6.5t-27.5 18t-19 27t-7 33.5q0 37 25 60.5t59 23.5q18 0 34 -6.5t28 -17.5t19 -26.5t7 -33.5
q0 -36 -25 -60.5t-60 -24.5z" />
    <glyph glyph-name="Upsilondieresis" unicode="&#x3ab;" horiz-adv-x="1119" 
d="M617 537v-537h-133v534l-450 900h151l328 -670q6 -12 16 -36t24 -61h3q6 18 17 42t27 54l343 671h142zM736 1551q-33 0 -58.5 23.5t-25.5 61.5q0 37 24.5 60.5t57.5 23.5q36 0 62 -24t26 -60t-24.5 -60.5t-61.5 -24.5zM378 1551q-18 0 -33.5 6.5t-27.5 18t-19 27t-7 33.5
q0 37 25 60.5t59 23.5q18 0 34 -6.5t28 -17.5t19 -26.5t7 -33.5q0 -36 -25 -60.5t-60 -24.5z" />
    <glyph glyph-name="alphatonos" unicode="&#x3ac;" horiz-adv-x="1240" 
d="M878 511q-23 94 -51 172.5t-66 135t-88 88t-118 31.5q-77 0 -139 -34t-105 -94.5t-66 -143.5t-23 -181q0 -88 20.5 -161t58 -125t91 -81t119.5 -29q104 0 183 80.5t139 224.5zM1115 -10q-37 0 -65.5 20t-52 61t-43 104t-37.5 148h-4q-40 -90 -85 -155.5t-97 -108
t-112 -63t-129 -20.5q-90 0 -164 37t-126.5 103t-81 158t-28.5 203q0 125 31.5 230t90.5 180.5t145.5 118t195.5 42.5q78 0 139 -28t107.5 -76t79.5 -111.5t57 -134.5h3l110 326h138l-197 -511q27 -130 47.5 -209.5t39.5 -123t38 -57.5t43 -14q13 0 24.5 2t22.5 5v-113
q-23 -6 -41.5 -9.5t-48.5 -3.5zM593 1180h-72l96 366h136z" />
    <glyph glyph-name="epsilontonos" unicode="&#x3ad;" horiz-adv-x="897" 
d="M827 25q-30 -11 -67.5 -20t-80 -16t-87.5 -10.5t-89 -3.5q-104 0 -183 22.5t-132 62t-79.5 94.5t-26.5 121q0 52 20 95.5t55 76.5t82.5 55t101.5 31v4q-42 8 -81.5 28t-70 50t-49.5 68.5t-19 83.5q0 74 31 127t84 87.5t123.5 51t149.5 16.5q35 0 71.5 -4t72 -10.5
t68.5 -15t61 -18.5v-130q-63 30 -136.5 48t-142.5 18q-128 0 -189.5 -43t-61.5 -127q0 -51 29 -86t75.5 -56.5t104 -31t113.5 -9.5q29 0 63 0.5t55 2.5v-117q-19 2 -56.5 2.5t-83.5 0.5q-168 0 -253.5 -48t-85.5 -149q0 -41 18.5 -75.5t56.5 -60t95.5 -40t134.5 -14.5
q80 0 161.5 20t147.5 50v-131v0zM496 1180h-72l96 366h136z" />
    <glyph glyph-name="etatonos" unicode="&#x3ae;" horiz-adv-x="1127" 
d="M855 -414v992q0 86 -14 151.5t-45 110t-79.5 67.5t-116.5 23q-71 0 -128 -28t-97 -75t-61.5 -108t-21.5 -126v-593h-127v703q0 45 -2 90t-6 86.5t-10 78.5t-14 66h130q11 -33 18 -84t7 -100h4q31 61 71 101t85 64t93.5 33.5t96.5 9.5q173 0 259.5 -106.5t86.5 -310.5
v-1045h-129zM581 1180h-72l96 366h136z" />
    <glyph glyph-name="iotatonos" unicode="&#x3af;" horiz-adv-x="532" 
d="M488 6q-26 -9 -52 -13.5t-49 -4.5q-115 0 -168.5 69t-53.5 197v770h127v-768q0 -45 10 -75t26.5 -47.5t37 -24.5t41.5 -7q24 0 43 3.5t38 10.5v-110v0zM239 1180h-72l96 366h136z" />
    <glyph glyph-name="upsilondieresistonos" unicode="&#x3b0;" horiz-adv-x="1148" 
d="M113 1030q60 0 96 -26t54.5 -69.5t24.5 -100.5t6 -120v-255q0 -188 80.5 -279t228.5 -91q68 0 124.5 24t98 71.5t64.5 117.5t23 162q0 147 -36 289t-103 271h141q60 -120 93.5 -260t33.5 -292q0 -117 -31.5 -209.5t-89 -156.5t-138.5 -97.5t-180 -33.5q-108 0 -190 32
t-136.5 92t-82 145t-27.5 191v317q0 89 -21 127t-66 38q-24 0 -53 -7v107q21 7 43 10t43 3zM874 1318q0 -36 -25 -60.5t-61 -24.5q-16 0 -31 6t-27 17.5t-19 27t-7 34.5t7 34.5t18.5 26.5t26.5 17t30 6q36 0 62 -24t26 -60zM547 1189h-71l96 366h135zM414 1318
q0 -36 -25 -60.5t-62 -24.5q-16 0 -31 6t-27 17.5t-19 27t-7 34.5t7 34.5t18.5 26.5t26.5 17t31 6q18 0 34 -6.5t28 -17.5t19 -26.5t7 -33.5z" />
    <glyph glyph-name="alpha" unicode="&#x3b1;" horiz-adv-x="1240" 
d="M878 511q-23 94 -51 172.5t-66 135t-88 88t-118 31.5q-77 0 -139 -34t-105 -94.5t-66 -143.5t-23 -181q0 -88 20.5 -161t58 -125t91 -81t119.5 -29q104 0 183 80.5t139 224.5zM1115 -10q-37 0 -65.5 20t-52 61t-43 104t-37.5 148h-4q-40 -90 -85 -155.5t-97 -108
t-112 -63t-129 -20.5q-90 0 -164 37t-126.5 103t-81 158t-28.5 203q0 125 31.5 230t90.5 180.5t145.5 118t195.5 42.5q78 0 139 -28t107.5 -76t79.5 -111.5t57 -134.5h3l110 326h138l-197 -511q27 -130 47.5 -209.5t39.5 -123t38 -57.5t43 -14q13 0 24.5 2t22.5 5v-113
q-23 -6 -41.5 -9.5t-48.5 -3.5z" />
    <glyph glyph-name="beta" unicode="&#x3b2;" horiz-adv-x="1091" 
d="M1010 398q0 -91 -29.5 -168.5t-84 -134t-132 -88.5t-174.5 -32q-88 0 -163 24.5t-135 59.5v-497h-127v1553q0 98 29 175.5t81 131t124.5 82t158.5 28.5q81 0 146.5 -24t111 -68.5t70 -106.5t24.5 -139q0 -62 -19.5 -119.5t-55.5 -106t-86 -86t-110 -59.5v-4
q91 -19 160 -57t116 -92t71 -123t24 -149zM878 389q0 72 -23.5 133t-72 108t-123.5 79.5t-179 46.5v106q64 11 118.5 38.5t94.5 68.5t63 93.5t23 114.5q0 55 -13.5 99.5t-41.5 76.5t-71 49.5t-101 17.5q-59 0 -107 -20t-82 -60t-52.5 -100t-18.5 -140v-915
q66 -41 139.5 -69.5t155.5 -28.5q67 0 120.5 20.5t91.5 59t58.5 94.5t20.5 128z" />
    <glyph glyph-name="gamma" unicode="&#x3b3;" horiz-adv-x="1063" 
d="M993 953q0 -110 -19 -210t-51.5 -190.5t-76 -172.5t-92 -158t-100 -147l-99.5 -138v-125.5t-0.5 -116t-1.5 -100t-2 -76.5h-138q4 44 6 100t3 119.5t1.5 131.5t0.5 137q-21 105 -62 234.5t-95.5 266t-118.5 270t-130 246.5h149q70 -125 126 -242.5t100.5 -231
t78.5 -223.5t60 -219h4q158 221 242 418t84 386q0 29 -1.5 56t-5.5 56h133q2 -21 3.5 -38.5t1.5 -32.5z" />
    <glyph glyph-name="delta" unicode="&#x3b4;" horiz-adv-x="1190" 
d="M1100 470q0 -112 -36.5 -203.5t-103.5 -156.5t-162 -100t-212 -35q-109 0 -200 35.5t-156.5 98.5t-102 149.5t-36.5 188.5q0 94 33.5 172.5t92 142.5t138.5 113.5t173 85.5q-49 31 -94.5 65.5t-80 74t-55 84.5t-20.5 98q0 62 28 109.5t78 79.5t121 48.5t156 16.5
q89 0 171 -18.5t159 -49.5v-145q-77 46 -161 72t-168 26q-41 0 -85.5 -6.5t-81 -23.5t-60.5 -45t-24 -72q0 -29 12 -56t37.5 -54.5t65 -57t94.5 -62.5q112 -68 201 -131t151 -130t95 -143t33 -171zM969 456q0 73 -24 134t-68 114t-105.5 100t-136.5 93q-77 -28 -150.5 -67
t-130.5 -92t-92 -123.5t-35 -162.5q0 -86 28.5 -154t78 -115t117 -71.5t146.5 -24.5q80 0 148 25.5t118 73t78 116t28 154.5z" />
    <glyph glyph-name="epsilon" unicode="&#x3b5;" horiz-adv-x="897" 
d="M827 25q-30 -11 -67.5 -20t-80 -16t-87.5 -10.5t-89 -3.5q-104 0 -183 22.5t-132 62t-79.5 94.5t-26.5 121q0 52 20 95.5t55 76.5t82.5 55t101.5 31v4q-42 8 -81.5 28t-70 50t-49.5 68.5t-19 83.5q0 74 31 127t84 87.5t123.5 51t149.5 16.5q35 0 71.5 -4t72 -10.5
t68.5 -15t61 -18.5v-130q-63 30 -136.5 48t-142.5 18q-128 0 -189.5 -43t-61.5 -127q0 -51 29 -86t75.5 -56.5t104 -31t113.5 -9.5q29 0 63 0.5t55 2.5v-117q-19 2 -56.5 2.5t-83.5 0.5q-168 0 -253.5 -48t-85.5 -149q0 -41 18.5 -75.5t56.5 -60t95.5 -40t134.5 -14.5
q80 0 161.5 20t147.5 50v-131v0z" />
    <glyph glyph-name="zeta" unicode="&#x3b6;" horiz-adv-x="905" 
d="M895 -146q0 -51 -17.5 -89.5t-45.5 -73.5h-134q35 36 55 67.5t20 70.5q0 34 -14 60.5t-47.5 47t-89 35t-139.5 24.5q-194 24 -300.5 136t-106.5 314q0 121 43.5 240.5t124 239t195.5 238.5t259 239v4h-462v109h603v-109q-122 -107 -235.5 -224.5t-201 -240t-140 -247
t-52.5 -245.5q0 -74 19.5 -129.5t58.5 -95.5t97 -65t136 -38q85 -14 154 -34t118 -51t75.5 -75.5t26.5 -107.5z" />
    <glyph glyph-name="eta" unicode="&#x3b7;" horiz-adv-x="1127" 
d="M855 -414v992q0 86 -14 151.5t-45 110t-79.5 67.5t-116.5 23q-71 0 -128 -28t-97 -75t-61.5 -108t-21.5 -126v-593h-127v703q0 45 -2 90t-6 86.5t-10 78.5t-14 66h130q11 -33 18 -84t7 -100h4q31 61 71 101t85 64t93.5 33.5t96.5 9.5q173 0 259.5 -106.5t86.5 -310.5
v-1045h-129z" />
    <glyph glyph-name="theta" unicode="&#x3b8;" horiz-adv-x="1173" 
d="M1080 768q0 -190 -33.5 -337.5t-98 -248.5t-158 -153.5t-213.5 -52.5q-113 0 -202.5 51t-152 148.5t-96 240t-33.5 326.5q0 188 33 336t98 250t161.5 155.5t223.5 53.5q121 0 209.5 -51t146.5 -149.5t86.5 -241.5t28.5 -327zM948 824q-2 132 -22.5 242.5t-62.5 190
t-108 124t-161 44.5q-87 0 -155 -47t-114.5 -128.5t-71.5 -191t-28 -234.5h723v0zM225 716q1 -159 27.5 -277t74 -196.5t114.5 -117t148 -38.5t146.5 40.5t112.5 120t73.5 197t27.5 271.5h-724z" />
    <glyph glyph-name="iota" unicode="&#x3b9;" horiz-adv-x="532" 
d="M488 6q-26 -9 -52 -13.5t-49 -4.5q-115 0 -168.5 69t-53.5 197v770h127v-768q0 -45 10 -75t26.5 -47.5t37 -24.5t41.5 -7q24 0 43 3.5t38 10.5v-110v0z" />
    <glyph glyph-name="kappa" unicode="&#x3ba;" horiz-adv-x="1073" 
d="M847 0l-388 518l-167 -173v-345h-127v1024h127v-539l310 354l53 60.5t64.5 65t72.5 51.5t77 21q21 0 42 -1t36 -6v-113q-15 4 -29 5t-28 1q-40 0 -92 -42.5t-123 -123.5l-129 -146l462 -611h-161z" />
    <glyph glyph-name="lambda" unicode="&#x3bb;" horiz-adv-x="1020" 
d="M845 0l-307 874l-380 -874h-141l461 1022l-69 204q-13 37 -29.5 69.5t-39 56.5t-51 37.5t-64.5 13.5q-24 0 -51 -4t-56 -12v122q29 5 57 8t56 3q68 0 116 -22t85.5 -66.5t68 -111.5t62.5 -157l420 -1163h-138z" />
    <glyph glyph-name="mu" unicode="&#x3bc;" horiz-adv-x="1156" 
d="M851 178q-47 -98 -125.5 -150t-183.5 -52q-49 0 -87 9t-67 25t-51 39.5t-40 51.5h-4v-539h-128v1462h128v-549q0 -55 3 -109q3 -58 20 -108t48.5 -87t79.5 -58.5t112 -21.5q61 0 112.5 24.5t89.5 70.5t59.5 112t21.5 150v576h128v-758q0 -87 25.5 -124.5t73.5 -37.5
q22 0 44 6v-107q-43 -12 -86 -12q-75 0 -115 46.5t-53 140.5h-5z" />
    <glyph glyph-name="nu" unicode="&#x3bd;" horiz-adv-x="1077" 
d="M435 0l-413 1024h143l358 -899q58 73 113.5 158t98.5 176.5t69.5 185.5t26.5 185q0 57 -7 104t-21 90h139q10 -34 15 -78t5 -95q0 -111 -34 -225t-89.5 -224.5t-125 -212.5t-141.5 -189h-137z" />
    <glyph glyph-name="xi" unicode="&#x3be;" horiz-adv-x="911" 
d="M880 -150q0 -53 -17.5 -96t-45.5 -78h-134q36 36 54.5 72t18.5 76q0 29 -8.5 56t-37 49.5t-82.5 40.5t-145 29q-95 12 -169.5 44.5t-126 84.5t-78.5 121.5t-27 155.5q0 71 23.5 135.5t68 118t107.5 94t142 63.5q-105 30 -166 98.5t-61 164.5q0 68 31 121.5t80 93t111 67
t123 43.5v3h-359v109h591v-110q-85 -16 -165 -42t-142.5 -65t-100.5 -91.5t-38 -120.5q0 -56 27 -96.5t68.5 -67.5t92 -42.5t97.5 -20.5q12 0 24 0.5t27 1.5t35 1.5t48 1.5v-119q-21 2 -45 2h-51q-100 0 -181 -26.5t-137 -71.5t-86.5 -105.5t-30.5 -128.5q0 -58 16.5 -105.5
t53 -84.5t94 -62t139.5 -38q109 -17 179 -41.5t110.5 -58.5t56.5 -77.5t16 -98.5z" />
    <glyph glyph-name="omicron" unicode="&#x3bf;" horiz-adv-x="1174" 
d="M584 -24q-114 0 -204.5 38t-154.5 107.5t-98 166.5t-34 215q0 128 36 229t102.5 171.5t160.5 107.5t210 37q111 0 200 -36.5t151 -105.5t95 -168t33 -225q0 -120 -34.5 -218.5t-98.5 -169.5t-156 -110t-208 -39zM594 937q-84 0 -152 -29t-116.5 -84.5t-74.5 -136
t-26 -182.5q0 -96 26 -173t73.5 -132t115.5 -84.5t152 -29.5q86 0 152 28.5t112 83t69.5 133.5t23.5 180q0 207 -92 316.5t-263 109.5z" />
    <glyph glyph-name="pi" unicode="&#x3c0;" horiz-adv-x="1266" 
d="M953 915v-655q0 -158 119 -158q12 0 31 3t45 11v-110q-26 -8 -51.5 -13t-52.5 -5q-109 0 -164 68t-55 198v661h-430v-646q0 -86 -7 -153t-21 -116h-130q30 92 30 269v646q-121 -3 -240 -78v123q91 64 241 64h903v-109h-218z" />
    <glyph glyph-name="rho" unicode="&#x3c1;" horiz-adv-x="1155" 
d="M1062 535q0 -132 -32 -236t-92 -176t-146.5 -109.5t-195.5 -37.5q-108 0 -186 34.5t-135 94.5h-4v-500h-128v925q0 122 30 218t86.5 163t138.5 102t187 35q117 0 206 -42t149.5 -112.5t91 -163.5t30.5 -195zM928 530q0 86 -23.5 160.5t-67.5 129t-106.5 85.5t-140.5 31
q-83 0 -143.5 -30t-99.5 -84t-57.5 -128.5t-18.5 -162.5v-288q21 -33 54 -61.5t74 -49.5t89 -33t99 -12q162 0 251.5 110.5t89.5 332.5z" />
    <glyph glyph-name="sigma1" unicode="&#x3c2;" horiz-adv-x="942" 
d="M887 -150q0 -53 -17.5 -96t-45.5 -78h-139q36 33 56.5 71.5t20.5 83.5q0 40 -16 68t-49.5 47.5t-85 32t-122.5 21.5q-99 13 -174 51t-125.5 95t-76 130.5t-25.5 157.5q0 141 39.5 254.5t110 194t168 123.5t214.5 43q63 0 121.5 -14t100.5 -36v-136q-51 35 -112 54.5
t-124 19.5q-90 0 -161.5 -40t-121 -107t-76 -155.5t-26.5 -185.5q0 -58 15.5 -104.5t42.5 -83t62.5 -62.5t75.5 -44q30 -13 65.5 -22t74 -16.5t79.5 -16.5t81 -23q93 -31 131.5 -88t38.5 -139z" />
    <glyph glyph-name="sigma" unicode="&#x3c3;" horiz-adv-x="1163" 
d="M886 918q31 -42 57.5 -88.5t45.5 -99t30 -112.5t11 -130q0 -108 -31 -201.5t-90.5 -162.5t-145 -108.5t-195.5 -39.5q-109 0 -197 38t-150 107.5t-95 166.5t-33 214q0 126 31 223t94.5 163.5t160.5 101t228 34.5h536v-106h-257zM898 500q0 68 -11 126.5t-29 110t-42 96.5
t-51 85h-143q-204 0 -300 -107t-96 -315q0 -93 25.5 -168.5t70.5 -129t108 -82.5t138 -29t136 30t104 85t66.5 131t23.5 167z" />
    <glyph glyph-name="tau" unicode="&#x3c4;" horiz-adv-x="997" 
d="M552 918v-655q0 -86 35.5 -123.5t95.5 -37.5q20 0 47 4t52 12v-112q-32 -9 -60.5 -13.5t-57.5 -4.5q-124 0 -182 74t-58 216v640h-155q-61 0 -120.5 -21t-110.5 -55v118q39 29 97 46.5t136 17.5h689v-106h-408z" />
    <glyph glyph-name="upsilon" unicode="&#x3c5;" horiz-adv-x="1148" 
d="M113 1030q60 0 96 -26t54.5 -69.5t24.5 -100.5t6 -120v-255q0 -188 80.5 -279t228.5 -91q68 0 124.5 24t98 71.5t64.5 117.5t23 162q0 147 -36 289t-103 271h141q60 -120 93.5 -260t33.5 -292q0 -117 -31.5 -209.5t-89 -156.5t-138.5 -97.5t-180 -33.5q-108 0 -190 32
t-136.5 92t-82 145t-27.5 191v317q0 89 -21 127t-66 38q-24 0 -53 -7v107q21 7 43 10t43 3z" />
    <glyph glyph-name="phi" unicode="&#x3c6;" horiz-adv-x="1423" 
d="M1331 504q0 -113 -35.5 -209.5t-104 -167.5t-167.5 -111t-226 -40h-28v-457h-121v457h-25q-119 0 -217 35t-168 103t-108.5 167.5t-38.5 228.5q0 80 15 153.5t42.5 138t65.5 120.5t84 102h150q-50 -52 -91.5 -109.5t-71 -121.5t-46 -135.5t-16.5 -151.5q0 -103 31 -181.5
t83 -131.5t120.5 -79.5t143.5 -26.5h47v698q0 128 66.5 195.5t198.5 67.5q94 0 171 -39.5t131.5 -111.5t84.5 -172t30 -221zM1199 511q0 96 -23.5 174.5t-62.5 134t-89.5 86t-104.5 30.5q-77 0 -113 -40t-36 -109v-700h50q84 0 153.5 31t119.5 86.5t78 134t28 172.5z" />
    <glyph glyph-name="chi" unicode="&#x3c7;" horiz-adv-x="1102" 
d="M1012 -479q-47 0 -83 15t-68 50q-20 22 -44.5 61.5t-51 91t-54 112l-55.5 124l-55.5 128l-52.5 122.5l-377 -692h-145l458 821l-186 416q-20 44 -38.5 75t-36.5 50t-36 27.5t-37 8.5q-34 0 -67 -11v120q30 8 81 8q44 0 78 -13.5t63 -43t55.5 -75.5t54.5 -111l144 -332
l299 551h144l-379 -678l245 -544q35 -80 72.5 -122t85.5 -42q17 0 33 2.5t31 8.5v-120q-38 -8 -78 -8z" />
    <glyph glyph-name="psi" unicode="&#x3c8;" horiz-adv-x="1536" 
d="M707 -481v457h-40q-113 0 -207.5 38.5t-163 112t-106.5 180.5t-38 245v472h131v-472q0 -109 31 -195t83.5 -145.5t122 -90.5t147.5 -31h40v1241h120v-1241h41q77 0 146.5 30.5t122.5 89.5t84.5 145t31.5 197v472h131v-471q0 -137 -39.5 -244.5t-108.5 -181.5
t-163.5 -112.5t-204.5 -38.5h-41v-457h-120z" />
    <glyph glyph-name="omega" unicode="&#x3c9;" horiz-adv-x="1655" 
d="M1536 459q0 -111 -27 -200.5t-78.5 -152t-126 -96.5t-170.5 -34q-55 0 -101.5 15.5t-84.5 44t-68 67.5t-51 86h-4q-21 -46 -51.5 -85t-69.5 -67.5t-86.5 -44.5t-102.5 -16q-96 0 -170 34.5t-124 97.5t-76 152.5t-26 198.5q0 75 10 148t27.5 144.5t40.5 140t49 132.5h141
q-29 -67 -54 -139.5t-43.5 -145.5t-29 -145t-10.5 -140q0 -88 18.5 -156t52.5 -114t82 -70t106 -24q125 0 190 97.5t65 283.5v279h128v-279q0 -195 67.5 -288t186.5 -93q58 0 105.5 25t81.5 72t52.5 114.5t18.5 152.5q0 68 -10.5 140t-28.5 145t-43 145.5t-54 139.5h139
q26 -64 49.5 -132.5t41 -140t28 -145t10.5 -147.5z" />
    <glyph glyph-name="iotadieresis" unicode="&#x3ca;" horiz-adv-x="532" 
d="M488 6q-26 -9 -52 -13.5t-49 -4.5q-115 0 -168.5 69t-53.5 197v770h127v-768q0 -45 10 -75t26.5 -47.5t37 -24.5t41.5 -7q24 0 43 3.5t38 10.5v-110v0zM421 1196q-33 0 -58.5 23.5t-25.5 61.5q0 37 24.5 60.5t57.5 23.5q36 0 62 -24t26 -60t-24.5 -60.5t-61.5 -24.5z
M63 1196q-18 0 -33.5 6.5t-27.5 18t-19 27t-7 33.5q0 37 25 60.5t59 23.5q18 0 34 -6.5t28 -17.5t19 -26.5t7 -33.5q0 -36 -25 -60.5t-60 -24.5z" />
    <glyph glyph-name="upsilondieresis" unicode="&#x3cb;" horiz-adv-x="1148" 
d="M113 1030q60 0 96 -26t54.5 -69.5t24.5 -100.5t6 -120v-255q0 -188 80.5 -279t228.5 -91q68 0 124.5 24t98 71.5t64.5 117.5t23 162q0 147 -36 289t-103 271h141q60 -120 93.5 -260t33.5 -292q0 -117 -31.5 -209.5t-89 -156.5t-138.5 -97.5t-180 -33.5q-108 0 -190 32
t-136.5 92t-82 145t-27.5 191v317q0 89 -21 127t-66 38q-24 0 -53 -7v107q21 7 43 10t43 3zM737 1196q-33 0 -58.5 23.5t-25.5 61.5q0 37 24.5 60.5t57.5 23.5q36 0 62 -24t26 -60t-24.5 -60.5t-61.5 -24.5zM379 1196q-18 0 -33.5 6.5t-27.5 18t-19 27t-7 33.5q0 37 25 60.5
t59 23.5q18 0 34 -6.5t28 -17.5t19 -26.5t7 -33.5q0 -36 -25 -60.5t-60 -24.5z" />
    <glyph glyph-name="omicrontonos" unicode="&#x3cc;" horiz-adv-x="1174" 
d="M584 -24q-114 0 -204.5 38t-154.5 107.5t-98 166.5t-34 215q0 128 36 229t102.5 171.5t160.5 107.5t210 37q111 0 200 -36.5t151 -105.5t95 -168t33 -225q0 -120 -34.5 -218.5t-98.5 -169.5t-156 -110t-208 -39zM594 937q-84 0 -152 -29t-116.5 -84.5t-74.5 -136
t-26 -182.5q0 -96 26 -173t73.5 -132t115.5 -84.5t152 -29.5q86 0 152 28.5t112 83t69.5 133.5t23.5 180q0 207 -92 316.5t-263 109.5zM573 1180h-72l96 366h136z" />
    <glyph glyph-name="upsilontonos" unicode="&#x3cd;" horiz-adv-x="1148" 
d="M113 1030q60 0 96 -26t54.5 -69.5t24.5 -100.5t6 -120v-255q0 -188 80.5 -279t228.5 -91q68 0 124.5 24t98 71.5t64.5 117.5t23 162q0 147 -36 289t-103 271h141q60 -120 93.5 -260t33.5 -292q0 -117 -31.5 -209.5t-89 -156.5t-138.5 -97.5t-180 -33.5q-108 0 -190 32
t-136.5 92t-82 145t-27.5 191v317q0 89 -21 127t-66 38q-24 0 -53 -7v107q21 7 43 10t43 3zM561 1180h-72l96 366h136z" />
    <glyph glyph-name="omegatonos" unicode="&#x3ce;" horiz-adv-x="1655" 
d="M1536 459q0 -111 -27 -200.5t-78.5 -152t-126 -96.5t-170.5 -34q-55 0 -101.5 15.5t-84.5 44t-68 67.5t-51 86h-4q-21 -46 -51.5 -85t-69.5 -67.5t-86.5 -44.5t-102.5 -16q-96 0 -170 34.5t-124 97.5t-76 152.5t-26 198.5q0 75 10 148t27.5 144.5t40.5 140t49 132.5h141
q-29 -67 -54 -139.5t-43.5 -145.5t-29 -145t-10.5 -140q0 -88 18.5 -156t52.5 -114t82 -70t106 -24q125 0 190 97.5t65 283.5v279h128v-279q0 -195 67.5 -288t186.5 -93q58 0 105.5 25t81.5 72t52.5 114.5t18.5 152.5q0 68 -10.5 140t-28.5 145t-43 145.5t-54 139.5h139
q26 -64 49.5 -132.5t41 -140t28 -145t10.5 -147.5zM815 1180h-72l96 366h136z" />
    <glyph glyph-name="afii10023" unicode="&#x401;" horiz-adv-x="1030" 
d="M186 0v1434h699v-122h-566v-526h524v-120h-524v-545h598v-121h-731zM731 1551q-33 0 -58.5 23.5t-25.5 61.5q0 37 24.5 60.5t57.5 23.5q36 0 62 -24t26 -60t-24.5 -60.5t-61.5 -24.5zM373 1551q-18 0 -33.5 6.5t-27.5 18t-19 27t-7 33.5q0 37 25 60.5t59 23.5
q18 0 34 -6.5t28 -17.5t19 -26.5t7 -33.5q0 -36 -25 -60.5t-60 -24.5z" />
    <glyph glyph-name="afii10051" unicode="&#x402;" horiz-adv-x="1421" 
d="M1297 381q0 -88 -24 -161.5t-71 -127t-118 -83.5t-166 -30q-45 0 -87 6.5t-74 17.5v127q32 -14 73 -23.5t86 -9.5q61 0 106.5 22.5t75.5 60.5t45 89.5t15 109.5q0 72 -22.5 130t-66 99t-108 63t-147.5 22h-265v-693h-133v1312h-366v122h960v-122h-461v-500h274
q106 0 193 -27.5t149.5 -82t97 -135t34.5 -186.5z" />
    <glyph glyph-name="afii10052" unicode="&#x403;" horiz-adv-x="951" 
d="M320 1310v-1310h-134v1434h709v-124h-575zM553 1551h-108l228 328h135z" />
    <glyph glyph-name="afii10053" unicode="&#x404;" horiz-adv-x="1267" 
d="M769 -24q-149 0 -272 51.5t-211 145.5t-136.5 225t-48.5 291q0 180 54.5 322.5t149.5 242t224 152t277 52.5q110 0 192.5 -16t148.5 -40v-142q-72 35 -156 56t-187 21q-115 0 -212.5 -38t-171.5 -110t-120 -176t-57 -236h668v-122h-670q6 -137 50.5 -241.5t117 -175
t168 -106.5t202.5 -36q112 0 204 23t164 64v-130q-67 -32 -160 -54.5t-218 -22.5z" />
    <glyph glyph-name="afii10054" unicode="&#x405;" horiz-adv-x="1053" 
d="M130 210q36 -27 79.5 -48.5t89 -36t91.5 -22t88 -7.5q163 0 244 63t81 181q0 57 -19 99.5t-59 79.5t-101 73.5l-144 82.5q-92 50 -157.5 94.5t-107 91t-61 100.5t-19.5 123q0 87 37 156t100 117.5t147.5 74.5t180.5 26q169 0 283 -47v-147q-127 73 -298 73
q-64 0 -120.5 -15.5t-99 -45.5t-67 -74.5t-24.5 -103.5q0 -56 16.5 -96.5t53 -76.5t96 -71.5t145.5 -81.5q90 -48 157 -93.5t111.5 -95t66.5 -105t22 -123.5q0 -94 -35 -165.5t-98 -118.5t-150 -71t-191 -24q-34 0 -81 5.5t-95 16t-91.5 25t-70.5 31.5v156z" />
    <glyph glyph-name="afii10055" unicode="&#x406;" horiz-adv-x="505" 
d="M319 1434v-1434h-133v1434h133z" />
    <glyph glyph-name="afii10056" unicode="&#x407;" horiz-adv-x="505" 
d="M319 1434v-1434h-133v1434h133zM435 1551q-33 0 -58.5 23.5t-25.5 61.5q0 37 24.5 60.5t57.5 23.5q36 0 62 -24t26 -60t-24.5 -60.5t-61.5 -24.5zM77 1551q-18 0 -33.5 6.5t-27.5 18t-19 27t-7 33.5q0 37 25 60.5t59 23.5q18 0 34 -6.5t28 -17.5t19 -26.5t7 -33.5
q0 -36 -25 -60.5t-60 -24.5z" />
    <glyph glyph-name="afii10057" unicode="&#x408;" horiz-adv-x="697" 
d="M521 504q0 -268 -99 -398t-280 -130q-35 0 -66 4.5t-57 14.5v131q56 -30 125 -30q127 0 185.5 100t58.5 308v930h133v-930z" />
    <glyph glyph-name="afii10058" unicode="&#x409;" horiz-adv-x="2002" 
d="M1031 0v1311h-426l-32 -239.5l-31 -221t-29.5 -194.5t-27.5 -160q-23 -123 -49.5 -219t-65 -162t-94 -100.5t-136.5 -34.5q-36 0 -64.5 4.5t-52.5 12.5v129q47 -25 103 -25q70 0 117 68.5t82 215.5q18 74 38.5 183.5t42.5 245t44 293.5l44 327h670v-623h299
q96 0 174.5 -24t134.5 -72t86.5 -121.5t30.5 -172.5q0 -91 -30 -168.5t-87.5 -133.5t-140.5 -87.5t-189 -31.5h-411zM1750 412q0 145 -84.5 211.5t-248.5 66.5h-253v-569h256q84 0 146 21t103 59.5t61 92t20 118.5z" />
    <glyph glyph-name="afii10059" unicode="&#x40a;" horiz-adv-x="2035" 
d="M1923 421q0 -92 -30 -169.5t-87.5 -133.5t-141 -87t-189.5 -31h-410v689h-746v-689h-133v1434h133v-624h746v624h133v-623h299q95 0 173.5 -24t134.5 -72.5t87 -121.5t31 -172zM1784 412q0 145 -84.5 211.5t-248.5 66.5h-253v-569h256q83 0 145 21t103 59.5t61.5 92
t20.5 118.5z" />
    <glyph glyph-name="afii10060" unicode="&#x40b;" horiz-adv-x="1450" 
d="M1187 0v386q0 155 -72.5 237.5t-230.5 82.5h-288v-706h-133v1312h-413v122h960v-122h-414v-487h291q105 0 186 -26t135.5 -79.5t83 -136t28.5 -195.5v-388h-133z" />
    <glyph glyph-name="afii10061" unicode="&#x40c;" horiz-adv-x="1133" 
d="M937 0l-583 671q-24 29 -31 41h-4v-712h-133v1434h133v-675h4q7 11 15 21l17 21l558 633h169l-622 -692l663 -742h-186zM628 1551h-108l228 328h135z" />
    <glyph glyph-name="afii10062" unicode="&#x40e;" horiz-adv-x="1130" 
d="M681 405q-48 -110 -95.5 -191t-100 -134t-112.5 -79t-132 -26q-48 0 -89 8t-73 22v138q38 -22 78.5 -34.5t76.5 -12.5q49 0 89.5 19t76.5 57t70 94t70 131l-480 1037h151l351 -789q8 -17 20.5 -47.5l26.5 -64.5h3q11 29 23 57l22 51l331 793h142zM601 1648q46 0 86 15
t70.5 42t50 63t23.5 78h130q-9 -62 -37.5 -116t-74.5 -93.5t-108.5 -62t-140.5 -22.5t-139.5 22.5t-105 62t-69 93.5t-32.5 116h130q4 -44 19.5 -80.5t42.5 -62.5t65.5 -40.5t89.5 -14.5z" />
    <glyph glyph-name="afii10145" unicode="&#x40f;" horiz-adv-x="1420" 
d="M770 0v-384h-125v384h-459v1434h133v-1313h782v1313h133v-1434h-464z" />
    <glyph glyph-name="afii10017" unicode="&#x410;" horiz-adv-x="1303" 
d="M1115 0l-158 424h-615l-154 -424h-148l546 1434h134l543 -1434h-148zM678 1183q-7 19 -14.5 44t-12.5 57h-4q-6 -32 -13.5 -57t-14.5 -44l-232 -638h525z" />
    <glyph glyph-name="afii10018" unicode="&#x411;" horiz-adv-x="1136" 
d="M1045 421q0 -92 -30.5 -169.5t-88 -133.5t-140.5 -87t-189 -31h-411v1434h743v-122h-610v-501h299q96 0 175 -24t135 -73t86.5 -122t30.5 -171zM905 412q0 145 -84.5 211.5t-248.5 66.5h-253v-569h256q84 0 146 21t103 59t61 91.5t20 119.5z" />
    <glyph glyph-name="afii10019" unicode="&#x412;" horiz-adv-x="1144" 
d="M186 0v1434h392q89 0 160.5 -24t122 -67.5t77.5 -104.5t27 -134q0 -62 -17 -116t-49 -98.5t-78.5 -77t-105.5 -51.5v-4q72 -7 131 -35t101 -73t65 -105.5t23 -132.5q0 -91 -33 -166.5t-92.5 -130t-141.5 -84.5t-181 -30h-401zM319 1312v-509h186q73 0 132 19t101 55
t64.5 87t22.5 115q0 233 -290 233h-216zM319 683v-562h247q159 0 244.5 74.5t85.5 211.5q0 276 -375 276h-202z" />
    <glyph glyph-name="afii10020" unicode="&#x413;" horiz-adv-x="951" 
d="M320 1310v-1310h-134v1434h709v-124h-575z" />
    <glyph glyph-name="afii10021" unicode="&#x414;" horiz-adv-x="1385" 
d="M1216 -384v384h-1071v-384h-128v505h114q48 90 92.5 193.5t84.5 214.5t73.5 227t58 232t40 229t18.5 217h646v-1313h197v-505h-125zM1011 1312h-396q-4 -80 -19 -176.5t-39 -202t-55 -215t-67.5 -215t-76.5 -203t-82 -179.5h735v1191z" />
    <glyph glyph-name="afii10022" unicode="&#x415;" horiz-adv-x="1030" 
d="M186 0v1434h699v-122h-566v-526h524v-120h-524v-545h598v-121h-731z" />
    <glyph glyph-name="afii10024" unicode="&#x416;" horiz-adv-x="1735" 
d="M1553 0l-585 671q-9 10 -17 20t-14 21h-5v-712h-128v712h-4l-15.5 -21.5t-15.5 -19.5l-586 -671h-183l662 741l-621 693h168l559 -631q8 -9 16.5 -20t15.5 -22h4v673h128v-673h5q8 13 16.5 23.5l15.5 18.5l558 631h167l-620 -693l661 -741h-182z" />
    <glyph glyph-name="afii10025" unicode="&#x417;" horiz-adv-x="1105" 
d="M992 399q0 -88 -33.5 -165.5t-98 -134.5t-159.5 -90t-218 -33q-121 0 -214.5 24t-159.5 66v144q84 -62 182 -91.5t196 -29.5q87 0 155.5 23t116 63t72 94.5t24.5 117.5q0 153 -104.5 226.5t-303.5 73.5h-139v111h118q87 0 156.5 19.5t118 57t74 91.5t25.5 122
q0 55 -19 101.5t-55.5 80.5t-90 53.5t-123.5 19.5q-91 0 -176 -28t-160 -80v134q73 40 157.5 64.5t189.5 24.5q98 0 175.5 -26t130.5 -72t81 -109.5t28 -138.5q0 -140 -72 -230.5t-212 -127.5v-4q82 -7 145 -38t106 -78.5t65 -108t22 -126.5z" />
    <glyph glyph-name="afii10026" unicode="&#x418;" horiz-adv-x="1493" 
d="M1172 0v1079q0 49 1.5 91.5t4.5 70.5h-5q-9 -21 -24.5 -46.5t-27.5 -43.5l-796 -1151h-139v1434h133v-1066q0 -53 -1.5 -96t-4.5 -69h4q11 20 27 45.5t32 48.5l784 1137h146v-1434h-134z" />
    <glyph glyph-name="afii10027" unicode="&#x419;" horiz-adv-x="1493" 
d="M1172 0v1079q0 49 1.5 91.5t4.5 70.5h-5q-9 -21 -24.5 -46.5t-27.5 -43.5l-796 -1151h-139v1434h133v-1066q0 -53 -1.5 -96t-4.5 -69h4q11 20 27 45.5t32 48.5l784 1137h146v-1434h-134zM748 1634q46 0 86 15t70.5 42t50 63t23.5 78h130q-9 -62 -37.5 -116t-74.5 -93.5
t-108.5 -62t-140.5 -22.5t-139.5 22.5t-105 62t-69 93.5t-32.5 116h130q4 -44 19.5 -80.5t42.5 -62.5t65.5 -40.5t89.5 -14.5z" />
    <glyph glyph-name="afii10028" unicode="&#x41a;" horiz-adv-x="1133" 
d="M937 0l-583 671q-24 29 -31 41h-4v-712h-133v1434h133v-675h4q7 11 15 21l17 21l558 633h169l-622 -692l663 -742h-186z" />
    <glyph glyph-name="afii10029" unicode="&#x41b;" horiz-adv-x="1350" 
d="M1031 0v1311h-426q-15 -121 -31 -235l-31 -216.5l-29 -191t-27 -158.5q-23 -126 -49 -225t-65 -166.5t-94.5 -103t-138.5 -35.5q-36 0 -64.5 4.5t-52.5 12.5v129q47 -25 103 -25q46 0 79.5 30t62.5 85q22 42 48.5 146t55.5 261t60 362t62 449h670v-1434h-133z" />
    <glyph glyph-name="afii10030" unicode="&#x41c;" horiz-adv-x="1772" 
d="M1455 0v990q0 76 12 245h-4q-14 -45 -25.5 -78t-21.5 -54l-500 -1103h-57l-501 1096q-22 50 -45 141h-4q4 -46 5.5 -105t1.5 -131v-1001h-130v1434h157l487 -1078l29.5 -69.5t26.5 -75.5h6l25.5 73t28.5 71l491 1079h149v-1434h-131z" />
    <glyph glyph-name="afii10031" unicode="&#x41d;" horiz-adv-x="1420" 
d="M1101 0v671h-782v-671h-133v1434h133v-643h782v643h133v-1434h-133z" />
    <glyph glyph-name="afii10032" unicode="&#x41e;" horiz-adv-x="1551" 
d="M770 -25q-155 0 -279 56.5t-210.5 154.5t-133 230.5t-46.5 284.5q0 168 46.5 307.5t135.5 239t218 155t294 55.5q152 0 273 -54.5t206 -151t130.5 -228.5t45.5 -287q0 -163 -44.5 -302.5t-131 -241.5t-213 -160t-291.5 -58zM781 1337q-130 0 -230.5 -49.5t-169.5 -134
t-104.5 -198t-36.5 -241.5q-1 -122 31.5 -233.5t98 -197t165.5 -136.5t234 -51t235.5 46.5t169.5 129t102.5 196.5t34.5 249q0 126 -30.5 239t-95 197.5t-164.5 134t-240 49.5z" />
    <glyph glyph-name="afii10033" unicode="&#x41f;" horiz-adv-x="1420" 
d="M1101 0v1314h-782v-1314h-133v1434h1048v-1434h-133z" />
    <glyph glyph-name="afii10034" unicode="&#x420;" horiz-adv-x="1130" 
d="M319 558v-558h-133v1434h370q113 0 200 -28t147 -81t91 -130t31 -176q0 -100 -35 -184.5t-100.5 -146t-159.5 -96t-213 -34.5h-198zM319 1312v-632h190q185 0 281 86t96 243q0 303 -354 303h-213z" />
    <glyph glyph-name="afii10035" unicode="&#x421;" horiz-adv-x="1270" 
d="M1150 53q-166 -78 -379 -78q-152 0 -276 53.5t-211.5 148.5t-135 226t-47.5 286q0 163 50.5 303.5t144.5 244t227.5 162.5t299.5 59q183 0 327 -56v-142q-154 77 -329 77q-139 0 -247 -48t-182 -133.5t-113 -202t-39 -254.5q0 -124 35 -233.5t103.5 -191.5t170.5 -130
t237 -48q207 0 364 87v-130z" />
    <glyph glyph-name="afii10036" unicode="&#x422;" horiz-adv-x="1060" 
d="M596 1312v-1312h-133v1312h-413v122h960v-122h-414z" />
    <glyph glyph-name="afii10037" unicode="&#x423;" horiz-adv-x="1130" 
d="M681 405q-48 -110 -95.5 -191t-100 -134t-112.5 -79t-132 -26q-48 0 -89 8t-73 22v138q38 -22 78.5 -34.5t76.5 -12.5q49 0 89.5 19t76.5 57t70 94t70 131l-480 1037h151l351 -789q8 -17 20.5 -47.5l26.5 -64.5h3q11 29 23 57l22 51l331 793h142z" />
    <glyph glyph-name="afii10038" unicode="&#x424;" horiz-adv-x="1466" 
d="M1371 755q0 -115 -39.5 -217.5t-111 -179t-171 -121.5t-219.5 -45h-33v-202h-127v202h-34q-120 0 -219.5 44t-171 120.5t-111 179t-39.5 219.5q0 111 39.5 209t111 171t171.5 115.5t221 42.5h32v181h127v-181h31q122 0 222.5 -41.5t171.5 -114t110 -171t39 -211.5z
M1231 753q0 96 -29.5 174t-82.5 133.5t-127 86t-164 30.5h-31v-866h33q89 0 163 31.5t127 89.5t82 139.5t29 181.5zM670 1177h-32q-89 0 -163 -31t-127.5 -87t-83 -134t-29.5 -172q0 -101 29.5 -183t82.5 -139.5t127 -88.5t162 -31h34v866z" />
    <glyph glyph-name="afii10039" unicode="&#x425;" horiz-adv-x="1180" 
d="M967 0l-330 548l-23 41.5t-20 43.5h-5l-20.5 -41t-24.5 -44l-338 -548h-163l467 722l-434 712h162l307 -522q14 -23 26.5 -47.5l25.5 -50.5h4q14 29 27.5 54t26.5 46l312 520h154l-440 -710l448 -724h-162z" />
    <glyph glyph-name="afii10040" unicode="&#x426;" horiz-adv-x="1477" 
d="M1295 -384v384h-1109v1434h133v-1313h782v1313h133v-1313h187v-505h-126z" />
    <glyph glyph-name="afii10041" unicode="&#x427;" horiz-adv-x="1298" 
d="M979 0v647q-115 -53 -224 -84t-216 -31q-94 0 -164 25.5t-116.5 72.5t-70 113.5t-23.5 149.5v541h133v-530q0 -58 16.5 -105t48.5 -80t80 -50.5t112 -17.5q96 0 203 28t221 79v676h133v-1434h-133z" />
    <glyph glyph-name="afii10042" unicode="&#x428;" horiz-adv-x="1858" 
d="M186 0v1434h133v-1313h542v1313h134v-1313h543v1313h134v-1434h-1486z" />
    <glyph glyph-name="afii10043" unicode="&#x429;" horiz-adv-x="1916" 
d="M1734 -384v384h-1548v1434h133v-1313h542v1313h134v-1313h543v1313h134v-1313h188v-505h-126z" />
    <glyph glyph-name="afii10044" unicode="&#x42a;" horiz-adv-x="1434" 
d="M1323 421q0 -91 -30 -168t-87.5 -133.5t-140.5 -88t-190 -31.5h-411v1311h-413v123h546v-623h300q95 0 173.5 -24t134.5 -72.5t87 -121.5t31 -172zM1184 412q0 145 -84.5 211.5t-248.5 66.5h-254v-569h257q83 0 145 21t103 59.5t61.5 92t20.5 118.5z" />
    <glyph glyph-name="afii10045" unicode="&#x42b;" horiz-adv-x="1573" 
d="M1254 0v1434h133v-1434h-133zM1045 421q0 -92 -30.5 -169.5t-88 -133.5t-140.5 -87t-189 -31h-411v1434h133v-623h299q96 0 175 -24t135 -73t86.5 -122t30.5 -171zM905 412q0 145 -84.5 211.5t-248.5 66.5h-253v-569h256q84 0 146 21t103 59t61 91.5t20 119.5z" />
    <glyph glyph-name="afii10046" unicode="&#x42c;" horiz-adv-x="1157" 
d="M1045 421q0 -92 -30.5 -169.5t-88 -133.5t-140.5 -87t-189 -31h-411v1434h133v-623h299q96 0 175 -24t135 -73t86.5 -122t30.5 -171zM905 412q0 145 -84.5 211.5t-248.5 66.5h-253v-569h256q84 0 146 21t103 59t61 91.5t20 119.5z" />
    <glyph glyph-name="afii10047" unicode="&#x42d;" horiz-adv-x="1261" 
d="M1160 703q0 -158 -49.5 -291.5t-139 -230t-213.5 -151t-274 -54.5q-62 0 -115 6t-98.5 16.5t-84.5 24t-72 29.5v131q72 -41 164.5 -64t204.5 -23q107 0 202 35.5t167 106t116.5 175t51.5 242.5h-670v122h668q-11 125 -53.5 228.5t-114 177t-170 114t-221.5 40.5
q-103 0 -189.5 -22.5t-155.5 -54.5v136q66 25 152.5 43.5t196.5 18.5q148 0 275.5 -50.5t221 -147t147 -237t53.5 -320.5z" />
    <glyph glyph-name="afii10048" unicode="&#x42e;" horiz-adv-x="2036" 
d="M1935 737q0 -184 -47.5 -326t-133.5 -238.5t-205.5 -146.5t-264.5 -50q-149 0 -267 53.5t-200.5 148t-126.5 224.5t-45 283h-326v-685h-133v1434h133v-628h331q13 146 63 266.5t134 206t200.5 132.5t261.5 47q143 0 258.5 -53t197 -148.5t126 -228t44.5 -291.5zM1796 717
q0 152 -35.5 268t-100.5 194t-157.5 118t-206.5 40t-208.5 -43t-162 -123.5t-104.5 -195.5t-37 -258q0 -145 34.5 -260.5t99 -195.5t156.5 -122.5t208 -42.5q117 0 212 40.5t162 119.5t103.5 195t36.5 266z" />
    <glyph glyph-name="afii10049" unicode="&#x42f;" horiz-adv-x="1181" 
d="M58 0l241 444q24 45 46 80t44.5 62t47 46t52.5 31v4q-76 17 -136.5 51.5t-103 84t-65.5 113.5t-23 140q0 94 35.5 165t94.5 118t134.5 71t156.5 24h413v-1434h-133v624h-158q-45 0 -81.5 -10.5t-68.5 -35t-62 -65.5t-62 -102l-216 -411h-156zM613 1312
q-152 0 -232.5 -71.5t-80.5 -196.5q0 -69 23.5 -124t66 -94t102.5 -60t132 -21h238v567h-249z" />
    <glyph glyph-name="afii10065" unicode="&#x430;" horiz-adv-x="1026" 
d="M755 0v182h-4q-50 -98 -136.5 -152t-195.5 -54q-74 0 -133.5 21t-101 59.5t-64 92.5t-22.5 119q0 139 86 221.5t260 107.5l311 45q0 295 -229 295q-179 0 -332 -131v140q32 23 72.5 41.5t85.5 32t92.5 21t92.5 7.5q171 0 258.5 -96t87.5 -286v-666h-128zM491 497
q-69 -10 -118 -25t-81 -40.5t-47 -63t-15 -92.5q0 -41 14.5 -76t42 -60.5t67 -39.5t89.5 -14q68 0 125 26t98.5 72t65 110t23.5 139v101z" />
    <glyph glyph-name="afii10066" unicode="&#x431;" horiz-adv-x="1156" 
d="M1062 492q0 -103 -29 -196.5t-87 -164.5t-144.5 -113t-201.5 -42q-116 0 -204.5 43t-148.5 125t-90.5 201t-30.5 271q0 245 44 409t121 251q42 48 91 78.5t108 50.5t129 34t153 29q45 8 88.5 19.5t87.5 36.5v-126q-21 -14 -56 -26t-81 -20q-50 -8 -98 -16.5t-91 -18
t-80 -20t-64 -23.5q-89 -41 -144 -154t-70 -315h4q26 44 62.5 79.5t81.5 61.5t98.5 40t113.5 14q106 0 188 -38.5t137.5 -107t84 -161.5t28.5 -201zM927 478q0 93 -22 168.5t-64 128.5t-103.5 82t-140.5 29q-55 0 -105 -15.5t-92 -44.5t-76.5 -69t-60.5 -90q0 -26 -0.5 -59
t-0.5 -65q0 -90 21.5 -173t64 -146t107 -100.5t150.5 -37.5q77 0 136.5 31t101 84t63 124.5t21.5 152.5z" />
    <glyph glyph-name="afii10067" unicode="&#x432;" horiz-adv-x="1033" 
d="M933 294q0 -63 -24 -116.5t-67 -93t-102 -62t-129 -22.5h-446v1024h417q77 0 135 -18.5t97 -51.5t59 -78.5t20 -99.5q0 -97 -50 -160.5t-144 -83.5q117 -14 175.5 -76.5t58.5 -161.5zM763 757q0 34 -11 62.5t-34.5 49t-60.5 32t-89 11.5h-275v-330h253q59 0 100 13
t67 36.5t38 55.5t12 70zM803 293q0 40 -13.5 72.5t-43 56t-75.5 36t-111 12.5h-267v-358h295q108 0 161.5 48t53.5 133z" />
    <glyph glyph-name="afii10068" unicode="&#x433;" horiz-adv-x="739" 
d="M293 912v-912h-128v1024h534v-112h-406z" />
    <glyph glyph-name="afii10069" unicode="&#x434;" horiz-adv-x="1097" 
d="M933 -321v321h-790v-321h-112v432h91q66 96 116.5 203.5t84.5 223t52 238t20 248.5h494v-913h155v-432h-111zM761 912h-253q-15 -211 -75.5 -416t-172.5 -385h501v801z" />
    <glyph glyph-name="afii10070" unicode="&#x435;" horiz-adv-x="1052" 
d="M226 489q1 -94 25 -169t69 -127t109.5 -79.5t145.5 -27.5q173 0 327 121v-126q-147 -105 -356 -105q-103 0 -187 36t-143 104.5t-91 168.5t-32 228q0 115 35 213t97 169.5t147 112t186 40.5q99 0 175 -34.5t127.5 -98.5t78.5 -156t27 -206v-64h-740zM834 601
q-3 160 -76 248t-203 88q-65 0 -120.5 -23t-97.5 -66.5t-69.5 -106t-38.5 -140.5h605z" />
    <glyph glyph-name="afii10072" unicode="&#x436;" horiz-adv-x="1445" 
d="M1258 0l-470 504h-4v-504h-124v504h-4l-470 -504h-174l510 526l-486 498h164l456 -484h4v484h124v-484h4l457 484h165l-488 -498l511 -526h-175z" />
    <glyph glyph-name="afii10073" unicode="&#x437;" horiz-adv-x="924" 
d="M835 283q0 -65 -25.5 -121t-78.5 -97.5t-134 -65.5t-192 -24q-47 0 -93 4.5t-87.5 12.5t-78 19t-63.5 25v128q69 -38 151.5 -57.5t166.5 -19.5t142.5 14.5t94.5 40t52 61t16 77.5q0 104 -82.5 148t-234.5 44h-120v111h111q141 0 210 44.5t69 138.5q0 76 -62 123.5
t-185 47.5q-79 0 -158 -20.5t-151 -55.5v122q72 28 154 47t168 19q95 0 163.5 -20t113 -55.5t66 -85t21.5 -108.5q0 -94 -55.5 -158.5t-156.5 -84.5v-5q60 -4 108 -24t81.5 -53t51 -77t17.5 -95z" />
    <glyph glyph-name="afii10074" unicode="&#x438;" horiz-adv-x="1159" 
d="M874 0v836l-14 -23t-14 -22l-564 -791h-117v1024h121v-828q5 14 14.5 31.5t23.5 37.5l548 759h122v-1024h-120z" />
    <glyph glyph-name="afii10075" unicode="&#x439;" horiz-adv-x="1159" 
d="M874 0v836l-14 -23t-14 -22l-564 -791h-117v1024h121v-828q5 14 14.5 31.5t23.5 37.5l548 759h122v-1024h-120zM582 1300q46 0 86 15t70.5 42t50 63t23.5 78h130q-9 -62 -37.5 -116t-74.5 -93.5t-108.5 -62t-140.5 -22.5t-139.5 22.5t-105 62t-69 93.5t-32.5 116h130
q4 -44 19.5 -80.5t42.5 -62.5t65.5 -40.5t89.5 -14.5z" />
    <glyph glyph-name="afii10076" unicode="&#x43a;" horiz-adv-x="954" 
d="M763 0l-466 497h-4v-497h-128v1024h128v-479h4l452 479h167l-485 -497l512 -527h-180z" />
    <glyph glyph-name="afii10077" unicode="&#x43b;" horiz-adv-x="1052" 
d="M760 0v912h-269q-18 -238 -49 -412.5t-78.5 -288.5t-113 -169.5t-154.5 -55.5q-20 0 -39 3t-34 8v111q13 -6 31.5 -9.5t34.5 -3.5q61 0 108.5 59.5t83 176.5t60.5 291t41 402h505v-1024h-127z" />
    <glyph glyph-name="afii10078" unicode="&#x43c;" horiz-adv-x="1369" 
d="M1078 0v864q-3 -8 -10 -28.5t-17 -47l-21 -56l-22 -56.5l-266 -676h-111l-282 676l-16.5 42l-19.5 52l-19 52l-15 42v-864h-114v1024h159l291 -689q9 -21 19.5 -48l21 -54.5t19 -52.5t14.5 -41q5 12 13 35t18.5 50l21.5 55l20 52l277 693h165v-1024h-126z" />
    <glyph glyph-name="afii10079" unicode="&#x43d;" horiz-adv-x="1149" 
d="M856 0v477h-563v-477h-128v1024h128v-436h563v436h128v-1024h-128z" />
    <glyph glyph-name="afii10080" unicode="&#x43e;" horiz-adv-x="1174" 
d="M584 -24q-114 0 -204.5 38t-154.5 107.5t-98 166.5t-34 215q0 128 36 229t102.5 171.5t160.5 107.5t210 37q111 0 200 -36.5t151 -105.5t95 -168t33 -225q0 -120 -34.5 -218.5t-98.5 -169.5t-156 -110t-208 -39zM594 937q-84 0 -152 -29t-116.5 -84.5t-74.5 -136
t-26 -182.5q0 -96 26 -173t73.5 -132t115.5 -84.5t152 -29.5q86 0 152 28.5t112 83t69.5 133.5t23.5 180q0 207 -92 316.5t-263 109.5z" />
    <glyph glyph-name="afii10081" unicode="&#x43f;" horiz-adv-x="1149" 
d="M856 0v912h-563v-912h-128v1024h819v-1024h-128z" />
    <glyph glyph-name="afii10082" unicode="&#x440;" horiz-adv-x="1175" 
d="M293 165v-636h-128v1495h128v-196h4q57 107 152.5 163.5t215.5 56.5q98 0 175.5 -35.5t131 -100.5t82 -158t28.5 -209q0 -127 -32 -231.5t-92 -179.5t-145.5 -116.5t-192.5 -41.5q-216 0 -323 189h-4zM293 426q0 -70 23.5 -131.5t65.5 -108t101.5 -73.5t131.5 -27
q77 0 139 32.5t105.5 92.5t67 145t23.5 190q0 90 -22 162.5t-62.5 123.5t-98 78t-128.5 27q-80 0 -144 -29.5t-109 -80.5t-69 -119.5t-24 -145.5v-136z" />
    <glyph glyph-name="afii10083" unicode="&#x441;" horiz-adv-x="927" 
d="M846 46q-114 -69 -276 -71q-110 -1 -198 38t-150 108.5t-95 164t-33 205.5q0 115 35 216.5t102 177t164 119.5t222 44q127 0 232 -49v-136q-112 74 -242 74q-91 0 -162 -34.5t-119.5 -94t-74 -139t-25.5 -168.5q0 -82 21.5 -157t66 -132.5t112.5 -91.5t160 -34
q144 0 260 86v-126z" />
    <glyph glyph-name="afii10084" unicode="&#x442;" horiz-adv-x="798" 
d="M464 912v-912h-128v912h-308v112h743v-112h-307z" />
    <glyph glyph-name="afii10085" unicode="&#x443;" horiz-adv-x="959" 
d="M462 -186q-60 -150 -138 -222.5t-189 -72.5q-55 0 -93 13v120q22 -8 44.5 -12t45.5 -4q63 0 109.5 39.5t80.5 119.5l89 210l-394 1019h142l293 -811q6 -16 11.5 -36.5l10.5 -40.5h5q5 17 9.5 34.5t12.5 38.5l311 815h135z" />
    <glyph glyph-name="afii10086" unicode="&#x444;" horiz-adv-x="1366" 
d="M1273 503q0 -115 -37 -209.5t-103 -162.5t-156.5 -105.5t-197.5 -37.5h-36v-469h-120v469h-34q-109 0 -200 38t-157 106.5t-102.5 163t-36.5 207.5q0 121 36 219.5t101 168t157 107.5t203 38h33v422h120v-422h32q112 0 203.5 -38t157 -108t101.5 -168.5t36 -218.5z
M1141 505q0 102 -27 180t-75 131.5t-115.5 81t-148.5 27.5h-32v-826h25q83 0 152 27.5t118 80t76 128t27 170.5zM623 925h-32q-81 0 -148 -27.5t-115.5 -81t-75.5 -132t-27 -179.5q0 -94 27 -169.5t76.5 -128t118 -80.5t152.5 -28h24v826z" />
    <glyph glyph-name="afii10087" unicode="&#x445;" horiz-adv-x="902" 
d="M526 504l336 -504h-154l-208 339l-24.5 39t-25.5 43h-4q-5 -10 -15.5 -26.5l-25.5 -41.5l-224 -353h-151l346 501l-335 523h149l213 -359l28 -48.5l20 -35.5h4q13 19 24 38.5l23 39.5l226 365h144z" />
    <glyph glyph-name="afii10088" unicode="&#x446;" horiz-adv-x="1191" 
d="M1026 -373v373h-861v1024h128v-913h563v913h128v-913h154v-484h-112z" />
    <glyph glyph-name="afii10089" unicode="&#x447;" horiz-adv-x="1114" 
d="M821 0v429q-94 -51 -179 -77t-169 -26q-76 0 -136.5 21t-102.5 64.5t-64.5 111.5t-22.5 161v340h129v-332q0 -58 11.5 -104.5t36 -79t64.5 -50t97 -17.5q86 0 169.5 25t166.5 70v488h128v-1024h-128z" />
    <glyph glyph-name="afii10090" unicode="&#x448;" horiz-adv-x="1588" 
d="M165 0v1024h128v-912h437v912h128v-912h437v912h128v-1024h-1258z" />
    <glyph glyph-name="afii10091" unicode="&#x449;" horiz-adv-x="1632" 
d="M1465 -373v373h-1300v1024h128v-913h437v913h128v-913h437v913h128v-913h156v-484h-114z" />
    <glyph glyph-name="afii10092" unicode="&#x44a;" horiz-adv-x="1170" 
d="M1087 313q0 -77 -26 -135.5t-70 -98t-101.5 -59.5t-121.5 -20h-423v912h-317v112h445v-407h284q76 0 137 -20.5t104 -59.5t66 -95.5t23 -128.5zM955 313q0 88 -55 140t-168 52h-259v-393h261q58 0 99.5 14.5t68.5 40.5t40 63.5t13 82.5z" />
    <glyph glyph-name="afii10093" unicode="&#x44b;" horiz-adv-x="1399" 
d="M1107 0v1024h127v-1024h-127zM907 313q0 -76 -26 -134.5t-70 -98t-101.5 -60t-121.5 -20.5h-423v1024h128v-407h284q76 0 137 -20.5t104 -59.5t66 -95.5t23 -128.5zM775 313q0 88 -55.5 140t-167.5 52h-259v-393h261q58 0 99.5 14.5t68.5 40.5t40 63.5t13 82.5z" />
    <glyph glyph-name="afii10094" unicode="&#x44c;" horiz-adv-x="990" 
d="M907 313q0 -76 -26 -134.5t-70 -98t-101.5 -60t-121.5 -20.5h-423v1024h128v-407h284q76 0 137 -20.5t104 -59.5t66 -95.5t23 -128.5zM775 313q0 88 -55.5 140t-167.5 52h-259v-393h261q58 0 99.5 14.5t68.5 40.5t40 63.5t13 82.5z" />
    <glyph glyph-name="afii10095" unicode="&#x44d;" horiz-adv-x="935" 
d="M842 507q0 -116 -34 -213.5t-97.5 -168t-153 -110t-200.5 -39.5q-88 0 -154.5 18t-114.5 48v126q50 -38 118 -60t150 -22q75 0 138.5 26t110 74.5t74 117.5t30.5 154h-470v110h470q-6 81 -32 149t-71.5 117t-111 76t-150.5 27q-76 0 -139.5 -19.5t-108.5 -51.5v126
q48 25 115 40.5t138 15.5q116 0 207.5 -37t155 -106.5t97 -170t33.5 -227.5z" />
    <glyph glyph-name="afii10096" unicode="&#x44e;" horiz-adv-x="1628" 
d="M1535 513q0 -115 -30 -213.5t-89 -170.5t-146 -112.5t-202 -40.5q-109 0 -193 37.5t-141.5 104t-88.5 158.5t-34 201h-318v-477h-128v1024h128v-436h320q11 116 52 202t104 143.5t144 86t172 28.5q105 0 188.5 -36t141.5 -104.5t89 -168t31 -226.5zM1404 511
q0 215 -85.5 320.5t-242.5 105.5q-159 0 -246.5 -109.5t-87.5 -320.5q0 -99 21.5 -177t64 -132t105 -83t143.5 -29q83 0 145 29.5t102.5 84t60.5 133.5t20 178z" />
    <glyph glyph-name="afii10097" unicode="&#x44f;" horiz-adv-x="1009" 
d="M714 0v435h-153q-26 0 -53 -9t-53 -29t-51 -52.5t-47 -80.5l-124 -264h-151l150 300q30 60 69 101.5t91 63.5q-122 15 -184 87t-62 182q0 60 21.5 112.5t66 92t112 62.5t158.5 23h340v-1024h-130zM714 914h-207q-113 0 -169.5 -46.5t-56.5 -134.5q0 -98 58.5 -143
t161.5 -45h213v369z" />
    <glyph glyph-name="afii10071" unicode="&#x451;" horiz-adv-x="1052" 
d="M226 489q1 -94 25 -169t69 -127t109.5 -79.5t145.5 -27.5q173 0 327 121v-126q-147 -105 -356 -105q-103 0 -187 36t-143 104.5t-91 168.5t-32 228q0 115 35 213t97 169.5t147 112t186 40.5q99 0 175 -34.5t127.5 -98.5t78.5 -156t27 -206v-64h-740zM834 601
q-3 160 -76 248t-203 88q-65 0 -120.5 -23t-97.5 -66.5t-69.5 -106t-38.5 -140.5h605zM719 1203q-33 0 -58.5 23.5t-25.5 61.5q0 37 24.5 60.5t57.5 23.5q36 0 62 -24t26 -60t-24.5 -60.5t-61.5 -24.5zM361 1203q-18 0 -33.5 6.5t-27.5 18t-19 27t-7 33.5q0 37 25 60.5
t59 23.5q18 0 34 -6.5t28 -17.5t19 -26.5t7 -33.5q0 -36 -25 -60.5t-60 -24.5z" />
    <glyph glyph-name="afii10099" unicode="&#x452;" horiz-adv-x="1167" 
d="M1034 392q0 -408 -108 -607t-334 -199q-25 0 -54 5.5t-58 16.5v124q29 -13 59 -21.5t55 -8.5q163 0 236 170.5t73 516.5q0 136 -19 234.5t-56 162.5t-92 94.5t-127 30.5q-59 0 -113.5 -25.5t-96.5 -72.5t-67 -113.5t-25 -149.5v-550h-128v1216h-134v109h134v191h128v-191
h362v-109h-362v-397h4q25 45 57.5 82.5t73 64.5t89 42t105.5 15q102 0 177 -42t124 -122t73 -197.5t24 -269.5z" />
    <glyph glyph-name="afii10100" unicode="&#x453;" horiz-adv-x="739" 
d="M293 912v-912h-128v1024h534v-112h-406zM392 1203h-108l228 328h135z" />
    <glyph glyph-name="afii10101" unicode="&#x454;" horiz-adv-x="932" 
d="M845 45q-48 -30 -116.5 -49.5t-156.5 -19.5q-111 0 -199.5 37.5t-150.5 105.5t-95.5 164t-33.5 213q0 126 37 228t104.5 174t163 111t211.5 39q69 0 127.5 -13.5t105.5 -35.5v-133q-46 32 -106.5 51.5t-136.5 19.5q-80 0 -145.5 -27t-113.5 -75.5t-77 -116.5t-36 -150
h469v-110h-471q4 -85 31 -154t73.5 -117.5t109.5 -74.5t139 -26q81 0 148.5 24t118.5 63v-128v0z" />
    <glyph glyph-name="afii10102" unicode="&#x455;" horiz-adv-x="832" 
d="M107 184q29 -23 63 -41t70 -31t72.5 -19.5t69.5 -6.5q228 0 228 171q0 39 -16 67.5t-46 52t-72 43.5t-95 42q-71 29 -122 59t-84 65.5t-49 78t-16 96.5q0 68 29.5 121t79.5 90t115.5 56.5t137.5 19.5q133 0 232 -50v-135q-115 74 -248 74q-48 0 -87.5 -12t-67.5 -34
t-43.5 -52.5t-15.5 -67.5q0 -38 12 -66.5t37.5 -51.5t66 -44t98.5 -45q74 -30 128 -59.5t89 -64t52 -77t17 -98.5q0 -69 -28.5 -123t-79 -91t-118.5 -56t-148 -19q-155 0 -261 65v143z" />
    <glyph glyph-name="afii10103" unicode="&#x456;" 
d="M228 1283q-37 0 -64 26t-27 66q0 39 27 64.5t64 25.5q19 0 36 -6.5t29.5 -18.5t20 -28.5t7.5 -36.5q0 -19 -7 -36t-20 -29.5t-29.5 -19.5t-36.5 -7zM165 0v1024h128v-1024h-128z" />
    <glyph glyph-name="afii10104" unicode="&#x457;" 
d="M165 0v1024h128v-1024h-128zM409 1203q-33 0 -58.5 23.5t-25.5 61.5q0 37 24.5 60.5t57.5 23.5q36 0 62 -24t26 -60t-24.5 -60.5t-61.5 -24.5zM51 1203q-18 0 -33.5 6.5t-27.5 18t-19 27t-7 33.5q0 37 25 60.5t59 23.5q18 0 34 -6.5t28 -17.5t19 -26.5t7 -33.5
q0 -36 -25 -60.5t-60 -24.5z" />
    <glyph glyph-name="afii10105" unicode="&#x458;" 
d="M293 36q0 -254 -90 -386t-287 -132q-70 0 -141 34v124q78 -46 148 -46q242 0 242 384v1010h128v-988zM228 1283q-37 0 -64 26t-27 66q0 39 27 64.5t64 25.5q19 0 36 -6.5t29.5 -18.5t20 -28.5t7.5 -36.5q0 -19 -7 -36t-20 -29.5t-29.5 -19.5t-36.5 -7z" />
    <glyph glyph-name="afii10106" unicode="&#x459;" horiz-adv-x="1585" 
d="M1502 313q0 -75 -25.5 -133.5t-69.5 -98t-101.5 -60.5t-122.5 -21h-423v912h-269q-18 -239 -49.5 -413.5t-79 -288.5t-113 -169t-153.5 -55q-20 0 -39 3t-34 8v111q13 -6 31.5 -9.5t34.5 -3.5q64 0 112 65t83.5 186t59 292.5t38.5 385.5h505v-407h285q77 0 138 -20.5
t103.5 -59.5t65.5 -95.5t23 -128.5zM1370 313q0 88 -55.5 139.5t-167.5 51.5h-260v-393h262q58 0 99.5 14.5t68.5 41t40 63.5t13 83z" />
    <glyph glyph-name="afii10107" unicode="&#x45a;" horiz-adv-x="1642" 
d="M1559 308q0 -76 -26 -133.5t-69.5 -96.5t-101 -58.5t-121.5 -19.5h-424v494h-524v-494h-128v1024h128v-417h524v417h128v-417h284q77 0 138.5 -20t104 -58t65 -93.5t22.5 -127.5zM1427 308q0 87 -55 136.5t-168 49.5h-259v-382h261q58 0 99.5 14t68.5 39.5t40 61.5t13 81
z" />
    <glyph glyph-name="afii10108" unicode="&#x45b;" horiz-adv-x="1141" 
d="M870 0v576q0 172 -62 254t-192 82q-51 0 -106 -21t-100 -65t-74 -113.5t-29 -166.5v-546h-128v1216h-134v109h134v191h128v-191h362v-109h-362v-394h4q54 93 140 147.5t204 54.5q173 0 258 -107.5t85 -308.5v-608h-128z" />
    <glyph glyph-name="afii10109" unicode="&#x45c;" horiz-adv-x="954" 
d="M763 0l-466 497h-4v-497h-128v1024h128v-479h4l452 479h167l-485 -497l512 -527h-180zM532 1203h-108l228 328h135z" />
    <glyph glyph-name="afii10110" unicode="&#x45e;" horiz-adv-x="959" 
d="M462 -186q-60 -150 -138 -222.5t-189 -72.5q-55 0 -93 13v120q22 -8 44.5 -12t45.5 -4q63 0 109.5 39.5t80.5 119.5l89 210l-394 1019h142l293 -811q6 -16 11.5 -36.5l10.5 -40.5h5q5 17 9.5 34.5t12.5 38.5l311 815h135zM493 1300q46 0 86 15t70.5 42t50 63t23.5 78h130
q-9 -62 -37.5 -116t-74.5 -93.5t-108.5 -62t-140.5 -22.5t-139.5 22.5t-105 62t-69 93.5t-32.5 116h130q4 -44 19.5 -80.5t42.5 -62.5t65.5 -40.5t89.5 -14.5z" />
    <glyph glyph-name="afii10193" unicode="&#x45f;" horiz-adv-x="1149" 
d="M632 0v-373h-113v373h-354v1024h128v-913h563v913h128v-1024h-352z" />
    <glyph glyph-name="afii10050" unicode="&#x490;" horiz-adv-x="939" 
d="M319 1312v-1312h-133v1434h589v264h120v-386h-576z" />
    <glyph glyph-name="afii10098" unicode="&#x491;" horiz-adv-x="771" 
d="M293 912v-912h-128v1024h433v270h114v-382h-419z" />
    <glyph glyph-name="afii61664" unicode="&#x200c;" horiz-adv-x="0" 
 />
    <glyph glyph-name="afii301" unicode="&#x200d;" horiz-adv-x="0" 
 />
    <glyph glyph-name="afii299" unicode="&#x200e;" horiz-adv-x="0" 
 />
    <glyph glyph-name="afii300" unicode="&#x200f;" horiz-adv-x="0" 
 />
    <glyph glyph-name="endash" unicode="&#x2013;" horiz-adv-x="1024" 
d="M0 530v110h1024v-110h-1024z" />
    <glyph glyph-name="emdash" unicode="&#x2014;" horiz-adv-x="2048" 
d="M0 530v110h2048v-110h-2048z" />
    <glyph glyph-name="afii00208" unicode="&#x2015;" horiz-adv-x="2048" 
d="M0 530v110h2048v-110h-2048z" />
    <glyph glyph-name="quoteleft" unicode="&#x2018;" horiz-adv-x="453" 
d="M237 998h-128l147 448h97z" />
    <glyph glyph-name="quoteright" unicode="&#x2019;" horiz-adv-x="453" 
d="M207 998h-96l118 448h126z" />
    <glyph glyph-name="quotesinglbase" unicode="&#x201a;" horiz-adv-x="453" 
d="M178 -226h-95l117 444h126z" />
    <glyph glyph-name="quotedblleft" unicode="&#x201c;" horiz-adv-x="729" 
d="M511 998h-126l148 448h96zM237 998h-128l147 448h97z" />
    <glyph glyph-name="quotedblright" unicode="&#x201d;" horiz-adv-x="729" 
d="M484 998h-97l115 448h129zM207 998h-96l118 448h126z" />
    <glyph glyph-name="quotedblbase" unicode="&#x201e;" horiz-adv-x="729" 
d="M455 -228h-97l116 446h128zM178 -228h-95l117 446h126z" />
    <glyph glyph-name="dagger" unicode="&#x2020;" horiz-adv-x="762" 
d="M716 913l-267 30l-35 -714h-56l-35 714l-277 -30v130l307 -20l-35 410h136l-35 -410l297 20v-130z" />
    <glyph glyph-name="daggerdbl" unicode="&#x2021;" horiz-adv-x="762" 
d="M716 519l-297 25l35 -315h-136l35 315l-307 -25v130l277 -25l48 207l-48 207l-277 -25v130l307 -25l-35 315h136l-35 -315l297 25v-130l-267 25l-48 -207l48 -207l267 25v-130z" />
    <glyph glyph-name="bullet" unicode="&#x2022;" horiz-adv-x="821" 
d="M164 688q0 51 19.5 96t52.5 78.5t78 53t96 19.5t96 -19.5t78.5 -53t53 -78.5t19.5 -96t-19.5 -96t-53 -78t-78.5 -52.5t-96 -19.5t-96 19.5t-78 52.5t-52.5 78t-19.5 96z" />
    <glyph glyph-name="ellipsis" unicode="&#x2026;" horiz-adv-x="1432" 
d="M1195 -17q-40 0 -67 27.5t-27 68.5q0 40 27 68t67 28q20 0 37 -7.5t30.5 -21t21 -30.5t7.5 -37q0 -42 -28 -69t-68 -27zM714 -17q-40 0 -68 27.5t-28 68.5q0 20 7.5 37t21 30.5t31 21t36.5 7.5t36.5 -8t30.5 -21t21 -30.5t8 -36.5q0 -41 -28 -68.5t-68 -27.5zM234 -17
q-40 0 -67 27.5t-27 68.5q0 40 27 68t67 28q20 0 37 -7.5t30.5 -21t21 -30.5t7.5 -37q0 -41 -28 -68.5t-68 -27.5z" />
    <glyph glyph-name="perthousand" unicode="&#x2030;" horiz-adv-x="2451" 
d="M410 722q-76 0 -137 26t-103.5 73.5t-65 113.5t-22.5 147q0 89 25 159t70 118.5t108 74t140 25.5q75 0 135 -25t102 -72t64.5 -114.5t22.5 -153.5q0 -81 -24.5 -149t-68.5 -117.5t-106.5 -77.5t-139.5 -28zM421 1363q-52 0 -94.5 -19t-71.5 -54.5t-45 -87t-16 -116.5
q0 -125 58.5 -197t163.5 -72q53 0 94 19.5t69 55.5t43 87t15 114q0 131 -58 200.5t-158 69.5zM431 -21h-121l892 1454h120zM2039 -23q-76 0 -136.5 26t-103 73.5t-65 114t-22.5 146.5q0 88 25 158t70 119t108.5 75t139.5 26q75 0 135 -25.5t101.5 -72.5t64 -115t22.5 -154
q0 -81 -24 -149t-68 -117.5t-107 -77t-140 -27.5zM2051 617q-106 0 -166 -72.5t-60 -204.5q0 -127 58.5 -197.5t161.5 -70.5q106 0 164.5 73.5t58.5 202.5q0 132 -58.5 200.5t-158.5 68.5zM1229 -23q-75 0 -136 26t-103.5 73t-65.5 113.5t-23 147.5q0 88 25 158t70 119
t108.5 75t139.5 26q75 0 135 -25t102 -72t64.5 -115.5t22.5 -154.5q0 -81 -24.5 -149t-68.5 -117.5t-106.5 -77t-139.5 -27.5zM1240 617q-52 0 -94 -19t-71.5 -54.5t-45.5 -87t-16 -116.5q0 -62 15.5 -112t44 -84.5t69.5 -53t93 -18.5t93 19t69.5 55t44 87t15.5 115
q0 132 -58 200.5t-159 68.5z" />
    <glyph glyph-name="guilsinglleft" unicode="&#x2039;" horiz-adv-x="641" 
d="M397 200l-288 336l288 344h134l-287 -344l287 -336h-134z" />
    <glyph glyph-name="guilsinglright" unicode="&#x203a;" horiz-adv-x="641" 
d="M110 200l287 336l-287 344h134l288 -344l-288 -336h-134z" />
    <glyph glyph-name="fraction" unicode="&#x2044;" horiz-adv-x="300" 
d="M-206 0h-121l860 1434h120z" />
    <glyph glyph-name="fraction" unicode="&#x2215;" horiz-adv-x="300" 
d="M-206 0h-121l860 1434h120z" />
    <glyph glyph-name="Euro" unicode="&#x20ac;" horiz-adv-x="1080" 
d="M988 51q-132 -75 -278 -75q-98 0 -179 33t-143 97.5t-103.5 161t-61.5 223.5h-133v112h122q-2 20 -3 42t-1 47q0 59 6 122h-124v112h140q23 125 70.5 224t114.5 167.5t152 104.5t182 36q131 0 239 -55v-132q-115 75 -249 75q-67 0 -127.5 -28.5t-110 -82.5t-85.5 -132
t-56 -177h520v-112h-536q-2 -21 -3 -45.5t-1 -53.5q0 -28 0.5 -56.5t2.5 -55.5h537v-112h-523q33 -201 128 -302.5t236 -101.5q129 0 267 90v-126z" />
    <glyph glyph-name="afii61352" unicode="&#x2116;" horiz-adv-x="2309" 
d="M2202 1032q0 -90 -24.5 -168t-73.5 -135.5t-120.5 -90.5t-166.5 -33q-93 0 -164 31t-118.5 86.5t-72 132.5t-24.5 168q0 109 29.5 190t82 134t124.5 79.5t157 26.5q87 0 156 -28t117 -82t73 -132t25 -179zM1470 334v105h700v-105h-700zM1120 0l-752 1152l-29.5 46.5
t-23.5 42.5h-5q3 -25 4 -67t1 -93v-1081h-129v1434h147l716 -1100l42 -66.5t40 -65.5h4q-2 26 -4 69t-2 95v1068h129v-1434h-138zM2082 1029q0 162 -67.5 240t-189.5 78q-125 0 -196.5 -83.5t-71.5 -238.5q0 -148 67.5 -230.5t196.5 -82.5q131 0 196 84t65 233z" />
    <glyph glyph-name="trademark" unicode="&#x2122;" horiz-adv-x="1584" 
d="M1291 772v505h-4l-223 -505h-64l-215 505h-4v-505h-92v662h121l224 -521h4l231 521h117v-662h-95zM383 1346v-574h-97v574h-213v88h526v-88h-216z" />
    <glyph glyph-name="uniF002" unicode="&#xf002;" horiz-adv-x="1993" 
d="M1006 -221q-31 16 -86.5 51.5t-125 87.5t-148 118t-155.5 143t-148 162t-125 174t-86 181t-32 183q0 43 11 91t32.5 95t53 90t73 75.5t92.5 52t112 19.5q68 0 140 -22.5t147 -67.5l225 -389l-328 -225l328 -738l61 615l410 328l-246 409q75 45 150 67.5t146 22.5
q64 0 117.5 -19.5t96.5 -52t75.5 -76t54 -90.5t32 -95t10.5 -91q0 -91 -32 -182.5t-85.5 -181t-123.5 -174.5t-146 -161.5t-153 -142.5t-144.5 -118t-121 -87.5t-81.5 -51.5z" />
    <glyph glyph-name="uniF003" unicode="&#xf003;" horiz-adv-x="1989" 
d="M1889 859q0 -92 -31.5 -184.5t-85 -181.5t-123.5 -173t-146 -159.5t-153.5 -139.5t-146.5 -113.5t-124 -82.5t-86 -45q-28 12 -81 45t-121 83t-146 114.5t-154.5 140t-147 160t-124.5 174t-86.5 182.5t-32.5 185q0 42 10.5 91t32 98t54 94t75.5 79.5t96.5 55t118.5 20.5
q59 0 122.5 -17.5t128.5 -54t129.5 -91.5t125.5 -130q54 69 118 121.5t131.5 88t135.5 54t132 18.5q66 0 120 -20.5t96 -55t73 -79t51 -92.5t29.5 -96t9.5 -89z" />
    <glyph glyph-name="uniF001" unicode="&#xf001;" horiz-adv-x="1645" 
d="M1540 527q-31 -120 -98.5 -220.5t-162 -174t-211.5 -115t-247 -41.5q-129 0 -245.5 41.5t-210.5 115t-161.5 174t-98.5 220.5h60q41 0 76.5 15t62 41t41.5 61t15 76q0 40 -15 75.5t-41.5 62t-62 41.5t-76.5 15h-58q32 119 99 219t161 172.5t209.5 112.5t244.5 40
q128 0 244 -41t210 -113.5t162 -172t100 -217.5h-665q-41 0 -76 -15t-61.5 -41.5t-41.5 -62t-15 -75.5q0 -41 15 -76t41.5 -61t61.5 -41t76 -15h668z" />
    <glyph glyph-name="glyph479" horiz-adv-x="712" 
d="M627 584h-536v107l239 235q57 56 91 95.5t52 71.5t24 59t6 57q0 68 -38 105t-110 37q-115 0 -219 -100v126q98 77 231 77q59 0 105 -17t78.5 -47.5t49.5 -73.5t17 -94q0 -38 -11 -77.5t-36 -82.5t-65.5 -91.5t-99.5 -105.5l-178 -171v-4h400v-106z" />
    <glyph glyph-name="glyph480" horiz-adv-x="1190" 
d="M604 1300q46 0 86 15t70.5 42t50 63t23.5 78h130q-9 -62 -37.5 -116t-74.5 -93.5t-108.5 -62t-140.5 -22.5t-139.5 22.5t-105 62t-69 93.5t-32.5 116h130q4 -44 19.5 -80.5t42.5 -62.5t65.5 -40.5t89.5 -14.5z" />
    <glyph glyph-name="glyph481" horiz-adv-x="712" 
d="M634 584h-488v97h190v638l-201 -63v107l309 95v-777h190v-97z" />
    <glyph glyph-name="glyph482" horiz-adv-x="712" 
d="M607 819q0 -57 -21 -104t-59.5 -81.5t-93 -53.5t-122.5 -19q-121 0 -203 50v119q103 -70 206 -70q86 0 134 42t48 114q0 154 -227 154h-77v99h71q206 0 206 153q0 128 -149 128q-84 0 -179 -61v115q93 48 202 48q53 0 96.5 -15t74.5 -43t47.5 -67t16.5 -86
q0 -157 -146 -210v-4q87 -20 131 -74t44 -134z" />
    <glyph glyph-name="uni02C9" unicode="&#x2c9;" horiz-adv-x="635" 
d="M62 1203v96h508v-96h-508z" />
    <glyph glyph-name="glyph484" horiz-adv-x="798" 
d="M486 -119l-146 -260h-101l105 260h142z" />
    <glyph glyph-name="glyph485" horiz-adv-x="712" 
d="M545 795v-211h-107v211h-393v78l377 561h123v-545h110v-94h-110zM437 1316q-22 -46 -42 -75l-232 -352h275v345q0 36 3 82h-4z" />
    <glyph glyph-name="uni2000" unicode="&#x2000;" horiz-adv-x="1024" 
 />
    <glyph glyph-name="uni2001" unicode="&#x2001;" horiz-adv-x="2048" 
 />
    <glyph glyph-name="uni2002" unicode="&#x2002;" horiz-adv-x="1024" 
 />
    <glyph glyph-name="uni2003" unicode="&#x2003;" horiz-adv-x="2048" 
 />
    <glyph glyph-name="uni2004" unicode="&#x2004;" horiz-adv-x="687" 
 />
    <glyph glyph-name="uni2005" unicode="&#x2005;" horiz-adv-x="512" 
 />
    <glyph glyph-name="uni2006" unicode="&#x2006;" horiz-adv-x="341" 
 />
    <glyph glyph-name="uni2007" unicode="&#x2007;" horiz-adv-x="1104" 
 />
    <glyph glyph-name="uni2008" unicode="&#x2008;" horiz-adv-x="444" 
 />
    <glyph glyph-name="uni2009" unicode="&#x2009;" horiz-adv-x="410" 
 />
    <glyph glyph-name="uni200A" unicode="&#x200a;" horiz-adv-x="256" 
 />
    <glyph glyph-name="uni200B" unicode="&#x200b;" horiz-adv-x="0" 
 />
    <glyph glyph-name="uni2028" unicode="&#x2028;" horiz-adv-x="0" 
 />
    <glyph glyph-name="uni2029" unicode="&#x2029;" horiz-adv-x="0" 
 />
    <glyph glyph-name="uni202A" unicode="&#x202a;" horiz-adv-x="0" 
 />
    <glyph glyph-name="uni202B" unicode="&#x202b;" horiz-adv-x="0" 
 />
    <glyph glyph-name="afii61573" unicode="&#x202c;" horiz-adv-x="0" 
 />
    <glyph glyph-name="afii61574" unicode="&#x202d;" horiz-adv-x="0" 
 />
    <glyph glyph-name="afii61575" unicode="&#x202e;" horiz-adv-x="0" 
 />
    <glyph glyph-name="uni202F" unicode="&#x202f;" horiz-adv-x="280" 
 />
    <glyph glyph-name="Wcircumflex" unicode="&#x174;" horiz-adv-x="1873" 
d="M1422 0h-139l-307 1063q-11 38 -17.5 73t-7.5 68h-4q-4 -58 -29 -139l-318 -1065h-139l-423 1434h148l316 -1125q11 -37 17.5 -70.5t10.5 -64.5h4q6 45 33 135l336 1125h105l315 -1129q9 -34 16 -66.5t11 -63.5h4q2 20 8 45l14 56l314 1158h145zM1111 1551l-161 234
l-162 -234h-98l218 334h89l218 -334h-104z" />
    <glyph glyph-name="wcircumflex" unicode="&#x175;" horiz-adv-x="1433" 
d="M1090 0h-128l-217 752q-10 35 -16 91h-4q-2 -15 -6.5 -37t-14.5 -52l-239 -754h-125l-310 1024h137l225 -794q10 -35 14 -89h8q2 18 6.5 41t12.5 49l248 793h106l222 -795q9 -34 15 -89h8q-1 17 4 39.5t13 49.5l225 795h129zM889 1203l-161 234l-162 -234h-98l218 334h89
l218 -334h-104z" />
    <glyph glyph-name="Ycircumflex" unicode="&#x176;" horiz-adv-x="1119" 
d="M617 537v-537h-133v534l-450 900h151l328 -670q6 -12 16 -36t24 -61h3q6 18 17 42t27 54l343 671h142zM717 1551l-161 234l-162 -234h-98l218 334h89l218 -334h-104z" />
    <glyph glyph-name="ycircumflex" unicode="&#x177;" horiz-adv-x="959" 
d="M462 -186q-60 -150 -138 -222.5t-189 -72.5q-55 0 -93 13v120q22 -8 44.5 -12t45.5 -4q63 0 109.5 39.5t80.5 119.5l89 210l-394 1019h142l293 -811q6 -16 11.5 -36.5l10.5 -40.5h5q5 17 9.5 34.5t12.5 38.5l311 815h135zM643 1203l-161 234l-162 -234h-98l218 334h89
l218 -334h-104z" />
    <glyph glyph-name="Wgrave" unicode="&#x1e80;" horiz-adv-x="1873" 
d="M1422 0h-139l-307 1063q-11 38 -17.5 73t-7.5 68h-4q-4 -58 -29 -139l-318 -1065h-139l-423 1434h148l316 -1125q11 -37 17.5 -70.5t10.5 -64.5h4q6 45 33 135l336 1125h105l315 -1129q9 -34 16 -66.5t11 -63.5h4q2 20 8 45l14 56l314 1158h145zM968 1551l-255 328h136
l227 -328h-108z" />
    <glyph glyph-name="wgrave" unicode="&#x1e81;" horiz-adv-x="1433" 
d="M1090 0h-128l-217 752q-10 35 -16 91h-4q-2 -15 -6.5 -37t-14.5 -52l-239 -754h-125l-310 1024h137l225 -794q10 -35 14 -89h8q2 18 6.5 41t12.5 49l248 793h106l222 -795q9 -34 15 -89h8q-1 17 4 39.5t13 49.5l225 795h129zM736 1203l-255 328h136l227 -328h-108z" />
    <glyph glyph-name="Wacute" unicode="&#x1e82;" horiz-adv-x="1873" 
d="M1422 0h-139l-307 1063q-11 38 -17.5 73t-7.5 68h-4q-4 -58 -29 -139l-318 -1065h-139l-423 1434h148l316 -1125q11 -37 17.5 -70.5t10.5 -64.5h4q6 45 33 135l336 1125h105l315 -1129q9 -34 16 -66.5t11 -63.5h4q2 20 8 45l14 56l314 1158h145zM937 1551h-108l228 328
h135z" />
    <glyph glyph-name="wacute" unicode="&#x1e83;" horiz-adv-x="1433" 
d="M1090 0h-128l-217 752q-10 35 -16 91h-4q-2 -15 -6.5 -37t-14.5 -52l-239 -754h-125l-310 1024h137l225 -794q10 -35 14 -89h8q2 18 6.5 41t12.5 49l248 793h106l222 -795q9 -34 15 -89h8q-1 17 4 39.5t13 49.5l225 795h129zM728 1203h-108l228 328h135z" />
    <glyph glyph-name="Wdieresis" unicode="&#x1e84;" horiz-adv-x="1873" 
d="M1422 0h-139l-307 1063q-11 38 -17.5 73t-7.5 68h-4q-4 -58 -29 -139l-318 -1065h-139l-423 1434h148l316 -1125q11 -37 17.5 -70.5t10.5 -64.5h4q6 45 33 135l336 1125h105l315 -1129q9 -34 16 -66.5t11 -63.5h4q2 20 8 45l14 56l314 1158h145zM1122 1551
q-33 0 -58.5 23.5t-25.5 61.5q0 37 24.5 60.5t57.5 23.5q36 0 62 -24t26 -60t-24.5 -60.5t-61.5 -24.5zM764 1551q-18 0 -33.5 6.5t-27.5 18t-19 27t-7 33.5q0 37 25 60.5t59 23.5q18 0 34 -6.5t28 -17.5t19 -26.5t7 -33.5q0 -36 -25 -60.5t-60 -24.5z" />
    <glyph glyph-name="wdieresis" unicode="&#x1e85;" horiz-adv-x="1433" 
d="M1090 0h-128l-217 752q-10 35 -16 91h-4q-2 -15 -6.5 -37t-14.5 -52l-239 -754h-125l-310 1024h137l225 -794q10 -35 14 -89h8q2 18 6.5 41t12.5 49l248 793h106l222 -795q9 -34 15 -89h8q-1 17 4 39.5t13 49.5l225 795h129zM902 1203q-33 0 -58.5 23.5t-25.5 61.5
q0 37 24.5 60.5t57.5 23.5q36 0 62 -24t26 -60t-24.5 -60.5t-61.5 -24.5zM544 1203q-18 0 -33.5 6.5t-27.5 18t-19 27t-7 33.5q0 37 25 60.5t59 23.5q18 0 34 -6.5t28 -17.5t19 -26.5t7 -33.5q0 -36 -25 -60.5t-60 -24.5z" />
    <glyph glyph-name="Ygrave" unicode="&#x1ef2;" horiz-adv-x="1119" 
d="M617 537v-537h-133v534l-450 900h151l328 -670q6 -12 16 -36t24 -61h3q6 18 17 42t27 54l343 671h142zM560 1551l-255 328h136l227 -328h-108z" />
    <glyph glyph-name="ygrave" unicode="&#x1ef3;" horiz-adv-x="959" 
d="M462 -186q-60 -150 -138 -222.5t-189 -72.5q-55 0 -93 13v120q22 -8 44.5 -12t45.5 -4q63 0 109.5 39.5t80.5 119.5l89 210l-394 1019h142l293 -811q6 -16 11.5 -36.5l10.5 -40.5h5q5 17 9.5 34.5t12.5 38.5l311 815h135zM472 1203l-255 328h136l227 -328h-108z" />
    <glyph glyph-name="onethird" unicode="&#x2153;" horiz-adv-x="1700" 
d="M496 0h-121l860 1434h120zM612 584h-488v97h190v638l-201 -63v107l309 95v-777h190v-97zM1591 236q0 -57 -21 -104t-59.5 -81.5t-93 -53.5t-122.5 -19q-121 0 -203 50v119q103 -70 206 -70q86 0 134 42t48 114q0 154 -227 154h-77v99h71q206 0 206 153q0 128 -149 128
q-84 0 -179 -61v115q93 48 202 48q53 0 96.5 -15.5t74 -43t47.5 -66.5t17 -86q0 -157 -146 -210v-4q87 -20 131 -74t44 -134z" />
    <glyph glyph-name="twothirds" unicode="&#x2154;" horiz-adv-x="1700" 
d="M499 0h-121l860 1434h120zM634 584h-536v107l239 235q57 55 91 95t52 72t24 59t6 57q0 68 -38 105t-110 37q-115 0 -219 -100v126q98 77 231 77q58 0 104.5 -17t79 -47.5t49.5 -73.5t17 -94q0 -38 -11 -77.5t-36 -82.5t-65.5 -91.5t-99.5 -105.5l-178 -171v-4h400v-106z
M1589 236q0 -57 -21 -104t-59.5 -81.5t-93 -53.5t-122.5 -19q-121 0 -203 50v119q103 -70 206 -70q86 0 134 42t48 114q0 154 -227 154h-77v99h71q206 0 206 153q0 128 -149 128q-84 0 -179 -61v115q93 48 202 48q53 0 96.5 -15.5t74 -43t47.5 -66.5t17 -86
q0 -157 -146 -210v-4q87 -20 131 -74t44 -134z" />
    <glyph glyph-name="glyph520" horiz-adv-x="712" 
d="M634 584h-488v97h190v638l-201 -63v107l309 95v-777h190v-97z" />
    <glyph glyph-name="glyph521" horiz-adv-x="712" 
d="M607 819q0 -57 -21 -104t-59.5 -81.5t-93 -53.5t-122.5 -19q-121 0 -203 50v119q103 -70 206 -70q86 0 134 42t48 114q0 154 -227 154h-77v99h71q206 0 206 153q0 128 -149 128q-84 0 -179 -61v115q93 48 202 48q53 0 96.5 -15.5t74 -43t47.5 -66.5t17 -86
q0 -157 -146 -210v-4q87 -20 131 -74t44 -134z" />
    <glyph glyph-name="glyph522" horiz-adv-x="712" 
d="M627 584h-536v107l239 235q57 55 91 95t52 72t24 59t6 57q0 68 -38 105t-110 37q-115 0 -219 -100v126q98 77 231 77q58 0 104.5 -17t79 -47.5t49.5 -73.5t17 -94q0 -38 -11 -77.5t-36 -82.5t-65.5 -91.5t-99.5 -105.5l-178 -171v-4h400v-106z" />
    <glyph glyph-name="radical" unicode="&#x221a;" horiz-adv-x="1331" 
d="M712 -1h-95l-319 764h-167v101h246l280 -687l339 1339h100z" />
    <glyph glyph-name="notequal" unicode="&#x2260;" horiz-adv-x="1367" 
d="M604 340l-175 -340h-117l177 340h-267v108h323l152 299h-475v108h532l171 333h115l-171 -333h277v-108h-332l-155 -299h487v-108h-542z" />
    <glyph glyph-name="lessequal" unicode="&#x2264;" horiz-adv-x="1367" 
d="M261 680v38l846 474v-122l-659 -367v-4l659 -323v-124zM222 31v109h924v-109h-924z" />
    <glyph glyph-name="greaterequal" unicode="&#x2265;" horiz-adv-x="1367" 
d="M261 253v124l661 321v5l-661 368v122l846 -474v-38zM222 31v109h924v-109h-924z" />
    <glyph glyph-name="Ccircumflex" unicode="&#x108;" horiz-adv-x="1270" 
d="M1150 53q-166 -78 -379 -78q-152 0 -276 53.5t-211.5 148.5t-135 226t-47.5 286q0 163 50.5 303.5t144.5 244t227.5 162.5t299.5 59q183 0 327 -56v-142q-154 77 -329 77q-139 0 -247 -48t-182 -133.5t-113 -202t-39 -254.5q0 -124 35 -233.5t103.5 -191.5t170.5 -130
t237 -48q207 0 364 87v-130zM922 1551l-161 234l-162 -234h-98l218 334h89l218 -334h-104z" />
    <glyph glyph-name="ccircumflex" unicode="&#x109;" horiz-adv-x="927" 
d="M846 46q-114 -69 -276 -71q-110 -1 -198 38t-150 108.5t-95 164t-33 205.5q0 115 35 216.5t102 177t164 119.5t222 44q127 0 232 -49v-136q-112 74 -242 74q-91 0 -162 -34.5t-119.5 -94t-74 -139t-25.5 -168.5q0 -82 21.5 -157t66 -132.5t112.5 -91.5t160 -34
q144 0 260 86v-126zM712 1203l-161 234l-162 -234h-98l218 334h89l218 -334h-104z" />
    <glyph glyph-name="Cdotaccent" unicode="&#x10a;" horiz-adv-x="1270" 
d="M1150 53q-166 -78 -379 -78q-152 0 -276 53.5t-211.5 148.5t-135 226t-47.5 286q0 163 50.5 303.5t144.5 244t227.5 162.5t299.5 59q183 0 327 -56v-142q-154 77 -329 77q-139 0 -247 -48t-182 -133.5t-113 -202t-39 -254.5q0 -124 35 -233.5t103.5 -191.5t170.5 -130
t237 -48q207 0 364 87v-130zM767 1551q-18 0 -34 6.5t-28 18.5t-19 28t-7 35q0 18 7 34t19 27t27.5 17.5t33.5 6.5q36 0 62.5 -23.5t26.5 -61.5q0 -37 -25.5 -62.5t-62.5 -25.5z" />
    <glyph glyph-name="cdotaccent" unicode="&#x10b;" horiz-adv-x="927" 
d="M846 46q-114 -69 -276 -71q-110 -1 -198 38t-150 108.5t-95 164t-33 205.5q0 115 35 216.5t102 177t164 119.5t222 44q127 0 232 -49v-136q-112 74 -242 74q-91 0 -162 -34.5t-119.5 -94t-74 -139t-25.5 -168.5q0 -82 21.5 -157t66 -132.5t112.5 -91.5t160 -34
q144 0 260 86v-126zM578 1203q-18 0 -34 6.5t-28 18.5t-19 28t-7 35q0 18 7 34t19 27t27.5 17.5t33.5 6.5q36 0 62.5 -23.5t26.5 -61.5q0 -37 -25.5 -62.5t-62.5 -25.5z" />
    <glyph glyph-name="Ebreve" unicode="&#x114;" horiz-adv-x="1030" 
d="M186 0v1434h699v-122h-566v-526h524v-120h-524v-545h598v-121h-731zM816 1794q-7 -55 -30 -99.5t-59 -76.5t-83.5 -49.5t-102.5 -17.5q-57 0 -104.5 17t-82.5 48.5t-56 76.5t-24 101h92q6 -76 52 -116.5t125 -40.5q34 0 64 11.5t54 32t39.5 49.5t20.5 64h95z" />
    <glyph glyph-name="ebreve" unicode="&#x115;" horiz-adv-x="1052" 
d="M226 489q1 -94 25 -169t69 -127t109.5 -79.5t145.5 -27.5q173 0 327 121v-126q-147 -105 -356 -105q-103 0 -187 36t-143 104.5t-91 168.5t-32 228q0 115 35 213t97 169.5t147 112t186 40.5q99 0 175 -34.5t127.5 -98.5t78.5 -156t27 -206v-64h-740zM834 601
q-3 160 -76 248t-203 88q-65 0 -120.5 -23t-97.5 -66.5t-69.5 -106t-38.5 -140.5h605zM820 1446q-7 -55 -30 -99.5t-59 -76.5t-83.5 -49.5t-102.5 -17.5q-57 0 -104.5 17t-82.5 48.5t-56 76.5t-24 101h92q6 -76 52 -116.5t125 -40.5q34 0 64 11.5t54 32t39.5 49.5t20.5 64
h95z" />
    <glyph glyph-name="Gcircumflex" unicode="&#x11c;" horiz-adv-x="1386" 
d="M1240 99q-221 -124 -468 -124q-156 0 -280 53.5t-211 149t-133.5 228t-46.5 291.5q0 105 22.5 202t66 182t106.5 154t144.5 119t179.5 77t211 27q213 0 380 -76v-147q-184 102 -396 102q-131 0 -237 -48t-180.5 -132t-115.5 -198.5t-42 -248.5q-1 -133 34.5 -245.5
t105.5 -194.5t173 -128t238 -46q182 0 316 76v437h-326v121h459v-631zM936 1551l-161 234l-162 -234h-98l218 334h89l218 -334h-104z" />
    <glyph glyph-name="gcircumflex" unicode="&#x11d;" horiz-adv-x="1176" 
d="M1011 79q0 -285 -129.5 -422.5t-399.5 -137.5q-168 0 -318 75v130q167 -93 318 -93q401 0 401 424v123h-4q-118 -202 -360 -202q-95 0 -173.5 35t-134.5 101t-87 160.5t-31 213.5q0 126 33 229.5t94 177.5t147.5 114.5t194.5 40.5q217 0 317 -176h4v152h128v-945z
M883 622q0 64 -23 121t-64 100t-97.5 68.5t-124.5 25.5q-80 0 -144.5 -31t-110 -88t-70 -138.5t-24.5 -183.5q0 -94 23 -170t65 -129t101.5 -82t132.5 -29q76 0 138 27.5t106 76t68 114t24 141.5v177zM736 1203l-161 234l-162 -234h-98l218 334h89l218 -334h-104z" />
    <glyph glyph-name="Gdotaccent" unicode="&#x120;" horiz-adv-x="1386" 
d="M1240 99q-221 -124 -468 -124q-156 0 -280 53.5t-211 149t-133.5 228t-46.5 291.5q0 105 22.5 202t66 182t106.5 154t144.5 119t179.5 77t211 27q213 0 380 -76v-147q-184 102 -396 102q-131 0 -237 -48t-180.5 -132t-115.5 -198.5t-42 -248.5q-1 -133 34.5 -245.5
t105.5 -194.5t173 -128t238 -46q182 0 316 76v437h-326v121h459v-631zM784 1551q-18 0 -34 6.5t-28 18.5t-19 28t-7 35q0 18 7 34t19 27t27.5 17.5t33.5 6.5q36 0 62.5 -23.5t26.5 -61.5q0 -37 -25.5 -62.5t-62.5 -25.5z" />
    <glyph glyph-name="gdotaccent" unicode="&#x121;" horiz-adv-x="1176" 
d="M1011 79q0 -285 -129.5 -422.5t-399.5 -137.5q-168 0 -318 75v130q167 -93 318 -93q401 0 401 424v123h-4q-118 -202 -360 -202q-95 0 -173.5 35t-134.5 101t-87 160.5t-31 213.5q0 126 33 229.5t94 177.5t147.5 114.5t194.5 40.5q217 0 317 -176h4v152h128v-945z
M883 622q0 64 -23 121t-64 100t-97.5 68.5t-124.5 25.5q-80 0 -144.5 -31t-110 -88t-70 -138.5t-24.5 -183.5q0 -94 23 -170t65 -129t101.5 -82t132.5 -29q76 0 138 27.5t106 76t68 114t24 141.5v177zM566 1203q-18 0 -34 6.5t-28 18.5t-19 28t-7 35q0 18 7 34t19 27
t27.5 17.5t33.5 6.5q36 0 62.5 -23.5t26.5 -61.5q0 -37 -25.5 -62.5t-62.5 -25.5z" />
    <glyph glyph-name="Hcircumflex" unicode="&#x124;" horiz-adv-x="1420" 
d="M1101 0v671h-782v-671h-133v1434h133v-643h782v643h133v-1434h-133zM866 1551l-161 234l-162 -234h-98l218 334h89l218 -334h-104z" />
    <glyph glyph-name="hcircumflex" unicode="&#x125;" horiz-adv-x="1127" 
d="M856 0v602q0 172 -62 253.5t-193 81.5q-62 0 -118 -25t-98 -72t-67 -114.5t-25 -152.5v-573h-128v1516h128v-669h4q120 201 344 201q171 0 257 -105t86 -310v-633h-128zM760 1632l-161 234l-162 -234h-98l218 334h89l218 -334h-104z" />
    <glyph glyph-name="Hbar" unicode="&#x126;" horiz-adv-x="1420" 
d="M44 1036v122h142v276h133v-276h782v276h133v-276h141v-122h-141v-1036h-133v671h-782v-671h-133v1036h-142zM1101 791v245h-782v-245h782z" />
    <glyph glyph-name="hbar" unicode="&#x127;" horiz-adv-x="1127" 
d="M867 0v590q0 171 -62 253t-193 82q-49 0 -103.5 -21t-100 -65.5t-75 -113t-29.5 -164.5v-561h-128v1216h-136v109h136v191h128v-191h361v-109h-361v-382h4q55 93 140.5 147.5t203.5 54.5q170 0 256.5 -108.5t86.5 -307.5v-620h-128z" />
    <glyph glyph-name="Itilde" unicode="&#x128;" horiz-adv-x="505" 
d="M319 1434v-1434h-133v1434h133zM570 1788q0 -51 -12.5 -93t-35.5 -72.5t-56 -47.5t-75 -17q-68 0 -156 64q-70 49 -119 49q-95 0 -95 -128h-83q0 51 12.5 93t35.5 72t56 46.5t75 16.5q68 0 154 -62q71 -51 123 -51q41 0 65.5 32.5t24.5 97.5h86z" />
    <glyph glyph-name="itilde" unicode="&#x129;" 
d="M165 0v1024h128v-1024h-128zM542 1440q0 -51 -12.5 -93t-35.5 -72.5t-56 -47.5t-75 -17q-68 0 -156 64q-70 49 -119 49q-95 0 -95 -128h-83q0 51 12.5 93t35.5 72t56 46.5t75 16.5q68 0 154 -62q71 -51 123 -51q41 0 65.5 32.5t24.5 97.5h86z" />
    <glyph glyph-name="Ibreve" unicode="&#x12c;" horiz-adv-x="505" 
d="M319 1434v-1434h-133v1434h133zM523 1794q-7 -55 -30 -99.5t-59 -76.5t-83.5 -49.5t-102.5 -17.5q-57 0 -104.5 17t-82.5 48.5t-56 76.5t-24 101h92q6 -76 52 -116.5t125 -40.5q34 0 64 11.5t54 32t39.5 49.5t20.5 64h95z" />
    <glyph glyph-name="ibreve" unicode="&#x12d;" 
d="M165 0v1024h128v-1024h-128zM495 1446q-7 -55 -30 -99.5t-59 -76.5t-83.5 -49.5t-102.5 -17.5q-57 0 -104.5 17t-82.5 48.5t-56 76.5t-24 101h92q6 -76 52 -116.5t125 -40.5q34 0 64 11.5t54 32t39.5 49.5t20.5 64h95z" />
    <glyph glyph-name="IJ" unicode="&#x132;" horiz-adv-x="1214" 
d="M319 1434v-1434h-133v1434h133zM1038 504q0 -268 -99 -398t-280 -130q-35 0 -66 4.5t-57 14.5v131q56 -30 125 -30q127 0 185.5 100t58.5 308v930h133v-930z" />
    <glyph glyph-name="ij" unicode="&#x133;" horiz-adv-x="927" 
d="M228 1283q-37 0 -64 26t-27 66q0 39 27 64.5t64 25.5q19 0 36 -6.5t29.5 -18.5t20 -28.5t7.5 -36.5q0 -19 -7 -36t-20 -29.5t-29.5 -19.5t-36.5 -7zM165 0v1024h128v-1024h-128zM762 36q0 -254 -90 -386t-287 -132q-70 0 -141 34v124q78 -46 148 -46q242 0 242 384v1010
h128v-988zM697 1283q-37 0 -64 26t-27 66q0 39 27 64.5t64 25.5q19 0 36 -6.5t29.5 -18.5t20 -28.5t7.5 -36.5q0 -19 -7 -36t-20 -29.5t-29.5 -19.5t-36.5 -7z" />
    <glyph glyph-name="Jcircumflex" unicode="&#x134;" horiz-adv-x="697" 
d="M521 504q0 -268 -99 -398t-280 -130q-35 0 -66 4.5t-57 14.5v131q56 -30 125 -30q127 0 185.5 100t58.5 308v930h133v-930zM611 1551l-161 234l-162 -234h-98l218 334h89l218 -334h-104z" />
    <glyph glyph-name="jcircumflex" unicode="&#x135;" 
d="M293 36q0 -254 -90 -386t-287 -132q-70 0 -141 34v124q78 -46 148 -46q242 0 242 384v1010h128v-988zM387 1203l-161 234l-162 -234h-98l218 334h89l218 -334h-104z" />
    <glyph glyph-name="kgreenlandic" unicode="&#x138;" horiz-adv-x="963" 
d="M768 0l-471 499h-4v-499h-128v1024h128v-477h4l447 477h167l-480 -495l518 -529h-181z" />
    <glyph glyph-name="Ldot" unicode="&#x13f;" horiz-adv-x="951" 
d="M186 0v1434h133v-1313h576v-121h-709zM695 645q-18 0 -34.5 7t-28.5 19.5t-19 29t-7 35.5q0 37 25.5 62t63.5 25t64 -24.5t26 -62.5t-26 -64.5t-64 -26.5z" />
    <glyph glyph-name="ldot" unicode="&#x140;" horiz-adv-x="591" 
d="M165 0v1516h128v-1516h-128zM502 645q-18 0 -34.5 7t-29 19.5t-19.5 29t-7 35.5q0 37 26 62t64 25t64 -24.5t26 -62.5t-26 -64.5t-64 -26.5z" />
    <glyph glyph-name="napostrophe" unicode="&#x149;" horiz-adv-x="1208" 
d="M937 0v590q0 347 -252 347q-67 0 -124 -26.5t-98.5 -73.5t-65 -111.5t-23.5 -139.5v-586h-128v1024h128v-178h4q114 202 343 202q168 0 256 -109t88 -315v-624h-128zM63 998h-96l118 448h126z" />
    <glyph glyph-name="Eng" unicode="&#x14a;" horiz-adv-x="1492" 
d="M1306 32q0 -454 -347 -454q-68 0 -123 23v130q69 -32 126 -32q59 0 99 23t64.5 63.5t36 95.5t14.5 119l-804 1151l-28 42t-25 48h-5q2 -20 3.5 -52.5t1.5 -77.5v-1111h-133v1434h147l783 -1119q11 -16 24 -37.5l35 -60.5h5q-4 35 -6 77.5t-2 92.5v1047h134v-1402z" />
    <glyph glyph-name="eng" unicode="&#x14b;" horiz-adv-x="1127" 
d="M984 14q0 -221 -81 -328.5t-246 -107.5q-34 0 -70 8t-65 25v130q35 -23 70 -34t67 -11q101 0 149 75t48 230v589q0 347 -252 347q-71 0 -128.5 -28.5t-98 -77t-62.5 -112t-22 -133.5v-586h-128v1024h128v-178h4q114 202 343 202q171 0 257.5 -107.5t86.5 -316.5v-610z
" />
    <glyph glyph-name="Obreve" unicode="&#x14e;" horiz-adv-x="1551" 
d="M770 -25q-155 0 -279 56.5t-210.5 154.5t-133 230.5t-46.5 284.5q0 168 46.5 307.5t135.5 239t218 155t294 55.5q152 0 273 -54.5t206 -151t130.5 -228.5t45.5 -287q0 -163 -44.5 -302.5t-131 -241.5t-213 -160t-291.5 -58zM781 1337q-130 0 -230.5 -49.5t-169.5 -134
t-104.5 -198t-36.5 -241.5q-1 -122 31.5 -233.5t98 -197t165.5 -136.5t234 -51t235.5 46.5t169.5 129t102.5 196.5t34.5 249q0 126 -30.5 239t-95 197.5t-164.5 134t-240 49.5zM1057 1794q-7 -55 -30 -99.5t-59 -76.5t-83.5 -49.5t-102.5 -17.5q-57 0 -104.5 17t-82.5 48.5
t-56 76.5t-24 101h92q6 -76 52 -116.5t125 -40.5q34 0 64 11.5t54 32t39.5 49.5t20.5 64h95z" />
    <glyph glyph-name="obreve" unicode="&#x14f;" horiz-adv-x="1174" 
d="M584 -24q-114 0 -204.5 38t-154.5 107.5t-98 166.5t-34 215q0 128 36 229t102.5 171.5t160.5 107.5t210 37q111 0 200 -36.5t151 -105.5t95 -168t33 -225q0 -120 -34.5 -218.5t-98.5 -169.5t-156 -110t-208 -39zM594 937q-84 0 -152 -29t-116.5 -84.5t-74.5 -136
t-26 -182.5q0 -96 26 -173t73.5 -132t115.5 -84.5t152 -29.5q86 0 152 28.5t112 83t69.5 133.5t23.5 180q0 207 -92 316.5t-263 109.5zM873 1446q-7 -55 -30 -99.5t-59 -76.5t-83.5 -49.5t-102.5 -17.5q-57 0 -104.5 17t-82.5 48.5t-56 76.5t-24 101h92q6 -76 52 -116.5
t125 -40.5q34 0 64 11.5t54 32t39.5 49.5t20.5 64h95z" />
    <glyph glyph-name="Scircumflex" unicode="&#x15c;" horiz-adv-x="1053" 
d="M130 210q36 -27 79.5 -48.5t89 -36t91.5 -22t88 -7.5q163 0 244 63t81 181q0 57 -19 99.5t-59 79.5t-101 73.5l-144 82.5q-92 50 -157.5 94.5t-107 91t-61 100.5t-19.5 123q0 87 37 156t100 117.5t147.5 74.5t180.5 26q169 0 283 -47v-147q-127 73 -298 73
q-64 0 -120.5 -15.5t-99 -45.5t-67 -74.5t-24.5 -103.5q0 -56 16.5 -96.5t53 -76.5t96 -71.5t145.5 -81.5q90 -48 157 -93.5t111.5 -95t66.5 -105t22 -123.5q0 -94 -35 -165.5t-98 -118.5t-150 -71t-191 -24q-34 0 -81 5.5t-95 16t-91.5 25t-70.5 31.5v156zM696 1551
l-161 234l-162 -234h-98l218 334h89l218 -334h-104z" />
    <glyph glyph-name="scircumflex" unicode="&#x15d;" horiz-adv-x="832" 
d="M107 184q29 -23 63 -41t70 -31t72.5 -19.5t69.5 -6.5q228 0 228 171q0 39 -16 67.5t-46 52t-72 43.5t-95 42q-71 29 -122 59t-84 65.5t-49 78t-16 96.5q0 68 29.5 121t79.5 90t115.5 56.5t137.5 19.5q133 0 232 -50v-135q-115 74 -248 74q-48 0 -87.5 -12t-67.5 -34
t-43.5 -52.5t-15.5 -67.5q0 -38 12 -66.5t37.5 -51.5t66 -44t98.5 -45q74 -30 128 -59.5t89 -64t52 -77t17 -98.5q0 -69 -28.5 -123t-79 -91t-118.5 -56t-148 -19q-155 0 -261 65v143zM582 1203l-161 234l-162 -234h-98l218 334h89l218 -334h-104z" />
    <glyph glyph-name="Tbar" unicode="&#x166;" horiz-adv-x="1060" 
d="M596 1312v-531h285v-123h-285v-658h-133v658h-286v123h286v531h-413v122h960v-122h-414z" />
    <glyph glyph-name="tbar" unicode="&#x167;" horiz-adv-x="651" 
d="M605 12q-66 -33 -144 -33q-248 0 -248 286v294h-164v109h164v244h-180v112h180v258l128 42v-300h264v-112h-264v-244h244v-109h-244v-274q0 -104 34 -150t115 -46q58 0 115 36v-113z" />
    <glyph glyph-name="Utilde" unicode="&#x168;" horiz-adv-x="1367" 
d="M1199 576q0 -601 -528 -601q-503 0 -503 579v880h133v-868q0 -236 95 -353t294 -117q376 0 376 456v882h133v-858zM1002 1788q0 -51 -12.5 -93t-35.5 -72.5t-56 -47.5t-75 -17q-68 0 -156 64q-70 49 -119 49q-95 0 -95 -128h-83q0 51 12.5 93t35.5 72t56 46.5t75 16.5
q68 0 154 -62q71 -51 123 -51q41 0 65.5 32.5t24.5 97.5h86z" />
    <glyph glyph-name="utilde" unicode="&#x169;" horiz-adv-x="1128" 
d="M835 0v174h-4q-104 -198 -323 -198q-365 0 -365 446v602h128v-578q0 -184 65.5 -272t200.5 -88q66 0 120.5 25.5t94 72t61.5 111.5t22 144v585h128v-1024h-128zM870 1440q0 -51 -12.5 -93t-35.5 -72.5t-56 -47.5t-75 -17q-68 0 -156 64q-70 49 -119 49q-95 0 -95 -128
h-83q0 51 12.5 93t35.5 72t56 46.5t75 16.5q68 0 154 -62q71 -51 123 -51q41 0 65.5 32.5t24.5 97.5h86z" />
    <glyph glyph-name="Ubreve" unicode="&#x16c;" horiz-adv-x="1367" 
d="M1199 576q0 -601 -528 -601q-503 0 -503 579v880h133v-868q0 -236 95 -353t294 -117q376 0 376 456v882h133v-858zM950 1794q-7 -55 -30 -99.5t-59 -76.5t-83.5 -49.5t-102.5 -17.5q-57 0 -104.5 17t-82.5 48.5t-56 76.5t-24 101h92q6 -76 52 -116.5t125 -40.5
q34 0 64 11.5t54 32t39.5 49.5t20.5 64h95z" />
    <glyph glyph-name="ubreve" unicode="&#x16d;" horiz-adv-x="1128" 
d="M835 0v174h-4q-104 -198 -323 -198q-365 0 -365 446v602h128v-578q0 -184 65.5 -272t200.5 -88q66 0 120.5 25.5t94 72t61.5 111.5t22 144v585h128v-1024h-128zM824 1446q-7 -55 -30 -99.5t-59 -76.5t-83.5 -49.5t-102.5 -17.5q-57 0 -104.5 17t-82.5 48.5t-56 76.5
t-24 101h92q6 -76 52 -116.5t125 -40.5q34 0 64 11.5t54 32t39.5 49.5t20.5 64h95z" />
    <glyph glyph-name="longs" unicode="&#x17f;" horiz-adv-x="502" 
d="M583 1395q-41 28 -110 28q-180 0 -180 -235v-1188h-128v1196q0 68 18.5 129.5t56.5 108t95.5 74t134.5 27.5q71 0 113 -19v-121z" />
    <glyph glyph-name="uni018F" unicode="&#x18f;" horiz-adv-x="1484" 
d="M1243 778q-8 116 -46.5 217.5t-107 177t-165 119t-221.5 43.5q-224 0 -388 -96v139q158 80 384 80q168 0 295.5 -54.5t214 -152.5t130.5 -234t44 -300q0 -97 -18.5 -189.5t-55.5 -174.5t-92.5 -151.5t-129.5 -119.5t-166 -78t-203 -28q-116 0 -207.5 28t-161.5 79.5
t-120 124t-81.5 161.5t-46 192.5t-14.5 216.5h1156zM230 657q3 -109 32.5 -210.5t89.5 -179.5t151 -124.5t216 -46.5q124 0 217 44t157 120.5t101 178.5t49 218h-1013z" />
    <glyph glyph-name="uni01DD" unicode="&#x1dd;" horiz-adv-x="1052" 
d="M826 534q-1 96 -25.5 171t-69.5 126.5t-109.5 78.5t-144.5 27q-172 0 -327 -120v126q147 105 356 105q103 0 186.5 -36t143 -105t91.5 -168.5t32 -227.5q0 -114 -34.5 -212t-96 -169.5t-147 -112.5t-187.5 -41q-99 0 -175 34t-127.5 98t-78.5 156t-27 207v63h740z
M218 423q4 -161 76.5 -249t202.5 -88q65 0 120 23t97 66.5t70.5 106t38.5 141.5h-605z" />
    <glyph glyph-name="Aringacute" unicode="&#x1fa;" horiz-adv-x="1304" 
d="M1115 0l-158 424h-615l-154 -424h-148l524 1376q-117 47 -117 170q0 42 16 77.5t44 61t65.5 39.5t80.5 14t79.5 -14t63.5 -38.5t42.5 -59.5t15.5 -77q0 -120 -114 -170l523 -1379h-148zM650 1663q-54 0 -87 -31.5t-33 -82.5q0 -55 32 -85t88 -30q53 0 87.5 32t34.5 83
q0 26 -9.5 47t-26 36t-38.5 23t-48 8zM690 1151q-11 29 -20.5 58.5t-18.5 74.5h-4q-6 -32 -13.5 -57t-14.5 -44l-232 -638h525zM651 1802h-108l228 328h135z" />
    <glyph glyph-name="aringacute" unicode="&#x1fb;" horiz-adv-x="1026" 
d="M755 0v182h-4q-50 -98 -136.5 -152t-195.5 -54q-74 0 -133.5 21t-101 59.5t-64 92.5t-22.5 119q0 139 86 221.5t260 107.5l311 45q0 295 -229 295q-179 0 -332 -131v140q32 23 72.5 41.5t85.5 32t92.5 21t92.5 7.5q171 0 258.5 -96t87.5 -286v-666h-128zM491 497
q-69 -10 -118 -25t-81 -40.5t-47 -63t-15 -92.5q0 -41 14.5 -76t42 -60.5t67 -39.5t89.5 -14q68 0 125 26t98.5 72t65 110t23.5 139v101zM518 1120q-40 0 -76 13t-64 37t-44.5 59t-16.5 78q0 42 16 77t44 60.5t65 39.5t80 14q39 0 75.5 -13t64.5 -37.5t45 -59.5t17 -78
q0 -41 -16.5 -75.5t-45 -60t-65.5 -40t-79 -14.5zM518 1424q-53 0 -86 -32t-33 -83q0 -55 32 -85t87 -30q27 0 49.5 8.5t39 24t25.5 36.5t9 46q0 53 -35 84t-88 31zM521 1566h-108l228 328h135z" />
    <glyph glyph-name="AEacute" unicode="&#x1fc;" horiz-adv-x="1734" 
d="M877 0v424h-506l-206 -424h-152l698 1434h864v-125h-566v-524h525v-120h-525v-544h598v-121h-730zM877 1309h-87l-364 -764h451v764zM1060 1551h-108l228 328h135z" />
    <glyph glyph-name="aeacute" unicode="&#x1fd;" horiz-adv-x="1711" 
d="M882 489q1 -95 25 -170t69 -126.5t109.5 -79t145.5 -27.5q176 0 328 121v-126q-145 -105 -356 -105q-136 0 -235.5 65.5t-151.5 190.5h-4q-139 -256 -389 -256q-76 0 -136.5 20.5t-102.5 59t-64 92.5t-22 120q0 146 96.5 228t287.5 92l273 14q0 335 -227 335
q-180 0 -334 -128v137q155 102 348 102q232 0 298 -227h4q120 227 369 227q99 0 175.5 -34.5t129 -99t79.5 -156t27 -206.5v-63h-742zM1492 601q-5 161 -77 248.5t-202 87.5q-65 0 -120.5 -23t-98 -66.5t-70.5 -105.5t-39 -141h607zM755 490l-181 -8q-85 -4 -150 -14
t-108 -32.5t-65 -62t-22 -101.5q0 -43 15 -77.5t43.5 -58.5t68.5 -37t89 -13q63 0 119.5 26t99 71t67 105.5t24.5 129.5v72zM837 1203h-108l228 328h135z" />
    <glyph glyph-name="Oslashacute" unicode="&#x1fe;" horiz-adv-x="1551" 
d="M770 -25q-138 0 -250 44t-197 123l-164 -195l-70 58l171 204q-78 97 -118.5 222.5t-40.5 269.5q0 168 46.5 307.5t135.5 239t218 155t294 55.5q120 0 220 -34t180 -97l138 165l71 -58l-142 -169q91 -97 139.5 -232t48.5 -296q0 -163 -44.5 -302.5t-131 -241.5t-213 -160
t-291.5 -58zM1311 717q0 131 -32.5 246t-101.5 200l-772 -922q66 -68 156 -106.5t208 -38.5q134 0 235.5 46.5t169.5 129t102.5 196.5t34.5 249zM781 1337q-130 0 -230.5 -49.5t-169.5 -134t-104.5 -198t-36.5 -241.5q-1 -112 25.5 -215t81.5 -186l766 916
q-63 51 -144.5 79.5t-187.5 28.5zM750 1551h-108l228 328h135z" />
    <glyph glyph-name="oslashacute" unicode="&#x1ff;" horiz-adv-x="1174" 
d="M983 869q98 -140 98 -353q0 -123 -35 -222.5t-99.5 -170t-156.5 -109t-206 -38.5q-193 0 -318 107l-156 -172l-71 68l159 176q-105 141 -105 348q0 128 36 229t103 171t161 107.5t210 37.5q192 0 314 -106l167 183l73 -67zM833 851q-89 86 -239 86q-85 0 -153.5 -29.5
t-116.5 -85t-73.5 -136t-25.5 -181.5q0 -150 63 -255zM349 173q95 -87 242 -87q86 0 153 29t112.5 83.5t69.5 134t24 179.5q0 152 -56 258zM562 1203h-108l228 328h135z" />
    <glyph glyph-name="Scommaaccent" unicode="&#x218;" horiz-adv-x="1053" 
d="M130 210q36 -27 79.5 -48.5t89 -36t91.5 -22t88 -7.5q163 0 244 63t81 181q0 57 -19 99.5t-59 79.5t-101 73.5l-144 82.5q-92 50 -157.5 94.5t-107 91t-61 100.5t-19.5 123q0 87 37 156t100 117.5t147.5 74.5t180.5 26q169 0 283 -47v-147q-127 73 -298 73
q-64 0 -120.5 -15.5t-99 -45.5t-67 -74.5t-24.5 -103.5q0 -56 16.5 -96.5t53 -76.5t96 -71.5t145.5 -81.5q90 -48 157 -93.5t111.5 -95t66.5 -105t22 -123.5q0 -94 -35 -165.5t-98 -118.5t-150 -71t-191 -24q-34 0 -81 5.5t-95 16t-91.5 25t-70.5 31.5v156zM609 -119
l-146 -260h-101l105 260h142z" />
    <glyph glyph-name="scommaaccent" unicode="&#x219;" horiz-adv-x="832" 
d="M107 184q29 -23 63 -41t70 -31t72.5 -19.5t69.5 -6.5q228 0 228 171q0 39 -16 67.5t-46 52t-72 43.5t-95 42q-71 29 -122 59t-84 65.5t-49 78t-16 96.5q0 68 29.5 121t79.5 90t115.5 56.5t137.5 19.5q133 0 232 -50v-135q-115 74 -248 74q-48 0 -87.5 -12t-67.5 -34
t-43.5 -52.5t-15.5 -67.5q0 -38 12 -66.5t37.5 -51.5t66 -44t98.5 -45q74 -30 128 -59.5t89 -64t52 -77t17 -98.5q0 -69 -28.5 -123t-79 -91t-118.5 -56t-148 -19q-155 0 -261 65v143zM495 -119l-146 -260h-101l105 260h142z" />
    <glyph glyph-name="uni021A" unicode="&#x21a;" horiz-adv-x="1060" 
d="M596 1312v-1312h-133v1312h-413v122h960v-122h-414zM633 -119l-146 -260h-101l105 260h142z" />
    <glyph glyph-name="uni021B" unicode="&#x21b;" horiz-adv-x="651" 
d="M605 12q-66 -33 -144 -33q-248 0 -248 286v647h-180v112h180v258l128 42v-300h264v-112h-264v-627q0 -104 34 -150t115 -46q60 0 115 36v-113zM496 -119l-146 -260h-101l105 260h142z" />
    <glyph glyph-name="uni0259" unicode="&#x259;" horiz-adv-x="1052" 
d="M826 534q-1 96 -25.5 171t-69.5 126.5t-109.5 78.5t-144.5 27q-174 0 -327 -120v126q146 105 356 105q103 0 186.5 -36t143 -104.5t91.5 -168.5t32 -228q0 -115 -34.5 -213t-96 -169.5t-147 -112t-187.5 -40.5q-99 0 -175 34t-127.5 98t-78.5 156t-27 207v63h740z
M218 423q2 -79 21.5 -142t55 -106t86.5 -66t116 -23t120.5 23.5t98 67t70 106t37.5 140.5h-605z" />
    <glyph glyph-name="uni02BB" unicode="&#x2bb;" horiz-adv-x="453" 
d="M243 1458h96l-117 -470h-129z" />
    <glyph glyph-name="afii57929" unicode="&#x2bc;" horiz-adv-x="451" 
d="M210 998h-96l118 448h126z" />
    <glyph glyph-name="glyph581" horiz-adv-x="798" 
d="M486 -119l-146 -260h-101l105 260h142z" />
    <glyph glyph-name="uni03D8" unicode="&#x3d8;" horiz-adv-x="1470" 
d="M735 1336q-112 0 -202.5 -32t-154 -89t-98 -135.5t-34.5 -171.5t34 -171t97 -133.5t153.5 -86.5t204.5 -31t205 31.5t154 87.5t96.5 133.5t33.5 169.5t-35 170.5t-99 135.5t-154.5 89.5t-200.5 32.5zM801 0h-133v366q-132 12 -236 55.5t-176 113t-110.5 163t-38.5 204.5
q0 121 47.5 223t132 176t200 115.5t250.5 41.5q138 0 253 -39.5t198 -111t129 -171t46 -220.5q0 -111 -40 -206t-113.5 -167t-177 -118t-231.5 -59v-366z" />
    <glyph glyph-name="uni03D9" unicode="&#x3d9;" horiz-adv-x="1174" 
d="M524 -471v450q-101 10 -181 52t-135.5 110.5t-85 160.5t-29.5 201q0 128 37 229t103.5 171.5t160.5 107.5t208 37q112 0 201 -37t150.5 -106t94.5 -168t33 -224q0 -110 -29 -203t-84.5 -163t-135 -113.5t-180.5 -54.5v-450h-128zM594 937q-84 0 -152.5 -29.5t-116.5 -85
t-74 -136t-26 -181.5q0 -95 25.5 -172.5t73 -132t115.5 -84.5t153 -30q86 0 152.5 28.5t112 83.5t69 134t23.5 179q0 207 -92 316.5t-263 109.5z" />
    <glyph glyph-name="uni03DC" unicode="&#x3dc;" horiz-adv-x="986" 
d="M732 509q7 19 11 43.5t4 50.5q0 94 -124 94h-304v-697h-133v1434h709v-122h-576v-496h314q111 0 172.5 -48t61.5 -148q0 -27 -4.5 -56.5t-12.5 -54.5h-118z" />
    <glyph glyph-name="uni03DD" unicode="&#x3dd;" horiz-adv-x="904" 
d="M831 925h-225q-166 0 -251.5 -87.5t-85.5 -266.5v-92h513v-112h-513v-838h-125v1023q0 116 30 206t89.5 151.5t146.5 94t201 32.5h220v-111z" />
    <glyph glyph-name="uni03E0" unicode="&#x3e0;" horiz-adv-x="1266" 
d="M884 0q70 133 106.5 281.5t36.5 318.5q0 105 -18 204l-457 -356l-67 86l496 389q-17 56 -42.5 105.5t-58.5 96.5l-531 -415l-68 85l526 413q-69 63 -155 95.5t-180 32.5q-126 0 -239.5 -50.5t-213.5 -145.5v152q104 84 216 125t245 41q158 0 284.5 -66t215.5 -181
t136.5 -270.5t47.5 -335.5q0 -312 -133 -605h-147z" />
    <glyph glyph-name="uni03E1" unicode="&#x3e1;" horiz-adv-x="1010" 
d="M527 -480q57 86 100 171.5t72.5 174t44 182.5t14.5 197q0 42 -3 87.5t-8 79.5l-479 -175l-40 106l499 181q-17 70 -43.5 139t-61.5 139l-497 -181l-39 104l479 177q-132 208 -303 330.5t-380 167.5v136q218 -47 398 -160t320 -293q143 -183 214.5 -392t71.5 -444
q0 -96 -13 -187.5t-38.5 -181t-64.5 -178.5t-92 -180h-151z" />
    <glyph glyph-name="uni03FA" unicode="&#x3fa;" horiz-adv-x="1692" 
d="M1375 0v1010q0 76 12 245h-4q-10 -29 -23.5 -51t-23.5 -43l-460 -823h-57l-461 816q-11 25 -23 49.5t-22 53.5h-4q4 -46 5.5 -105t1.5 -131v-1021h-130v1434h157l447 -798l17 -30.5t14.5 -28.5t12.5 -30t12 -36h6l12.5 35t11.5 29t13 28t17 32l451 799h149v-1434h-131z
" />
    <glyph glyph-name="uni03FB" unicode="&#x3fb;" horiz-adv-x="1369" 
d="M1078 864l-35.5 -67t-34.5 -61l-266 -456h-111l-282 456q-18 29 -33.5 57t-36.5 71v-1335h-114v1495h139l291 -469l26 -42.5t27 -48l24 -47t17 -38.5l19 38t24 45.5l26 46.5l24 42l277 473h145v-1024h-126v864z" />
    <glyph glyph-name="uni0400" unicode="&#x400;" horiz-adv-x="1030" 
d="M186 0v1434h699v-122h-566v-526h524v-120h-524v-545h598v-121h-731zM588 1551l-255 328h136l227 -328h-108z" />
    <glyph glyph-name="uni040D" unicode="&#x40d;" horiz-adv-x="1493" 
d="M1172 0v1079q0 49 1.5 91.5t4.5 70.5h-5q-9 -21 -24.5 -46.5t-27.5 -43.5l-796 -1151h-139v1434h133v-1066q0 -53 -1.5 -96t-4.5 -69h4q11 20 27 45.5t32 48.5l784 1137h146v-1434h-134zM765 1552l-255 328h136l227 -328h-108z" />
    <glyph glyph-name="glyph592" horiz-adv-x="1493" 
d="M1172 0v1079q0 49 1.5 91.5t4.5 70.5h-5q-9 -21 -24.5 -46.5t-27.5 -43.5l-796 -1151h-139v1434h133v-1066q0 -53 -1.5 -96t-4.5 -69h4q11 20 27 45.5t32 48.5l784 1137h146v-1434h-134z" />
    <glyph glyph-name="uni0450" unicode="&#x450;" horiz-adv-x="1052" 
d="M226 489q1 -94 25 -169t69 -127t109.5 -79.5t145.5 -27.5q173 0 327 121v-126q-147 -105 -356 -105q-103 0 -187 36t-143 104.5t-91 168.5t-32 228q0 115 35 213t97 169.5t147 112t186 40.5q99 0 175 -34.5t127.5 -98.5t78.5 -156t27 -206v-64h-740zM834 601
q-3 160 -76 248t-203 88q-65 0 -120.5 -23t-97.5 -66.5t-69.5 -106t-38.5 -140.5h605zM571 1203l-255 328h136l227 -328h-108z" />
    <glyph glyph-name="uni045D" unicode="&#x45d;" horiz-adv-x="1159" 
d="M874 0v836l-14 -23t-14 -22l-564 -791h-117v1024h121v-828q5 14 14.5 31.5t23.5 37.5l548 759h122v-1024h-120zM556 1203l-255 328h136l227 -328h-108z" />
    <glyph glyph-name="uni0492" unicode="&#x492;" horiz-adv-x="996" 
d="M360 1312v-506h424v-119h-424v-687h-133v687h-186v119h186v628h709v-122h-576z" />
    <glyph glyph-name="uni0493" unicode="&#x493;" horiz-adv-x="767" 
d="M330 912v-328h287v-109h-287v-475h-128v475h-172v109h172v440h534v-112h-406z" />
    <glyph glyph-name="uni0496" unicode="&#x496;" horiz-adv-x="1793" 
d="M1627 120h127v-504h-124v384h-79l-585 671q-9 10 -17 20t-14 21h-5v-712h-128v712h-4l-15.5 -21.5t-15.5 -19.5l-586 -671h-183l662 741l-621 693h168l559 -631q8 -9 17 -20.5t15 -21.5h4v673h128v-673h5q5 10 14.5 21.5l17.5 20.5l558 631h167l-620 -693z" />
    <glyph glyph-name="uni0497" unicode="&#x497;" horiz-adv-x="1490" 
d="M788 504h-4v-504h-124v504h-4l-470 -504h-174l510 526l-486 498h164l456 -484h4v484h124v-484h4l457 484h165l-488 -498l409 -420h116v-479h-112v373h-77z" />
    <glyph glyph-name="uni049A" unicode="&#x49a;" horiz-adv-x="1181" 
d="M940 0l-586 671q-11 13 -18.5 23t-12.5 18h-4v-712h-133v1434h133v-675h4q7 11 15 21l17 21l558 633h169l-622 -693l555 -621h128v-504h-125v384h-78z" />
    <glyph glyph-name="uni049B" unicode="&#x49b;" horiz-adv-x="1003" 
d="M767 0l-470 498h-4v-498h-128v1024h128v-476h4l447 476h168l-481 -496l412 -422h117v-479h-112v373h-81z" />
    <glyph glyph-name="uni049C" unicode="&#x49c;" horiz-adv-x="1133" 
d="M937 0l-455 522v-287h-76v375l-52 61q-14 17 -21.5 27t-9.5 14h-4v-712h-133v1434h133v-675h4q7 11 15 21l17 21l51 58v356h76v-269l431 488h169l-600 -669v-47l641 -718h-186z" />
    <glyph glyph-name="uni049D" unicode="&#x49d;" horiz-adv-x="958" 
d="M767 0l-306 323v-209h-76v289l-88 95h-4v-498h-128v1024h128v-476h4l88 94v253h76v-172l283 301h168l-451 -464v-64l486 -496h-180z" />
    <glyph glyph-name="uni04A2" unicode="&#x4a2;" horiz-adv-x="1478" 
d="M1101 0v671h-782v-671h-133v1434h133v-643h782v643h133v-1313h187v-505h-125v384h-195z" />
    <glyph glyph-name="uni04A3" unicode="&#x4a3;" horiz-adv-x="1192" 
d="M856 477h-563v-477h-128v1024h128v-436h563v436h128v-912h155v-485h-113v373h-170v477z" />
    <glyph glyph-name="uni04AE" unicode="&#x4ae;" horiz-adv-x="1119" 
d="M617 537v-537h-133v534l-450 900h151l328 -670q6 -12 16 -36t24 -61h3q6 18 17 42t27 54l343 671h142z" />
    <glyph glyph-name="uni04AF" unicode="&#x4af;" horiz-adv-x="959" 
d="M410 -471v480l-394 1015h142l287 -790q10 -27 17 -53l13 -50h3q6 24 13 49.5t18 53.5l299 790h135l-405 -1016v-479h-128z" />
    <glyph glyph-name="uni04B2" unicode="&#x4b2;" horiz-adv-x="1272" 
d="M967 0l-330 548l-22.5 40t-20.5 45h-5l-20.5 -41t-24.5 -44l-338 -548h-163l467 722l-434 712h162l307 -522q14 -23 26.5 -47.5l25.5 -50.5h4q14 29 27.5 54t26.5 46l312 520h154l-440 -710l374 -604h160v-504h-124v384h-124z" />
    <glyph glyph-name="uni04B3" unicode="&#x4b3;" horiz-adv-x="986" 
d="M525 504l265 -398h142v-479h-111v373h-114l-208 339l-24.5 40l-25.5 42h-4q-5 -11 -16.5 -29.5l-28.5 -44.5l-220 -347h-151l346 501l-335 523h149l213 -359q33 -55 48 -84h4q13 19 24 38.5l23 39.5l226 365h144z" />
    <glyph glyph-name="uni04B8" unicode="&#x4b8;" horiz-adv-x="1298" 
d="M979 0v647q-83 -38 -160.5 -65t-152.5 -39v-347h-76v338q-12 -1 -24 -1.5t-23 -0.5q-95 0 -166 25t-118 72t-70.5 113.5t-23.5 150.5v541h133v-530q0 -58 16 -105t48 -80t80 -50.5t113 -17.5h17t18 1v382h76v-374q72 11 150.5 36t162.5 62v676h133v-1434h-133z" />
    <glyph glyph-name="uni04B9" unicode="&#x4b9;" horiz-adv-x="1114" 
d="M821 0v429q-124 -68 -237 -92v-223h-76v213q-9 -1 -18 -1.5t-17 -0.5q-74 0 -134.5 20t-103 63.5t-65.5 111.5t-23 164v340h129v-332q0 -58 11.5 -104.5t36 -79.5t64.5 -50.5t97 -17.5h12t11 1v313h76v-304q62 11 121 33t116 53v488h128v-1024h-128z" />
    <glyph glyph-name="uni04BA" unicode="&#x4ba;" horiz-adv-x="1298" 
d="M319 1434v-648q114 53 223 84t216 31q93 0 163.5 -25t117.5 -72t70.5 -114t23.5 -150v-540h-133v529q0 58 -16 105t-48.5 80t-80.5 50.5t-112 17.5q-97 0 -204 -28t-220 -79v-675h-133v1434h133z" />
    <glyph glyph-name="uni04BB" unicode="&#x4bb;" horiz-adv-x="1127" 
d="M856 0v602q0 172 -62 253.5t-193 81.5q-62 0 -118 -25t-98 -72t-67 -114.5t-25 -152.5v-573h-128v1516h128v-669h4q120 201 344 201q171 0 257 -105t86 -310v-633h-128z" />
    <glyph glyph-name="uni04D8" unicode="&#x4d8;" horiz-adv-x="1467" 
d="M1227 778q-9 133 -53 237t-115.5 175.5t-167 109t-207.5 37.5t-204.5 -22.5t-173.5 -69.5v137q155 76 381 76q158 0 284 -51.5t214 -148t134.5 -233.5t46.5 -308q0 -159 -47 -294.5t-133.5 -234.5t-207.5 -155.5t-268 -56.5q-149 0 -265 51.5t-195.5 152.5t-120.5 251
t-41 347h1139zM229 657q2 -126 36.5 -229t96.5 -177t150.5 -114.5t197.5 -40.5q111 0 201.5 41t157.5 115.5t107.5 177.5t50.5 227h-998z" />
    <glyph glyph-name="afii10846" unicode="&#x4d9;" horiz-adv-x="1052" 
d="M826 534q-1 96 -25.5 171t-69.5 126.5t-109.5 78.5t-144.5 27q-172 0 -327 -120v126q147 105 356 105q103 0 186.5 -36t143 -105t91.5 -168.5t32 -227.5q0 -114 -34.5 -212t-96 -169.5t-147 -112.5t-187.5 -41q-99 0 -175 34t-127.5 98t-78.5 156t-27 207v63h740z
M218 423q4 -161 76.5 -249t202.5 -88q65 0 120 23t97 66.5t70.5 106t38.5 141.5h-605z" />
    <glyph glyph-name="uni04E8" unicode="&#x4e8;" horiz-adv-x="1551" 
d="M770 -25q-155 0 -279 56.5t-210.5 154.5t-133 230.5t-46.5 284.5q0 168 46.5 307.5t135.5 239t218 155t294 55.5q152 0 273 -54.5t206 -151t130.5 -228.5t45.5 -287q0 -163 -44.5 -302.5t-131 -241.5t-213 -160t-291.5 -58zM769 96q129 0 227.5 42.5t166 119t104.5 182
t43 232.5h-1070q5 -115 40 -219.5t101 -184t162.5 -126t225.5 -46.5zM781 1337q-120 0 -215 -42.5t-163.5 -116t-108.5 -173.5t-51 -214h1065q-8 114 -43 213.5t-99.5 173.5t-160 116.5t-224.5 42.5z" />
    <glyph glyph-name="uni04E9" unicode="&#x4e9;" horiz-adv-x="1174" 
d="M584 -24q-114 0 -204.5 38t-154.5 107.5t-98 166.5t-34 215q0 128 36 229t102.5 171.5t160.5 107.5t210 37q111 0 200 -36.5t151 -105.5t95 -168t33 -225q0 -120 -34.5 -218.5t-98.5 -169.5t-156 -110t-208 -39zM592 86q81 0 144.5 25.5t108.5 74t71 119t31 161.5h-721
q5 -87 33 -157.5t75.5 -120t112.5 -76t145 -26.5zM594 937q-76 0 -139 -24t-110.5 -70t-77 -113t-38.5 -152h717q-15 174 -105.5 266.5t-246.5 92.5z" />
    <glyph glyph-name="glyph617" horiz-adv-x="1159" 
d="M874 0v836l-14 -23t-14 -22l-564 -791h-117v1024h121v-828q5 14 14.5 31.5t23.5 37.5l548 759h122v-1024h-120z" />
    <glyph glyph-name="quotereversed" unicode="&#x201b;" horiz-adv-x="453" 
d="M103 1446h126l117 -448h-94z" />
    <glyph glyph-name="minute" unicode="&#x2032;" horiz-adv-x="484" 
d="M345 1434l-100 -452h-100l75 452h125z" />
    <glyph glyph-name="second" unicode="&#x2033;" horiz-adv-x="791" 
d="M647 1434l-101 -452h-100l75 452h126zM350 1434l-100 -452h-100l75 452h125z" />
    <glyph glyph-name="exclamdbl" unicode="&#x203c;" horiz-adv-x="922" 
d="M344 403h-111l-14 1031h139zM291 -18q-40 0 -68 27.5t-28 67.5q0 41 28 68.5t68 27.5q19 0 36 -7t30.5 -20t21.5 -30.5t8 -38.5q0 -20 -8 -37.5t-21.5 -30.5t-30.5 -20t-36 -7zM684 403h-111l-14 1031h139zM631 -18q-40 0 -68 27.5t-28 67.5q0 41 28 68.5t68 27.5
q19 0 36 -7t30.5 -20t21.5 -30.5t8 -38.5q0 -20 -8 -37.5t-21.5 -30.5t-30.5 -20t-36 -7z" />
    <glyph glyph-name="uni203E" unicode="&#x203e;" horiz-adv-x="850" 
d="M850 1396h-850v120h850v-120z" />
    <glyph glyph-name="uni207F" unicode="&#x207f;" horiz-adv-x="803" 
d="M587 717v383q0 65 -7.5 113.5t-25.5 80.5t-48.5 48.5t-76.5 16.5q-41 0 -78 -18t-64.5 -49.5t-43.5 -74t-16 -90.5v-410h-110v718h107v-123h3q70 142 221 142q121 0 185.5 -75.5t64.5 -213.5v-448h-111z" />
    <glyph glyph-name="franc" unicode="&#x20a3;" horiz-adv-x="976" 
d="M577 300h-258v-300h-133v300h-160v123h160v1011h699v-122h-566v-540h524v-121h-524v-228h258v-123z" />
    <glyph glyph-name="lira" unicode="&#x20a4;" horiz-adv-x="1079" 
d="M454 899h312v-115h-312v-160h312v-115h-312v-27q0 -269 -203 -370h726v-112h-884v110q233 87 233 339v60h-213v115h213v160h-213v115h213v137q0 93 27 170.5t76.5 133.5t119 87t153.5 31q107 0 198 -38v-125q-94 51 -199 51q-121 0 -184 -82t-63 -243v-122z" />
    <glyph glyph-name="peseta" unicode="&#x20a7;" horiz-adv-x="2246" 
d="M319 558v-558h-133v1434h304q227 0 342.5 -104t115.5 -311q0 -102 -34 -187t-97.5 -146t-156 -94.5t-209.5 -33.5h-132zM319 1312v-632h124q183 0 274.5 84t91.5 245q0 303 -343 303h-147zM1520 12q-66 -33 -144 -33q-123 0 -180.5 69t-57.5 217v476h-154v111h154v258
l128 43v-301h254v-111h-254v-456q0 -97 33 -146.5t106 -49.5q58 0 115 36v-113zM1599 184q25 -22 55.5 -40.5t62.5 -31t65 -19.5t63 -7q92 0 142 34.5t50 102.5q0 27 -8 48.5t-30.5 42t-63.5 41t-107 46.5q-52 21 -94 41.5t-71.5 47t-45 61.5t-15.5 84q0 58 24 104t66 78.5
t98 49.5t119 17q62 0 117.5 -11.5t97.5 -34.5v-130q-48 32 -104.5 49t-110.5 17q-38 0 -71 -8.5t-57 -25t-37.5 -41.5t-13.5 -57q0 -48 37.5 -78.5t111.5 -57.5q64 -24 117 -48t90.5 -55t58.5 -72t21 -99q0 -63 -23.5 -111t-65.5 -80t-100.5 -48.5t-127.5 -16.5
q-75 0 -139 16t-111 49v143z" />
    </font>
</defs>
</svg>
